<svg width="588" height="612" viewBox="0 0 588 612" fill="none" xmlns="http://www.w3.org/2000/svg">
<path d="M425.333 209.664L294 275.664L162.667 209.664L0 534.331L101.333 524.331L153.333 611.664L294 331.664L434.667 611.664L486.667 524.331L588 534.331L425.333 209.664Z" fill="#54C339"/>
<path d="M294.001 429.665C412.558 429.665 508.667 333.556 508.667 214.999C508.667 96.4416 412.558 0.332031 294.001 0.332031C175.444 0.332031 79.334 96.4416 79.334 214.999C79.334 333.556 175.444 429.665 294.001 429.665Z" fill="#E5B97F"/>
<path d="M294.001 383.665C387.153 383.665 462.667 308.151 462.667 214.999C462.667 121.847 387.153 46.332 294.001 46.332C200.849 46.332 125.334 121.847 125.334 214.999C125.334 308.151 200.849 383.665 294.001 383.665Z" fill="#C19A6B"/>
<path d="M301.999 113.664L329.999 169.664C331.333 172.331 333.999 174.331 336.666 174.997L398.666 184.331C405.999 185.664 409.333 194.331 403.999 199.664L359.333 243.664C357.333 245.664 355.999 248.997 356.666 251.664L367.333 313.664C368.666 320.997 360.666 326.997 353.999 322.997L298.666 293.664C295.999 292.331 292.666 292.331 289.999 293.664L233.999 322.997C227.333 326.331 219.333 320.997 220.666 313.664L231.333 251.664C231.999 248.997 230.666 245.664 228.666 243.664L183.999 199.664C178.666 194.331 181.333 184.997 189.333 184.331L251.333 174.997C253.999 174.331 256.666 172.997 257.999 169.664L285.999 113.664C289.333 106.997 298.666 106.997 301.999 113.664Z" fill="white"/>
</svg>