<svg width="17" height="18" viewBox="0 0 17 18" fill="none" xmlns="http://www.w3.org/2000/svg">
<path d="M4.81817 14.7565C5.50899 14.7567 6.0748 15.3344 6.075 16.0485C6.075 16.7542 5.50911 17.3324 4.81817 17.3327C4.11871 17.3327 3.55254 16.7543 3.55254 16.0485C3.55274 15.3343 4.11883 14.7565 4.81817 14.7565ZM14.1863 14.7565C14.8773 14.7565 15.443 15.3343 15.4432 16.0485C15.4432 16.7543 14.8774 17.3326 14.1863 17.3327C13.4869 17.3327 12.9207 16.7543 12.9207 16.0485C12.9209 15.3343 13.487 14.7565 14.1863 14.7565ZM1.03301 0.673482L3.01836 0.978169C3.30138 1.03003 3.50986 1.26729 3.53496 1.55629L3.69317 3.46157C3.71815 3.73446 3.93464 3.93898 4.20098 3.93911H15.4471C15.9548 3.93921 16.2879 4.11736 16.6209 4.50844C16.9539 4.89963 17.0122 5.461 16.9373 5.97036L16.1463 11.5495C15.9963 12.6215 15.097 13.4115 14.0398 13.4118H4.95489C3.84746 13.4118 2.93131 12.545 2.83965 11.4225L2.07403 2.152L0.816213 1.93032C0.483399 1.8707 0.250395 1.53979 0.308401 1.19985C0.366689 0.852025 0.69161 0.621606 1.03301 0.673482ZM10.4031 7.08461C10.0534 7.08463 9.7791 7.36514 9.7791 7.72231C9.77927 8.07083 10.0535 8.35999 10.4031 8.36001H12.7098C13.0594 8.35997 13.3336 8.07082 13.3338 7.72231C13.3338 7.36516 13.0595 7.08465 12.7098 7.08461H10.4031Z" fill="#7D8082"/>
</svg>
