<svg width="18" height="18" viewBox="0 0 18 18" fill="none" xmlns="http://www.w3.org/2000/svg">
<path d="M17 9C17 13.4183 13.4183 17 9 17C4.58172 17 1 13.4183 1 9C1 4.58172 4.58172 1 9 1C13.4183 1 17 4.58172 17 9Z" fill="#E05B5B" fill-opacity="0.25" stroke="#E05B5B" stroke-width="2"/>
<path fill-rule="evenodd" clip-rule="evenodd" d="M6.17573 6.17573C6.41006 5.94142 6.78995 5.94142 7.02427 6.17573L11.8243 10.9758C12.0586 11.2101 12.0586 11.5899 11.8243 11.8243C11.5899 12.0586 11.21 12.0586 10.9757 11.8243L6.17573 7.02427C5.94142 6.78994 5.94142 6.41005 6.17573 6.17573Z" fill="#E05B5B"/>
<path fill-rule="evenodd" clip-rule="evenodd" d="M11.8243 6.17573C12.0586 6.41006 12.0586 6.78995 11.8243 7.02427L7.02427 11.8243C6.78994 12.0586 6.41005 12.0586 6.17573 11.8243C5.94142 11.5899 5.94142 11.21 6.17573 10.9757L10.9758 6.17573C11.2101 5.94142 11.5899 5.94142 11.8243 6.17573Z" fill="#E05B5B"/>
</svg>
