<svg width="36" height="36" viewBox="0 0 36 36" fill="none" xmlns="http://www.w3.org/2000/svg">
<circle cx="18" cy="18" r="17.75" fill="#2B2D30" stroke="#464A4F" stroke-width="0.5"/>
<path d="M15.5418 6.00003C18.1756 6.00003 20.5605 7.0648 22.2871 8.78591C24.0127 10.5061 25.0806 12.8836 25.0806 15.5103C25.0806 18.1359 24.0126 20.5134 22.2871 22.2337C20.5606 23.9548 18.1766 25.0195 15.5418 25.0195C14.9858 25.0195 14.4374 24.9709 13.9024 24.8783C13.4373 24.7982 12.9789 24.6818 12.5319 24.5339L9.19369 26.049C8.91233 26.1768 8.58022 26.0537 8.45103 25.7723C8.40127 25.6635 8.38882 25.5462 8.40988 25.4374H8.40892L8.97741 22.4083C8.08064 21.5601 7.34947 20.543 6.83743 19.4077C6.30052 18.216 6 16.8976 6 15.5102C6 12.8836 7.06808 10.5071 8.79453 8.78588C10.5201 7.0647 12.905 6 15.5398 6L15.5418 6.00003ZM14.9791 20.6177C14.9791 20.3086 15.2308 20.0567 15.5418 20.0567C15.8519 20.0567 16.1046 20.3076 16.1046 20.6177V20.9345C16.1046 21.2436 15.8529 21.4955 15.5418 21.4955C15.2308 21.4955 14.9791 21.2446 14.9791 20.9345V20.6177ZM12.9702 13.462C12.9702 13.7711 12.7185 14.023 12.4075 14.023C12.0964 14.023 11.8447 13.7721 11.8447 13.462C11.8447 12.444 12.2582 11.5233 12.9272 10.8564C13.5962 10.1895 14.5197 9.77731 15.5409 9.77731C16.5621 9.77731 17.4856 10.1895 18.1546 10.8564C18.8236 11.5233 19.237 12.444 19.237 13.462C19.237 14.48 18.8236 15.4007 18.1546 16.0676C17.611 16.6096 16.898 16.9836 16.1027 17.1047V18.4023C16.1027 18.7124 15.851 18.9633 15.5399 18.9633C15.2289 18.9633 14.9772 18.7124 14.9772 18.4023V16.5857C14.9772 16.2766 15.2289 16.0247 15.5399 16.0247C16.2501 16.0247 16.8932 15.7385 17.3583 15.2748C17.8235 14.8111 18.1106 14.17 18.1106 13.462C18.1106 12.7541 17.8225 12.1129 17.3583 11.6492C16.8932 11.1856 16.2501 10.8993 15.5399 10.8993C14.8298 10.8993 14.1867 11.1865 13.7215 11.6492C13.2564 12.1129 12.9693 12.7541 12.9693 13.462H12.9702ZM17.2885 27.3792C16.9956 27.2762 16.8434 26.9575 16.9458 26.6655C17.0492 26.3736 17.3689 26.2219 17.6617 26.324C18.1048 26.4804 18.5642 26.5997 19.0351 26.6789L19.037 26.6798C19.4964 26.7571 19.9721 26.7982 20.4602 26.7982C20.9569 26.7982 21.4421 26.7552 21.9101 26.6741C22.3963 26.5902 22.8643 26.4661 23.3093 26.3058C23.4519 26.2543 23.6022 26.2658 23.7314 26.323L26.2905 27.4841L25.8627 25.2077C25.8234 24.9978 25.9067 24.7936 26.0636 24.6686C26.9393 23.8901 27.6504 22.9303 28.1395 21.8464C28.6123 20.7988 28.8755 19.6357 28.8755 18.4088C28.8755 17.1876 28.6152 16.0293 28.1481 14.9874C27.661 13.9017 26.9489 12.9381 26.0722 12.1556C25.8425 11.9495 25.8225 11.5965 26.0282 11.3675C26.2349 11.1376 26.5891 11.1176 26.8187 11.3237C27.8131 12.211 28.6199 13.3024 29.1712 14.5333C29.7033 15.7202 30 17.0329 30 18.4107C30 19.798 29.7004 21.1175 29.1626 22.3082C28.6506 23.4435 27.9194 24.4606 27.0226 25.3087L27.5911 28.3389H27.5901C27.6112 28.4486 27.5987 28.565 27.549 28.6738C27.4207 28.9542 27.0877 29.0773 26.8063 28.9495L23.4681 27.4344C23.0221 27.5823 22.5637 27.6987 22.0976 27.7798C21.5626 27.8723 21.0152 27.92 20.4582 27.92C19.9117 27.92 19.3729 27.8733 18.8465 27.7836C18.3096 27.692 17.787 27.5556 17.2865 27.38L17.2885 27.3792ZM21.4908 9.57873C19.9681 8.06079 17.8645 7.12186 15.5418 7.12186C13.2181 7.12186 11.1146 8.06069 9.59185 9.57873C8.06919 11.0967 7.12734 13.1938 7.12734 15.5103C7.12734 16.7372 7.39052 17.9003 7.86331 18.9478C8.35237 20.0316 9.06345 20.9924 9.93917 21.7701C10.0961 21.8951 10.1784 22.1002 10.1402 22.3091L9.71235 24.5856L12.2714 23.4245C12.3997 23.3663 12.5499 23.3558 12.6935 23.4073C13.1385 23.5666 13.6056 23.6907 14.0927 23.7756C14.5607 23.8567 15.045 23.8986 15.5426 23.8986C17.8664 23.8986 19.9699 22.9598 21.4916 21.4418C23.0143 19.9238 23.9561 17.8267 23.9561 15.5112C23.9561 13.1947 23.0144 11.0977 21.4916 9.57966L21.4908 9.57873Z" fill="white"/>
</svg>
