<svg width="12" height="14" viewBox="0 0 12 14" fill="none" xmlns="http://www.w3.org/2000/svg">
<path d="M10.848 10.1049C10.0233 11.7569 8.16349 12.924 6.20785 12.9964C4.25222 13.068 2.29658 12.0628 1.33784 10.4824C0.420057 8.97823 0.486833 7.08139 1.31741 5.58588C1.60069 5.0758 2.19671 5.32864 2.12798 5.90804C2.11249 6.03868 2.09758 6.16879 2.0846 6.29808C2.06513 6.53167 2.0846 6.72877 2.1228 6.90834C2.33403 7.78797 3.11974 8.45297 4.13615 8.59605C5.13309 8.73985 6.05363 8.36246 6.533 7.59015C6.95469 6.92587 6.99289 6.09954 6.64835 5.36379C6.55247 5.16597 6.43712 4.96887 6.34125 4.7893C6.26485 4.66374 6.20717 4.53818 6.13002 4.41191C5.69645 3.56097 5.55866 2.63358 5.71636 1.83173C5.80203 1.39613 6.32911 1.31268 6.65892 1.60985C6.97982 1.89899 7.30601 2.17692 7.62504 2.45484C8.08493 2.84976 8.58378 3.28116 9.02495 3.71185C10.2908 4.9331 11.0187 6.08205 11.2496 7.23186C11.4421 8.16551 11.3079 9.18944 10.848 10.1049Z" fill="#FFDCA5" stroke="#FA942D" stroke-linecap="round" stroke-linejoin="round"/>
</svg>
