<svg width="391" height="211" viewBox="0 0 391 211" fill="none" xmlns="http://www.w3.org/2000/svg">
<path opacity="0.3" d="M132.531 113.223C159.531 113.223 181.42 135.111 181.42 162.111C181.42 189.112 159.531 211 132.531 211C105.531 211 83.6426 189.111 83.6426 162.111C83.6429 135.111 105.531 113.223 132.531 113.223ZM244.92 113.223C271.92 113.223 293.807 135.112 293.808 162.111C293.808 189.111 271.92 211 244.92 211C217.92 211 196.031 189.112 196.031 162.111C196.032 135.111 217.92 113.223 244.92 113.223ZM332.418 144.714L359.462 114.178H390.695L350.644 157.654L389.969 210.002H359.887L333.391 173.352L332.418 174.324V210.002H308.408V114.178H332.418V144.714ZM132.515 137.571C118.978 137.571 108.004 148.546 108.003 162.082C108.003 175.619 118.978 186.594 132.515 186.594C146.052 186.594 157.025 175.619 157.025 162.082C157.025 148.546 146.051 137.572 132.515 137.571ZM244.902 137.571C231.366 137.571 220.392 148.546 220.392 162.082C220.392 175.619 231.365 186.594 244.902 186.594C258.439 186.594 269.414 175.619 269.414 162.082C269.413 148.545 258.439 137.571 244.902 137.571ZM131.926 0C158.926 0.000245336 180.813 21.8885 180.813 48.8887C180.813 75.8884 158.926 97.7761 131.926 97.7764C104.926 97.7764 83.0376 75.8886 83.0371 48.8887C83.0371 21.8884 104.926 0 131.926 0ZM244.059 0C271.059 0 292.947 21.8875 292.947 48.8877C292.947 75.8877 271.059 97.7764 244.059 97.7764C217.059 97.7761 195.17 75.8876 195.17 48.8877C195.17 21.8877 217.059 0.000271186 244.059 0ZM30.2334 0.954102C36.0919 0.954128 41.4167 1.71659 46.168 3.29688C50.8884 4.7862 54.9365 7.00764 58.2275 10.0146C61.5814 12.9241 64.1231 16.4742 65.8398 20.626C67.5634 24.7127 68.3916 29.2671 68.3916 34.2354C68.3916 38.2039 67.7752 42.1563 66.5566 46.083C65.3798 50.141 63.3934 53.8334 60.625 57.1426C59.124 58.9902 57.368 60.6288 55.373 62.0654L77.6191 96.7783H49.8164L30.8633 68.248H23.7666V96.7783H0V0.954102H30.2334ZM131.643 24.3477C118.106 24.3478 107.132 35.3224 107.132 48.8594C107.132 62.396 118.106 73.37 131.643 73.3701C145.179 73.3701 156.154 62.396 156.154 48.8594C156.154 35.3223 145.18 24.3477 131.643 24.3477ZM244.042 24.3477C230.505 24.3479 219.53 35.3224 219.53 48.8594C219.531 62.3959 230.505 73.3699 244.042 73.3701C257.579 73.37 268.552 62.396 268.553 48.8594C268.553 35.3223 257.579 24.3477 244.042 24.3477ZM20.7227 48.1348H33.2812C35.9636 48.1348 38.1991 47.688 39.9873 46.7939C41.7755 45.8998 43.1574 44.7617 44.1328 43.3799C45.1895 41.9981 45.9207 40.5754 46.3271 39.1123C46.8149 37.5679 47.0586 36.1453 47.0586 34.8447C47.0586 33.8693 46.8964 32.6496 46.5713 31.1865C46.3274 29.6422 45.7583 28.098 44.8643 26.5537C43.9701 25.0093 42.5882 23.709 40.7188 22.6523C38.9305 21.5957 36.4921 21.0674 33.4033 21.0674H20.7227V48.1348Z" fill="#20292F"/>
<path d="M15.4141 189.616L15.9283 185.395L16.2711 182.54L20.8258 144.574H62.0629L66.6175 182.54L67.4746 189.616H15.4141Z" fill="#171E22"/>
<path d="M21.397 146.113L21.299 146.088C18.9482 145.43 16.9157 144.283 15.2996 142.672C12.7039 140.086 12.0917 137.231 12.0672 137.109V137.061L10.5 119.224L11.0387 119.029C12.9488 118.321 14.8343 117.736 16.6219 117.297C19.8053 116.516 21.8622 116.443 22.5969 116.443C22.7683 116.443 22.8907 116.443 22.8907 116.443L23.4294 116.467L27.4699 128.984H30.8736L31.094 127.667V127.545L31.1185 127.496L33.151 115.149L33.5918 115.003C35.5018 114.369 37.9506 114.051 40.8646 114.051C41.0605 114.051 41.2564 114.051 41.4523 114.051C41.6482 114.051 41.8196 114.051 42.0155 114.051C42.9215 114.051 43.8031 114.076 44.6357 114.149C46.4232 114.295 47.9905 114.588 49.2883 115.003L49.7291 115.149L52.0064 129.009H55.3857L59.4261 116.491L59.9649 116.467C59.9649 116.467 60.0873 116.467 60.2587 116.467C60.9199 116.467 62.732 116.54 65.548 117.175C67.5315 117.614 69.6375 118.248 71.8168 119.053L72.3556 119.249L70.7884 137.085V137.134C70.7639 137.207 70.3966 138.891 69.0987 140.842C67.8743 142.624 65.597 144.991 61.581 146.113L61.4831 146.137H21.397V146.113Z" fill="#171E22"/>
<path d="M4.82031 208.259V207.479C4.89378 202.159 5.72635 198.353 5.75084 198.207C6.68137 194.132 8.56691 191.204 11.3585 189.52C13.5379 188.203 15.5948 188.105 16.158 188.105C16.207 188.105 16.256 188.105 16.2805 188.105H66.5779C66.6024 188.105 66.6514 188.105 66.7004 188.105C67.2636 188.105 69.3205 188.203 71.4999 189.52C74.2915 191.204 76.1771 194.132 77.1076 198.207C77.1321 198.377 77.9646 202.184 78.0381 207.503V208.284H4.82031V208.259Z" fill="#171E22"/>
<path d="M327.682 76.5801L327.592 75.9275C327.569 75.8066 327.23 73.2202 328.473 69.2801C329.196 67.0079 330.304 64.7115 331.773 62.5118C333.603 59.7803 335.999 57.1455 338.869 54.7041L338.892 54.6799L338.914 54.6557C338.982 54.6074 346.169 49.507 347.276 43.9232C347.434 43.1013 347.457 42.2795 347.344 41.5301C347.321 41.4334 346.892 39.0645 345.694 37.2758C345.106 38.0976 344.044 39.4754 342.666 40.9258C339.728 44.0199 336.835 45.9053 334.1 46.4855C334.033 46.5096 333.942 46.5096 333.829 46.5338H333.784H333.739C333.716 46.5338 332.27 46.558 331.479 46.6063H331.456H331.434C331.321 46.6063 328.45 46.6788 326.236 50.8607C326.168 50.9815 325.671 51.9726 324.97 52.8911L324.767 53.1812C324.496 53.5196 324.224 53.7855 323.953 54.0031L323.75 54.1723L323.501 54.1481C323.072 54.1239 313.173 53.5922 311.297 48.2017C311.117 47.7908 309.964 44.9626 311.795 42.2795C314.055 38.992 320.111 30.0966 320.857 28.332C320.88 28.3078 322.507 24.3677 324.044 19.2431C324.134 18.7597 324.97 15.4964 329.422 12.0397C329.535 11.943 332.134 9.74337 332.405 6.50426V6.48008C332.473 5.87577 332.835 2.87839 333.92 1.76645C334.078 1.57308 334.824 0.775391 335.75 0.775391C336.18 0.775391 336.586 0.944592 336.948 1.28301H336.971L344.022 8.94567C345.468 8.96984 352.293 9.38078 359.457 13.9977C364.678 17.3819 368.926 22.2163 372.068 28.4045L372.09 28.4287L372.113 28.4528C372.136 28.5253 375.141 36.0671 376.407 45.4944C377.153 51.0541 377.13 56.1786 376.384 60.7472C375.435 66.4761 373.311 71.3105 370.056 75.1298L370.034 75.154L368.678 76.5801H327.682Z" fill="#181F23"/>
<path d="M316.523 95.0455V94.272C316.591 89.0024 317.36 85.2315 317.382 85.0865C318.241 81.0497 319.981 78.149 322.558 76.4811C324.569 75.1758 326.467 75.0791 326.987 75.0791C327.032 75.0791 327.077 75.0791 327.1 75.0791H373.52C373.542 75.0791 373.587 75.0791 373.633 75.0791C374.152 75.0791 376.051 75.1758 378.062 76.4811C380.639 78.149 382.379 81.0497 383.237 85.0865C383.26 85.2557 384.028 89.0266 384.096 94.2962V95.0697H316.523V95.0455Z" fill="#181F23"/>
</svg>
