<svg width="588" height="612" viewBox="0 0 588 612" fill="none" xmlns="http://www.w3.org/2000/svg">
<path d="M425.333 209.332L294 275.332L162.667 209.332L0 533.999L101.333 523.999L153.333 611.332L294 331.332L434.667 611.332L486.667 523.999L588 533.999L425.333 209.332Z" fill="#54C339"/>
<path d="M294.001 429.333C412.558 429.333 508.667 333.224 508.667 214.667C508.667 96.1095 412.558 0 294.001 0C175.444 0 79.334 96.1095 79.334 214.667C79.334 333.224 175.444 429.333 294.001 429.333Z" fill="#FFC54D"/>
<path d="M294.001 383.333C387.153 383.333 462.667 307.819 462.667 214.667C462.667 121.515 387.153 46 294.001 46C200.849 46 125.334 121.515 125.334 214.667C125.334 307.819 200.849 383.333 294.001 383.333Z" fill="#E8B04B"/>
<path d="M301.999 113.332L329.999 169.332C331.333 171.999 333.999 173.999 336.666 174.665L398.666 183.999C405.999 185.332 409.333 193.999 403.999 199.332L359.333 243.332C357.333 245.332 355.999 248.665 356.666 251.332L367.333 313.332C368.666 320.665 360.666 326.665 353.999 322.665L298.666 293.332C295.999 291.999 292.666 291.999 289.999 293.332L233.999 322.665C227.333 325.999 219.333 320.665 220.666 313.332L231.333 251.332C231.999 248.665 230.666 245.332 228.666 243.332L183.999 199.332C178.666 193.999 181.333 184.665 189.333 183.999L251.333 174.665C253.999 173.999 256.666 172.665 257.999 169.332L285.999 113.332C289.333 106.665 298.666 106.665 301.999 113.332Z" fill="white"/>
</svg>
