<svg width="20" height="20" viewBox="0 0 20 20" fill="none" xmlns="http://www.w3.org/2000/svg">
<path d="M8.41516 6.25011L5.58379 6.55799C4.9686 6.62489 4.44112 7.02712 4.21381 7.60268L3.34304 9.8075C3.05704 10.5317 3.83213 11.2176 4.51618 10.8457L6.60741 9.77165M13.6083 11.6668L13.3005 14.4981C13.2336 15.1133 12.8313 15.6408 12.2558 15.8681L10.0509 16.7389C9.32676 17.0249 8.64081 16.2498 9.01273 15.5658L10.1716 13.4065M16.6665 3.33345C17.4998 4.16677 16.9245 8.0101 14.1992 10.7354C13.117 11.8176 11.942 12.6443 10.8332 13.1624C8.90909 14.0614 9.52311 12.5954 8.46384 11.5361C7.40454 10.4768 5.93848 11.0909 6.83757 9.16677C7.35566 8.05798 8.18231 6.88297 9.2645 5.80078C11.9898 3.07544 15.8332 2.50012 16.6665 3.33345ZM6.27118 15.9078C5.71744 16.4615 3.06274 17.1109 3.06274 17.1109C3.06274 17.1109 3.71217 14.4562 4.26591 13.9025C4.81965 13.3487 5.71744 13.3487 6.27118 13.9025C6.82493 14.4562 6.82493 15.354 6.27118 15.9078ZM14.1666 6.66677C14.1666 7.12701 13.7935 7.50011 13.3333 7.50011C12.873 7.50011 12.4999 7.12701 12.4999 6.66677C12.4999 6.20653 12.873 5.83344 13.3333 5.83344C13.7935 5.83344 14.1666 6.20653 14.1666 6.66677Z" stroke="#EFEDED" stroke-linecap="round" stroke-linejoin="round"/>
</svg>
