<svg width="80" height="80" viewBox="0 0 80 80" fill="none" xmlns="http://www.w3.org/2000/svg">
<path d="M73.8988 22.699C72.8988 23.199 72.3988 24.3006 72.8988 25.3982C74.8988 29.8982 76.0004 34.8982 76.0004 40.0002C76.0004 59.8012 59.8984 76.0002 40.0004 76.0002C20.1024 76.0002 4.00038 59.8012 4.00038 40.0002C4.00038 20.1992 20.1994 4.00016 40.0004 4.00016C44.6996 4.00016 49.1996 4.8986 53.5004 6.60176C57.8988 8.40256 61.8988 11.1018 65.3984 14.5002C65.7968 14.8986 66.3984 15.1017 66.8984 15.1017H66.9999C67.6015 15.1017 68.1015 14.9025 68.4999 14.4025C68.8984 14.0041 69.1015 13.4025 68.9999 12.9025L68.1992 3.3009C68.0976 2.1993 67.0976 1.4025 66 1.5001C64.8984 1.60166 64.1016 2.6017 64.1992 3.6993L64.5976 8.5977C61.5976 6.2969 58.3984 4.3985 54.996 2.9961C50.1991 1 45.1991 0 40 0C17.898 0 0 17.898 0 40C0 62 17.898 80 40 80C62.102 80 80 62 80 40C80 34.3008 78.8008 28.801 76.5 23.699C76.1016 22.699 74.8988 22.199 73.8988 22.699Z" fill="#F7C631"/>
<path d="M40.0004 8.30078C22.5004 8.30078 8.39844 22.4998 8.39844 39.9028C8.39844 57.4028 22.5974 71.6018 40.0004 71.6018C57.5004 71.6018 71.6024 57.4028 71.6024 39.9028C71.6024 22.6018 57.5004 8.30078 40.0004 8.30078ZM58.0004 57.9998C57.602 58.3982 57.102 58.6013 56.602 58.6013C56.1021 58.6013 55.602 58.4021 55.2036 57.9998L38.6996 41.4998L38.5981 41.3982C38.3989 41.199 38.2973 40.9998 38.1996 40.7967C38.0004 40.4998 38.0004 40.199 38.0004 39.9998V16.4998C38.0004 15.3982 38.8989 14.4998 40.0004 14.4998C41.102 14.4998 42.0004 15.3982 42.0004 16.4998V39.1988L58.0004 55.1988C58.8012 55.9996 58.8012 57.199 58.0004 57.9998Z" fill="#F7C631"/>
</svg>
