<svg width="200" height="200" viewBox="0 0 200 200" fill="none" xmlns="http://www.w3.org/2000/svg">
<path d="M193.929 110.236V76.6926C193.929 71.9573 190.09 68.1188 185.355 68.1188H182.707C179.214 68.1188 176.096 65.9879 174.76 62.7596C174.745 62.7239 174.73 62.6882 174.715 62.6529C173.373 59.4224 174.068 55.7059 176.541 53.2322L178.414 51.36C181.762 48.0118 181.762 42.5831 178.414 39.2349L154.694 15.5157C151.346 12.1675 145.917 12.1675 142.569 15.5157L140.697 17.3878C138.223 19.8616 134.507 20.5561 131.276 19.2137C131.241 19.1988 131.205 19.1843 131.17 19.1694C127.941 17.8333 125.81 14.7157 125.81 11.222V8.57412C125.81 3.83843 121.972 0 117.236 0H83.6923C78.9571 0 75.1186 3.83843 75.1186 8.57373V11.2216C75.1186 14.7153 72.9876 17.8329 69.7594 19.169C69.7237 19.1839 69.688 19.1984 69.6527 19.2133C66.4221 20.5557 62.7057 19.8612 60.232 17.3875L58.3598 15.5153C55.0116 12.1671 49.5829 12.1671 46.2347 15.5153L22.5155 39.2345C19.1672 42.5827 19.1672 48.0114 22.5155 51.3596L24.3876 53.2318C26.8614 55.7055 27.5559 59.422 26.2135 62.6526C26.1986 62.6882 26.1841 62.7239 26.1692 62.7592C24.8331 65.9875 21.7155 68.1184 18.2218 68.1184H15.5739C10.8386 68.1184 7.00018 71.9569 7.00018 76.6922V110.236C7.00018 114.971 10.8386 118.81 15.5739 118.81H18.2218C21.7155 118.81 24.8331 120.941 26.1692 124.169C26.1841 124.205 26.1986 124.24 26.2135 124.276C27.5559 127.506 26.8614 131.223 24.3876 133.696L22.5155 135.569C19.1672 138.917 19.1672 144.346 22.5155 147.694L46.2347 171.413C49.5829 174.761 55.0116 174.761 58.3598 171.413L60.232 169.541C62.7057 167.067 66.4221 166.373 69.6527 167.715C69.6884 167.73 69.7241 167.744 69.7594 167.759C72.9876 169.095 75.1186 172.213 75.1186 175.707V178.355C75.1186 183.09 78.9571 186.928 83.6923 186.928H117.236C121.972 186.928 125.81 183.09 125.81 178.355V175.707C125.81 172.213 127.941 169.095 131.169 167.759C131.205 167.744 131.241 167.73 131.276 167.715C134.506 166.373 138.223 167.067 140.697 169.541L142.569 171.413C145.917 174.761 151.346 174.761 154.694 171.413L178.413 147.694C181.761 144.346 181.761 138.917 178.413 135.569L176.541 133.696C174.067 131.223 173.373 127.506 174.715 124.276C174.73 124.24 174.745 124.204 174.759 124.169C176.095 120.941 179.213 118.81 182.707 118.81H185.355C190.09 118.81 193.929 114.971 193.929 110.236Z" fill="url(#paint0_linear_759_122)"/>
<path d="M100.465 158.536C136.403 158.536 165.536 129.402 165.536 93.4645C165.536 57.5268 136.403 28.3936 100.465 28.3936C64.5272 28.3936 35.3939 57.5268 35.3939 93.4645C35.3939 129.402 64.5272 158.536 100.465 158.536Z" fill="url(#paint1_linear_759_122)"/>
<path d="M193.882 111.114C193.443 115.438 189.792 118.81 185.355 118.81H182.707C179.214 118.81 176.097 120.94 174.76 124.17C174.744 124.208 174.731 124.241 174.714 124.279C173.373 127.508 174.067 131.222 176.54 133.7L178.416 135.572C181.763 138.918 181.763 144.345 178.416 147.696L154.694 171.414C151.347 174.764 145.916 174.764 142.57 171.414L140.698 169.542C138.225 167.068 134.506 166.375 131.277 167.716C131.239 167.733 131.206 167.745 131.168 167.762C127.943 169.094 125.812 172.216 125.812 175.708V178.357C125.812 182.81 122.416 186.47 118.071 186.888L64.0047 132.797C53.4721 123.034 47.7109 109.083 47.6819 93.5626C47.6486 75.5351 55.6784 60.4112 69.2984 50.6642C70.9862 49.4567 73.1294 49.0849 74.2866 50.4802C74.6709 50.9481 120.841 97.0383 121.363 97.5398C124.149 95.2755 125.812 91.8579 125.812 88.2022V52.8073C125.812 49.8328 129.18 48.0779 131.603 49.8077C134.602 51.9551 137.373 54.3991 139.867 57.1022L193.882 111.114Z" fill="url(#paint2_linear_759_122)"/>
<path d="M178.413 135.569L176.541 133.697C174.067 131.223 173.372 127.506 174.715 124.276C174.73 124.24 174.744 124.204 174.759 124.169C176.095 120.941 179.213 118.81 182.706 118.81H185.354C189.791 118.81 193.441 115.439 193.883 111.119L139.866 57.1013C138.721 55.8606 137.522 54.6782 136.265 53.5586C144.75 63.0425 149.905 75.5633 149.905 89.2876C149.905 109.73 138.462 127.503 121.634 136.548V185.705C124.132 184.207 125.81 181.48 125.81 178.355V175.707C125.81 172.213 127.941 169.095 131.169 167.759C131.205 167.744 131.241 167.73 131.276 167.715C134.506 166.373 138.223 167.067 140.697 169.541L142.569 171.413C145.917 174.761 151.346 174.761 154.694 171.413L178.413 147.694C181.761 144.346 181.761 138.917 178.413 135.569Z" fill="url(#paint3_linear_759_122)"/>
<path d="M124.653 190.631C125.793 184.245 126.367 177.775 126.367 171.293V127.026H74.5617V171.293C74.5617 177.776 75.1354 184.246 76.2762 190.631C77.2437 196.048 82.0503 200 87.6699 200H113.259C118.879 200 123.685 196.048 124.653 190.631Z" fill="url(#paint4_linear_759_122)"/>
<path d="M74.5617 140.74L124.779 189.877C125.832 183.737 126.367 177.521 126.367 171.293V127.026H74.5617V140.74Z" fill="url(#paint5_linear_759_122)"/>
<path d="M154.083 93.4641C154.083 123.077 130.077 147.083 100.465 147.083C70.8524 147.083 46.8987 123.175 46.8457 93.5621C46.8136 75.5339 55.6783 59.5731 69.2983 49.8288C71.7324 48.0876 75.1175 49.817 75.1175 52.8096V88.2002C75.1175 92.5045 77.4136 96.4817 81.141 98.6339L94.4402 106.313C98.1681 108.465 102.761 108.465 106.489 106.313L119.788 98.6339C123.516 96.4817 125.812 92.5045 125.812 88.2002V52.8084C125.812 49.8311 129.18 48.0778 131.603 49.8084C145.214 59.5331 154.083 75.4637 154.083 93.4641Z" fill="url(#paint6_linear_759_122)"/>
<path d="M60.7849 97.9803C60.7849 104.718 64.3794 110.945 70.2147 114.314L91.0344 126.335C96.87 129.704 104.06 129.704 109.896 126.335L130.716 114.314C136.551 110.945 140.145 104.719 140.145 97.9803V57.4086C137.578 54.5847 134.716 52.0325 131.603 49.8086C129.181 48.0776 125.812 49.8313 125.812 52.8086V88.2003C125.812 92.5047 123.516 96.4819 119.788 98.6341L106.489 106.313C102.761 108.465 98.1685 108.465 94.4406 106.313L81.1414 98.6341C77.414 96.4819 75.1179 92.5047 75.1179 88.2003V52.8097C75.1179 49.8168 71.7328 48.0874 69.2987 49.829C66.1967 52.0482 63.3445 54.5933 60.7845 57.4086V97.9803H60.7849Z" fill="url(#paint7_linear_759_122)"/>
<defs>
<linearGradient id="paint0_linear_759_122" x1="64.5276" y1="57.5275" x2="161.788" y2="154.787" gradientUnits="userSpaceOnUse">
<stop stop-color="#7FAEF4"/>
<stop offset="1" stop-color="#4C8DF1"/>
</linearGradient>
<linearGradient id="paint1_linear_759_122" x1="142.233" y1="135.232" x2="51.8018" y2="44.8014" gradientUnits="userSpaceOnUse">
<stop stop-color="#7FAEF4"/>
<stop offset="1" stop-color="#4C8DF1"/>
</linearGradient>
<linearGradient id="paint2_linear_759_122" x1="110.275" y1="111.081" x2="42.5027" y2="77.3865" gradientUnits="userSpaceOnUse">
<stop stop-color="#4C8DF1" stop-opacity="0"/>
<stop offset="0.5631" stop-color="#466CC8" stop-opacity="0.563"/>
<stop offset="1" stop-color="#4256AC"/>
</linearGradient>
<linearGradient id="paint3_linear_759_122" x1="165.533" y1="137.275" x2="114.948" y2="112.88" gradientUnits="userSpaceOnUse">
<stop stop-color="#4C8DF1" stop-opacity="0"/>
<stop offset="0.5631" stop-color="#466CC8" stop-opacity="0.563"/>
<stop offset="1" stop-color="#4256AC"/>
</linearGradient>
<linearGradient id="paint4_linear_759_122" x1="98.5833" y1="157.51" x2="130.836" y2="189.763" gradientUnits="userSpaceOnUse">
<stop stop-color="#FFD833"/>
<stop offset="1" stop-color="#F2B631"/>
</linearGradient>
<linearGradient id="paint5_linear_759_122" x1="116.063" y1="169.186" x2="94.7762" y2="121.009" gradientUnits="userSpaceOnUse">
<stop stop-color="#F9A126" stop-opacity="0"/>
<stop offset="1" stop-color="#EC4437"/>
</linearGradient>
<linearGradient id="paint6_linear_759_122" x1="80.821" y1="73.8355" x2="150.836" y2="143.85" gradientUnits="userSpaceOnUse">
<stop stop-color="#FFD833"/>
<stop offset="1" stop-color="#F2B631"/>
</linearGradient>
<linearGradient id="paint7_linear_759_122" x1="130.232" y1="111.325" x2="50.8516" y2="31.9439" gradientUnits="userSpaceOnUse">
<stop stop-color="#FFD833"/>
<stop offset="1" stop-color="#F2B631"/>
</linearGradient>
</defs>
</svg>
