<svg width="16" height="16" viewBox="0 0 16 16" fill="none" xmlns="http://www.w3.org/2000/svg">
<path d="M8.00113 8.9987C5.6959 8.9987 3.75504 10.5587 3.17668 12.6806C2.98304 13.3911 3.59808 13.9987 4.33446 13.9987H11.6678C12.4042 13.9987 13.0192 13.3911 12.8256 12.6806C12.2472 10.5587 10.3064 8.9987 8.00113 8.9987Z" fill="#5E4C30"/>
<path d="M10.3345 4.66536C10.3345 5.95403 9.28979 6.9987 8.00113 6.9987C6.71247 6.9987 5.6678 5.95403 5.6678 4.66536C5.6678 3.3767 6.71247 2.33203 8.00113 2.33203C9.28979 2.33203 10.3345 3.3767 10.3345 4.66536Z" fill="#5E4C30"/>
<path d="M8.00113 8.9987C5.6959 8.9987 3.75504 10.5587 3.17668 12.6806C2.98304 13.3911 3.59808 13.9987 4.33446 13.9987H11.6678C12.4042 13.9987 13.0192 13.3911 12.8256 12.6806C12.2472 10.5587 10.3064 8.9987 8.00113 8.9987Z" stroke="#FA942D" stroke-linecap="round" stroke-linejoin="round"/>
<path d="M10.3345 4.66536C10.3345 5.95403 9.28979 6.9987 8.00113 6.9987C6.71247 6.9987 5.6678 5.95403 5.6678 4.66536C5.6678 3.3767 6.71247 2.33203 8.00113 2.33203C9.28979 2.33203 10.3345 3.3767 10.3345 4.66536Z" stroke="#FA942D" stroke-linecap="round" stroke-linejoin="round"/>
</svg>
