<svg width="20" height="20" viewBox="0 0 20 20" fill="none" xmlns="http://www.w3.org/2000/svg">
<path d="M14.9062 9.08044C16.0688 8.91711 16.9638 7.92044 16.9663 6.71294C16.9663 5.52294 16.0988 4.53628 14.9613 4.34961" stroke="#EFEDED" stroke-linecap="round" stroke-linejoin="round"/>
<path d="M16.4402 11.875C17.5661 12.0433 18.3519 12.4375 18.3519 13.25C18.3519 13.8092 17.9819 14.1725 17.3836 14.4008" stroke="#EFEDED" stroke-linecap="round" stroke-linejoin="round"/>
<path fill-rule="evenodd" clip-rule="evenodd" d="M9.90541 12.2197C7.22708 12.2197 4.93958 12.6256 4.93958 14.2464C4.93958 15.8664 7.21291 16.2839 9.90541 16.2839C12.5837 16.2839 14.8704 15.8822 14.8704 14.2606C14.8704 12.6389 12.5979 12.2197 9.90541 12.2197Z" stroke="#EFEDED" stroke-linecap="round" stroke-linejoin="round"/>
<path fill-rule="evenodd" clip-rule="evenodd" d="M9.90555 9.9065C11.663 9.9065 13.088 8.48234 13.088 6.724C13.088 4.9665 11.663 3.5415 9.90555 3.5415C8.14805 3.5415 6.72305 4.9665 6.72305 6.724C6.71638 8.47567 8.13055 9.90067 9.88221 9.9065H9.90555Z" stroke="#EFEDED" stroke-linecap="round" stroke-linejoin="round"/>
<path d="M4.90406 9.08044C3.74072 8.91711 2.84656 7.92044 2.84406 6.71294C2.84406 5.52294 3.71156 4.53628 4.84906 4.34961" stroke="#EFEDED" stroke-linecap="round" stroke-linejoin="round"/>
<path d="M3.3698 11.875C2.24396 12.0433 1.45813 12.4375 1.45813 13.25C1.45813 13.8092 1.82813 14.1725 2.42646 14.4008" stroke="#EFEDED" stroke-linecap="round" stroke-linejoin="round"/>
</svg>
