<svg width="16" height="16" viewBox="0 0 16 16" fill="none" xmlns="http://www.w3.org/2000/svg">
<mask id="mask0_442_5617" style="mask-type:alpha" maskUnits="userSpaceOnUse" x="0" y="0" width="16" height="16">
<rect width="16" height="16" fill="#D9D9D9"/>
</mask>
<g mask="url(#mask0_442_5617)">
<path d="M8.66602 14.6665V8.74984C8.66602 8.52762 8.67435 8.30262 8.69102 8.07484C8.70768 7.84706 8.79935 7.65539 8.96602 7.49984C9.4549 7.03317 10.0132 6.6665 10.641 6.39984C11.2688 6.13317 11.9438 5.99984 12.666 5.99984C13.3993 5.99984 14.0271 6.26095 14.5493 6.78317C15.0716 7.30539 15.3327 7.93317 15.3327 8.6665V11.9998C15.3327 12.7332 15.0716 13.3609 14.5493 13.8832C14.0271 14.4054 13.3993 14.6665 12.666 14.6665H8.66602ZM3.33268 14.6665C2.59935 14.6665 1.97157 14.4054 1.44935 13.8832C0.927127 13.3609 0.666016 12.7332 0.666016 11.9998V8.6665C0.666016 7.93317 0.927127 7.30539 1.44935 6.78317C1.97157 6.26095 2.59935 5.99984 3.33268 5.99984C4.06602 5.99984 4.75213 6.13873 5.39102 6.4165C6.0299 6.69428 6.59379 7.07206 7.08268 7.54984C7.23824 7.70539 7.31879 7.88873 7.32435 8.09984C7.32991 8.31095 7.33268 8.52762 7.33268 8.74984V14.6665H3.33268ZM7.99935 6.58317C7.74379 6.32762 7.46879 6.09428 7.17435 5.88317C6.8799 5.67206 6.57157 5.48873 6.24935 5.33317C6.4049 5.19984 6.57435 5.08595 6.75768 4.9915C6.94102 4.89706 7.13268 4.82206 7.33268 4.7665V3.99984H5.33268V2.6665H7.33268V0.666504H8.66602V2.6665H10.666V3.99984H8.66602V4.74984C8.87713 4.80539 9.07157 4.88317 9.24935 4.98317C9.42713 5.08317 9.59379 5.19984 9.74935 5.33317C9.42713 5.48873 9.11879 5.67206 8.82435 5.88317C8.5299 6.09428 8.2549 6.32762 7.99935 6.58317Z" fill="#54C339"/>
</g>
</svg>
