<svg width="14" height="14" viewBox="0 0 14 14" fill="none" xmlns="http://www.w3.org/2000/svg">
<path d="M10.1472 1.79363C9.95349 1.9873 9.90255 2.11991 9.86405 2.1938C9.60738 2.68613 9.29821 2.84558 8.78293 2.3303C8.73238 2.27974 7.19355 0.670909 6.93921 0.379242C6.77316 0.188686 6.51882 0.130353 6.32321 0.277353C6.17543 0.388575 4.75405 1.55019 4.36516 2.03008C4.06416 2.40146 4.05405 2.85996 4.33443 3.14074C4.46121 3.26752 4.61716 3.31535 4.78205 3.36552C4.99671 3.43124 5.46766 3.39196 5.7426 3.66691C6.18321 4.10752 5.9526 4.80402 5.38599 5.38619C4.80382 5.9528 4.10732 6.18341 3.66671 5.7428C3.39138 5.46746 3.43105 4.99691 3.36532 4.78224C3.31516 4.61735 3.26732 4.4618 3.14055 4.33463C2.86016 4.05424 2.40166 4.06474 2.02988 4.36535C1.5496 4.75424 0.388379 6.17563 0.277157 6.32341C0.129768 6.51902 0.18849 6.77296 0.379046 6.93941C0.670712 7.19374 2.27955 8.73257 2.3301 8.78313C2.84499 9.29802 2.68593 9.60757 2.1936 9.86424C2.11971 9.90274 1.98749 9.9533 1.79343 10.1474C1.52037 10.4204 1.36697 10.7908 1.36697 11.1769C1.36697 11.5631 1.52037 11.9335 1.79343 12.2065C2.0665 12.4796 2.43685 12.633 2.82302 12.633C3.20919 12.633 3.57954 12.4796 3.8526 12.2065C4.04627 12.0129 4.09721 11.8802 4.13571 11.8064C4.39238 11.314 4.70155 11.1546 5.21682 11.6699C5.26738 11.7204 6.80621 13.3292 7.06055 13.6209C7.2266 13.8115 7.48093 13.8698 7.67655 13.7228C7.82432 13.6116 9.24571 12.45 9.6346 11.9701C9.9356 11.5987 9.94571 11.1402 9.66532 10.8594C9.53855 10.7326 9.3826 10.6848 9.21771 10.6346C9.00305 10.5689 8.5321 10.6082 8.25716 10.3332C7.81655 9.89263 8.04716 9.19613 8.61377 8.61396C9.19593 8.04735 9.89243 7.81674 10.333 8.25735C10.6084 8.53269 10.5687 9.00324 10.6344 9.21791C10.6846 9.3828 10.7324 9.53835 10.8592 9.66552C11.1396 9.94591 11.5981 9.93541 11.9699 9.6348C12.4502 9.24591 13.6114 7.82452 13.7226 7.67674C13.87 7.48113 13.8113 7.22719 13.6207 7.06074C13.329 6.80641 11.7202 5.26757 11.6697 5.21702C11.1548 4.70213 11.3138 4.39258 11.8062 4.13591C11.88 4.09741 12.0123 4.04685 12.2063 3.8528C12.4794 3.57973 12.6328 3.20938 12.6328 2.82321C12.6328 2.43705 12.4794 2.06669 12.2063 1.79363C11.9333 1.52057 11.5629 1.36716 11.1767 1.36716C10.7906 1.36716 10.4202 1.52057 10.1472 1.79363Z" fill="#F9962D"/>
</svg>
