<svg width="34" height="32" viewBox="0 0 34 32" fill="none" xmlns="http://www.w3.org/2000/svg">
<rect width="34" height="32" rx="16" fill="#494745"/>
<path d="M28.0787 21.5238C27.9707 21.1633 27.6824 20.8423 27.3136 20.7701C26.998 20.7094 26.6833 20.8144 26.3765 20.9194C25.8736 21.0915 25.3917 21.2637 24.9612 20.7055C24.4403 20.0297 24.9186 19.1266 25.3226 18.5311C25.4038 18.4133 25.4883 18.2973 25.5749 18.1843C25.59 18.1643 25.6057 18.1448 25.6211 18.125C25.6767 18.053 25.733 17.9816 25.7901 17.9107C25.8166 17.8779 25.843 17.845 25.8696 17.8123C25.9373 17.7294 26.0052 17.6467 26.0734 17.5642C26.3455 17.2346 26.6171 16.905 26.8519 16.5483C27.122 16.1375 27.2488 15.7248 27.2655 15.3199C27.2658 15.3122 27.2655 15.3046 27.2658 15.297C27.2665 15.2739 27.2666 15.2509 27.2666 15.2279C27.2666 15.2084 27.2667 15.1888 27.2662 15.1694C27.2656 15.1458 27.2644 15.1223 27.2631 15.0988C27.262 15.08 27.2611 15.0612 27.2596 15.0425C27.2577 15.0183 27.255 14.9942 27.2524 14.97C27.2504 14.952 27.2486 14.934 27.2462 14.9161C27.2428 14.8911 27.2388 14.8663 27.2347 14.8414C27.2319 14.8245 27.2293 14.8075 27.2262 14.7907C27.2214 14.7647 27.2158 14.7389 27.2102 14.713C27.2067 14.6973 27.2036 14.6814 27.1998 14.6657C27.1934 14.6387 27.1862 14.6119 27.179 14.585C27.1751 14.5706 27.1715 14.5561 27.1673 14.5417C27.1592 14.5132 27.1501 14.485 27.1411 14.4567C27.137 14.444 27.1332 14.4312 27.1289 14.4185C27.1186 14.3878 27.1074 14.3574 27.096 14.3269C27.0923 14.3167 27.0888 14.3065 27.0849 14.2964C27.0718 14.2624 27.0578 14.2285 27.0434 14.1948C27.0406 14.1882 27.0382 14.1816 27.0353 14.1751C26.965 14.0128 26.8807 13.8536 26.7848 13.6983C26.7806 13.6916 26.7761 13.6849 26.7719 13.6782C26.7522 13.6467 26.7322 13.6152 26.7116 13.584C26.7039 13.5725 26.6959 13.561 26.6881 13.5495C26.6704 13.5234 26.6528 13.4972 26.6345 13.4714C26.6243 13.4569 26.6138 13.4427 26.6034 13.4284C26.587 13.4057 26.5707 13.3829 26.5539 13.3604C26.5519 13.3578 26.55 13.3551 26.548 13.3524C26.3889 13.1407 26.2106 12.9383 26.0204 12.7472C25.6689 12.3928 24.1789 10.7228 23.3399 10.7228C23.1859 10.7228 23.0538 10.7791 22.9547 10.91C22.8275 11.0783 22.7374 11.2608 22.6668 11.4497C22.6658 11.4525 22.6649 11.4553 22.6638 11.4582C22.6511 11.4924 22.6389 11.5269 22.6274 11.5615C22.6273 11.562 22.6271 11.5625 22.627 11.5629C22.6147 11.5997 22.6031 11.6368 22.5919 11.6739C22.59 11.6804 22.5881 11.6869 22.5862 11.6934C22.5771 11.724 22.5682 11.7548 22.5597 11.7856C22.5575 11.7934 22.5554 11.8013 22.5533 11.8091C22.5447 11.8403 22.5363 11.8716 22.5281 11.9029C22.527 11.907 22.5259 11.9112 22.5248 11.9154C22.4811 12.0831 22.4411 12.2506 22.3941 12.4131C22.3894 12.4295 22.3847 12.446 22.3798 12.4624C22.3747 12.4792 22.3693 12.4959 22.364 12.5127C22.3584 12.5306 22.3527 12.5486 22.3467 12.5664C22.3414 12.5825 22.3358 12.5984 22.3302 12.6144C22.3238 12.6327 22.3172 12.6509 22.3104 12.6691C22.3047 12.6844 22.2989 12.6996 22.2928 12.7148C22.2855 12.7335 22.2777 12.752 22.2699 12.7704C22.2638 12.7846 22.2578 12.7989 22.2515 12.8129C22.2424 12.833 22.2328 12.8528 22.2231 12.8725C22.2172 12.8845 22.2116 12.8966 22.2055 12.9084C22.1907 12.9369 22.1752 12.9651 22.1588 12.9928C22.1566 12.9965 22.1545 13.0003 22.1522 13.0041C22.1348 13.0331 22.1164 13.0615 22.097 13.0895C22.0903 13.0991 22.0829 13.1084 22.076 13.1179C22.0619 13.1373 22.0475 13.1566 22.0323 13.1754C22.0293 13.1791 22.0267 13.183 22.0237 13.1866C21.8608 13.3839 21.635 13.5482 21.3057 13.6616C21.2759 13.6718 21.2459 13.6811 21.2156 13.6895C21.1948 13.6953 21.1737 13.6996 21.1528 13.7045C21.1416 13.7071 21.1306 13.7101 21.1195 13.7125C21.0674 13.7236 21.015 13.7324 20.9621 13.7387C20.953 13.7398 20.9439 13.7403 20.9348 13.7413C20.8875 13.7462 20.8401 13.7492 20.7925 13.7505C20.7827 13.7508 20.7728 13.7513 20.763 13.7514C20.7551 13.7515 20.7473 13.7521 20.7394 13.7521C20.7212 13.7521 20.703 13.7497 20.6848 13.7492C20.6411 13.7481 20.5975 13.7462 20.5539 13.7423C20.5267 13.7399 20.4997 13.7366 20.4725 13.7332C20.4321 13.7281 20.3918 13.722 20.3516 13.7148C20.324 13.7098 20.2965 13.7048 20.269 13.699C20.2285 13.6903 20.1884 13.6801 20.1484 13.6696C20.1226 13.6627 20.0967 13.6565 20.071 13.6489C20.023 13.6346 19.9757 13.6184 19.9286 13.6016C19.9137 13.5963 19.8981 13.5922 19.8833 13.5866C19.8736 13.583 19.863 13.5784 19.8532 13.5746C19.8168 13.5607 19.7795 13.5459 19.7413 13.5302C19.7271 13.5243 19.7133 13.5187 19.6989 13.5126C19.6524 13.4929 19.6048 13.4718 19.5563 13.4496C19.5476 13.4456 19.5392 13.442 19.5305 13.4379C19.4769 13.4129 19.4222 13.3862 19.3671 13.3582C19.3601 13.3546 19.3533 13.3513 19.3463 13.3477C19.2899 13.3188 19.2331 13.2881 19.1762 13.2562C19.172 13.2539 19.1679 13.2519 19.1637 13.2495C18.8722 13.085 18.5792 12.8818 18.3397 12.6464C18.3365 12.6433 18.3336 12.64 18.3304 12.6369C18.319 12.6255 18.3079 12.614 18.2967 12.6025C18.2824 12.5878 18.2682 12.5731 18.2543 12.5582C18.2436 12.5467 18.2333 12.535 18.2229 12.5233C18.2093 12.5081 18.1958 12.4928 18.1827 12.4774C18.1728 12.4657 18.1632 12.4538 18.1536 12.442C18.1407 12.4261 18.128 12.4102 18.1156 12.394C18.1066 12.3823 18.0979 12.3705 18.0893 12.3586C18.0771 12.342 18.0652 12.3253 18.0537 12.3085C18.0456 12.2967 18.0378 12.2849 18.0301 12.273C18.0188 12.2557 18.0079 12.2383 17.9973 12.2208C17.9903 12.209 17.9834 12.1972 17.9766 12.1853C17.9663 12.1672 17.9565 12.1491 17.947 12.1308C17.9409 12.1191 17.9349 12.1073 17.9292 12.0955C17.92 12.0767 17.9114 12.0577 17.9031 12.0386C17.8981 12.027 17.8931 12.0154 17.8884 12.0038C17.8804 11.984 17.8732 11.964 17.8662 11.944C17.8622 11.9327 17.8582 11.9214 17.8546 11.91C17.8479 11.8892 17.8421 11.8682 17.8366 11.8472C17.8337 11.8363 17.8307 11.8254 17.8282 11.8145C17.823 11.7923 17.8188 11.77 17.8149 11.7476C17.8131 11.7374 17.8111 11.7273 17.8096 11.7171C17.8061 11.6932 17.8038 11.6691 17.8017 11.645C17.801 11.6359 17.7999 11.627 17.7993 11.6179C17.7977 11.5915 17.7975 11.5648 17.7978 11.538C17.7979 11.531 17.7975 11.524 17.7977 11.517C17.7986 11.4862 17.8009 11.4551 17.8044 11.4239C17.8048 11.4207 17.8048 11.4176 17.8052 11.4144C17.8136 11.3442 17.8281 11.273 17.8503 11.2007C17.8658 11.1498 17.884 11.1011 17.9039 11.0536C17.9082 11.0434 17.9132 11.0338 17.9176 11.0238C17.9335 10.988 17.9502 10.9528 17.9684 10.9188C17.9759 10.9048 17.984 10.8914 17.9918 10.8778C18.0086 10.8487 18.0258 10.82 18.0442 10.7922C18.0537 10.7778 18.0635 10.7636 18.0735 10.7495C18.0918 10.7236 18.1108 10.6981 18.1304 10.6732C18.1414 10.6594 18.1523 10.6456 18.1637 10.6321C18.1841 10.6076 18.2054 10.5839 18.227 10.5605C18.2386 10.548 18.2499 10.5353 18.2618 10.5231C18.2858 10.4985 18.3108 10.4746 18.336 10.451C18.3465 10.4412 18.3565 10.4312 18.3671 10.4216C18.4033 10.3889 18.4405 10.3571 18.4788 10.3263C18.8441 10.0328 19.296 9.82034 19.692 9.59866C19.8972 9.4836 20.1061 9.3549 20.2556 9.20743C20.2559 9.20708 20.2562 9.20673 20.2566 9.20638C20.2709 9.19219 20.2847 9.17779 20.2978 9.16325C20.3011 9.15966 20.3041 9.156 20.3073 9.15238C20.3172 9.14113 20.3268 9.1298 20.3359 9.11835C20.3395 9.11388 20.3429 9.10939 20.3464 9.10489C20.3551 9.09356 20.3633 9.08211 20.3712 9.07056C20.374 9.06652 20.3768 9.06251 20.3795 9.05845C20.3893 9.04335 20.3986 9.02811 20.407 9.01261C20.4072 9.01226 20.4074 9.01191 20.4076 9.01156C20.4165 8.99509 20.4244 8.97841 20.4315 8.9615C20.4326 8.95878 20.4336 8.956 20.4347 8.95324C20.4402 8.93947 20.4451 8.92555 20.4494 8.91147C20.4507 8.90722 20.4518 8.90296 20.453 8.89871C20.4567 8.88529 20.4597 8.87172 20.4621 8.85802C20.4628 8.85418 20.4636 8.85037 20.4642 8.84651C20.4695 8.81114 20.4708 8.7749 20.4674 8.73767C20.4671 8.73496 20.4666 8.73217 20.4663 8.72945C20.4645 8.71386 20.462 8.69812 20.4586 8.68223C20.4576 8.67753 20.4564 8.67282 20.4553 8.66808C20.4516 8.65324 20.4472 8.63829 20.4421 8.62316C20.4405 8.61871 20.4392 8.61428 20.4375 8.60981C20.4305 8.59067 20.4225 8.57135 20.4129 8.55175C20.4129 8.55164 20.4128 8.55156 20.4128 8.55145C20.4029 8.53117 20.3914 8.5106 20.3787 8.48979C20.3762 8.4858 20.3734 8.48175 20.3708 8.47773C20.3605 8.46153 20.3494 8.44518 20.3373 8.42864C20.3328 8.42251 20.3281 8.41632 20.3234 8.41014C20.3118 8.39506 20.2994 8.37984 20.2863 8.36452C20.2809 8.3582 20.2757 8.35191 20.27 8.34553C20.2538 8.32722 20.2364 8.30874 20.2179 8.29004C20.2153 8.28743 20.2132 8.28491 20.2106 8.2823C20.2095 8.28116 20.2083 8.28006 20.2072 8.2789C20.2071 8.27883 20.2071 8.27881 20.207 8.27875C19.4834 7.56139 18.6545 6.95088 17.7551 6.4734C17.6148 6.39875 17.4736 6.32975 17.3317 6.2688C17.3151 6.26169 17.2985 6.25536 17.282 6.24847C17.2616 6.24003 17.2413 6.23163 17.221 6.22354C17.1868 6.20995 17.1526 6.19717 17.1184 6.18463C17.0991 6.17757 17.0799 6.17018 17.0606 6.16347C17.0161 6.14799 16.9716 6.13361 16.927 6.12008C16.9166 6.1169 16.9062 6.11344 16.8958 6.11037C16.8457 6.09566 16.7955 6.08244 16.7453 6.07042C16.7263 6.06588 16.7072 6.0622 16.6882 6.05806C16.654 6.05062 16.6199 6.04354 16.5857 6.03749C16.5642 6.03368 16.5427 6.03045 16.5211 6.02721C16.4889 6.02234 16.4567 6.01813 16.4246 6.01458C16.4028 6.01219 16.3811 6.00995 16.3593 6.00818C16.3259 6.00544 16.2925 6.00381 16.2591 6.00261C16.2391 6.00189 16.2192 6.00077 16.1993 6.00059C16.1933 6.00055 16.1874 6 16.1814 6C16.1397 6 16.0982 6.00167 16.0566 6.00421C16.0457 6.00487 16.0349 6.00588 16.0241 6.00673C15.9769 6.01039 15.9297 6.01543 15.8826 6.02258C15.8782 6.02326 15.8738 6.02364 15.8694 6.02434C15.8196 6.03225 15.7699 6.04284 15.7202 6.05488C15.709 6.0576 15.6978 6.06027 15.6866 6.06321C15.6376 6.07603 15.5886 6.09072 15.5398 6.1078C15.5311 6.11083 15.5225 6.11434 15.5139 6.11749C15.4677 6.1344 15.4216 6.15314 15.3757 6.17406C15.3691 6.17704 15.3626 6.17963 15.3561 6.18268C15.353 6.18412 15.3498 6.18533 15.3467 6.18682C15.312 6.20331 15.2774 6.22297 15.2427 6.24185C15.225 6.25154 15.2072 6.25974 15.1894 6.27007C15.1894 6.27009 15.1893 6.27018 15.1892 6.2702C15.1418 6.29789 15.0945 6.32878 15.0473 6.36125C15.0398 6.36636 15.0324 6.37035 15.0249 6.37557C15.004 6.39041 14.9832 6.40552 14.9626 6.42087C14.953 6.42801 14.9442 6.43615 14.9347 6.44341C14.8828 6.48309 14.8319 6.52402 14.7823 6.5666C14.7742 6.57357 14.7658 6.58022 14.7577 6.58725C14.699 6.63858 14.6419 6.69177 14.586 6.74632C14.576 6.75603 14.5663 6.76596 14.5564 6.77576C14.5085 6.82319 14.4615 6.87153 14.4152 6.92068C14.4054 6.9311 14.3955 6.9414 14.3858 6.95188C14.3332 7.00843 14.2813 7.06572 14.2302 7.12366C14.2288 7.12526 14.2273 7.1268 14.2259 7.1284C14.2193 7.13592 14.2128 7.14359 14.2062 7.15114C14.1524 7.21239 14.0993 7.27413 14.0463 7.33592C14.032 7.35256 14.0174 7.36907 14.0032 7.38571C13.839 7.57711 13.6755 7.76908 13.5124 7.96136C13.3891 8.1067 13.2661 8.25228 13.1431 8.39782C12.862 8.73028 12.5807 9.06236 12.2985 9.3934C12.2597 9.43898 12.2211 9.48482 12.1821 9.53034C12.0687 9.66239 11.9363 9.78657 11.7901 9.8823C11.7805 9.88861 11.7713 9.89587 11.7615 9.90192C11.7372 9.91694 11.712 9.92948 11.6869 9.94274C11.6711 9.95116 11.6557 9.96081 11.6395 9.96844C11.6168 9.97918 11.5932 9.98714 11.57 9.9962C11.5507 10.0037 11.5318 10.0126 11.5122 10.0189C11.4887 10.0264 11.4644 10.0308 11.4405 10.0364C11.4203 10.0412 11.4005 10.0474 11.38 10.0507C11.3542 10.0549 11.3277 10.0555 11.3014 10.0572C11.2809 10.0586 11.2607 10.0619 11.2399 10.0618C11.2392 10.0618 11.2384 10.0618 11.2377 10.0618C11.1917 10.0613 11.1481 10.0584 11.1063 10.0537C11.0971 10.0526 11.0886 10.0507 11.0795 10.0495C11.0482 10.0451 11.0177 10.0401 10.9887 10.0334C10.9769 10.0307 10.9658 10.0272 10.9544 10.0241C10.9295 10.0173 10.9051 10.01 10.8819 10.0015C10.8703 9.99729 10.8591 9.9926 10.8479 9.98793C10.8262 9.97888 10.8052 9.96918 10.785 9.95862C10.7745 9.95316 10.7642 9.94755 10.7541 9.94167C10.7344 9.93018 10.7155 9.91784 10.6972 9.90488C10.6883 9.89861 10.6793 9.89245 10.6708 9.88583C10.652 9.87129 10.6342 9.85572 10.6169 9.83968C10.6102 9.83349 10.6032 9.82768 10.5968 9.82126C10.5766 9.80122 10.5576 9.78002 10.5394 9.75794C10.5367 9.75472 10.5337 9.75182 10.5312 9.74856C10.4893 9.69627 10.4527 9.63863 10.4203 9.57682C10.4163 9.56934 10.4128 9.56147 10.409 9.55389C10.3973 9.53052 10.386 9.50681 10.3754 9.48235C10.371 9.47222 10.3669 9.46178 10.3626 9.45148C10.3533 9.42868 10.3442 9.40561 10.3357 9.382C10.3316 9.37062 10.3276 9.35911 10.3237 9.34755C10.3157 9.32412 10.308 9.30039 10.3007 9.27632C10.297 9.26435 10.2934 9.25236 10.2899 9.24023C10.2828 9.21559 10.276 9.19064 10.2694 9.16545C10.2664 9.15365 10.2632 9.14194 10.2603 9.13004C10.2535 9.10276 10.247 9.07512 10.2408 9.04734C10.2385 9.03738 10.2361 9.02756 10.2339 9.01756C10.2265 8.98336 10.2193 8.94885 10.2124 8.91412C10.2117 8.91037 10.2109 8.90669 10.2101 8.90294C10.2026 8.86492 10.1954 8.82667 10.1884 8.78823C10.1883 8.78729 10.1881 8.78632 10.1879 8.78536C10.1865 8.77788 10.1852 8.77039 10.1838 8.76291C10.1746 8.7118 10.1655 8.66052 10.1565 8.60926C10.1452 8.54511 10.1338 8.48115 10.122 8.41775C10.1207 8.41067 10.1194 8.40356 10.1181 8.39648C10.1072 8.33917 10.096 8.28245 10.0838 8.22665C10.0825 8.22054 10.0811 8.21451 10.0797 8.20841C10.0546 8.09467 10.0255 7.98528 9.98968 7.88325C9.98782 7.87794 9.98609 7.87246 9.98418 7.86717C9.9668 7.81903 9.9475 7.77296 9.92656 7.72865C9.92319 7.72155 9.91979 7.71449 9.91635 7.7075C9.89484 7.66404 9.87147 7.6226 9.84566 7.58378C9.84226 7.57867 9.83856 7.57389 9.83507 7.56885C9.80745 7.52899 9.77791 7.49114 9.74472 7.45727C9.70966 7.42162 9.67259 7.39003 9.6342 7.36126C9.62212 7.35221 9.60923 7.34506 9.59686 7.33666C9.57009 7.31851 9.54317 7.30075 9.5151 7.2856C9.51098 7.28336 9.50728 7.28027 9.50313 7.2781C9.48847 7.27047 9.47288 7.26519 9.4579 7.25835C9.43732 7.24892 9.41686 7.23916 9.3957 7.23116C9.39555 7.23109 9.39537 7.23107 9.3952 7.23101C9.37536 7.22353 9.35497 7.21761 9.33464 7.21136C9.33385 7.21112 9.33309 7.21084 9.3323 7.2106C9.31149 7.20424 9.29079 7.19762 9.26955 7.19251C9.26918 7.19242 9.2688 7.19238 9.26841 7.19229C9.24758 7.18731 9.22638 7.18374 9.2052 7.17994C9.20388 7.1797 9.20257 7.1794 9.20127 7.17918C9.18036 7.17549 9.15953 7.17159 9.13831 7.16903C9.13772 7.16896 9.13712 7.16894 9.13655 7.16887C9.11498 7.16629 9.09314 7.16495 9.07131 7.16348C9.06951 7.16337 9.06773 7.16315 9.06596 7.16304C9.04515 7.1617 9.02437 7.16023 9.00334 7.15986C8.99532 7.15971 8.98751 7.15866 8.97946 7.15866C8.96596 7.15866 8.95208 7.16056 8.93851 7.16096C8.90801 7.16181 8.87743 7.16337 8.84664 7.16609C8.84528 7.1662 8.84393 7.16639 8.84257 7.16653C8.82356 7.16826 8.80461 7.17019 8.78554 7.1726C8.78405 7.17278 8.78258 7.17288 8.78109 7.17306C8.75033 7.17705 8.7195 7.1822 8.68863 7.18786C8.68598 7.18834 8.68333 7.18889 8.68072 7.18935C8.66338 7.19262 8.64614 7.1954 8.62878 7.19919C8.62751 7.19948 8.62619 7.19966 8.6249 7.19994C8.58953 7.20772 8.55421 7.21717 8.51896 7.22699C8.51148 7.22908 8.50401 7.23109 8.49651 7.233C8.48881 7.23524 8.4811 7.23686 8.4734 7.23916C8.47219 7.23954 8.47097 7.23975 8.46976 7.24013C8.42069 7.25506 8.37198 7.27212 8.32365 7.2906C8.32223 7.29112 8.32087 7.29178 8.31947 7.29233C8.30469 7.29801 8.29026 7.3045 8.27562 7.31048C8.27022 7.31276 8.26481 7.31493 8.25939 7.31719C8.23078 7.32912 8.20224 7.34114 8.17406 7.35416C8.17205 7.3551 8.17007 7.35613 8.16808 7.35707C8.15021 7.36541 8.13269 7.37415 8.11502 7.3829C8.11184 7.38448 8.1086 7.38599 8.10542 7.38757C8.07948 7.40057 8.05378 7.41393 8.02839 7.42776C8.02552 7.42934 8.02274 7.43098 8.01987 7.43256C8.00239 7.44216 7.98505 7.45174 7.96788 7.46174C7.96569 7.46301 7.96343 7.46418 7.96124 7.46547C7.93605 7.4802 7.91145 7.49559 7.88696 7.5111C7.88225 7.51406 7.87764 7.51708 7.87293 7.52006C7.85852 7.52931 7.84386 7.53822 7.82969 7.54771C7.82809 7.54878 7.8264 7.54977 7.8248 7.55085C7.79608 7.57023 7.76852 7.59046 7.74101 7.61076C7.72768 7.62061 7.7134 7.62977 7.7004 7.63982C7.15652 8.05827 6.71803 8.61338 6.43695 9.23951C6.43625 9.24107 6.4357 9.24273 6.435 9.24431C6.40681 9.30732 6.38076 9.37185 6.35623 9.43696C6.35307 9.44534 6.34919 9.45334 6.34607 9.46176C6.342 9.4729 6.33915 9.48443 6.33518 9.49561C6.31748 9.54562 6.30126 9.59614 6.28642 9.64702C6.28262 9.66 6.27756 9.67261 6.27399 9.68565C6.2712 9.69567 6.26901 9.70585 6.26638 9.71591C6.26318 9.7281 6.26022 9.74027 6.25719 9.75248C6.25717 9.75257 6.25715 9.75266 6.25713 9.75274C6.2457 9.79918 6.2354 9.84577 6.22691 9.89258C6.2268 9.89324 6.22661 9.89385 6.2265 9.89451C6.22582 9.8981 6.22498 9.90168 6.22433 9.90527C6.22428 9.90549 6.22426 9.90571 6.22424 9.90593C6.21547 9.95596 6.20913 10.0062 6.20413 10.0564C6.20409 10.057 6.20396 10.0576 6.20392 10.0581C6.2028 10.0693 6.20188 10.0805 6.20098 10.0917C6.20093 10.0924 6.20098 10.093 6.20091 10.0937C6.19284 10.1956 6.19326 10.2977 6.2037 10.3991C6.20378 10.3999 6.20374 10.4008 6.20385 10.4017C6.20495 10.4122 6.20617 10.4227 6.20751 10.4332C6.20762 10.4342 6.20788 10.4352 6.20804 10.4362C6.21415 10.484 6.22189 10.5317 6.23279 10.579C6.23343 10.5818 6.23358 10.5846 6.23424 10.5874C6.3409 11.0382 6.72221 11.4458 7.18493 11.4641C7.19693 11.4646 7.20885 11.4648 7.22076 11.4648C7.22924 11.4648 7.23751 11.4633 7.24597 11.4631C7.27327 11.4623 7.30043 11.4606 7.32742 11.4575C7.3345 11.4567 7.34176 11.457 7.34882 11.4561C7.35274 11.4555 7.35656 11.4543 7.36046 11.4537C7.40538 11.4472 7.44996 11.4382 7.49418 11.4267C7.50069 11.425 7.50718 11.4229 7.51369 11.4212C7.55767 11.409 7.60141 11.3952 7.64489 11.3795C7.64702 11.3787 7.64919 11.3781 7.65131 11.3773C7.69959 11.3597 7.74761 11.3404 7.79551 11.3201C7.79656 11.3197 7.79759 11.3192 7.79865 11.3188C7.84712 11.2983 7.89549 11.2771 7.94381 11.2556C7.96277 11.2472 7.98176 11.2389 8.00075 11.2306C8.01634 11.2237 8.0319 11.2169 8.04751 11.2101C8.06689 11.2017 8.0863 11.1935 8.1057 11.1854C8.14087 11.1707 8.1761 11.1565 8.21144 11.1432C8.22098 11.1396 8.23052 11.1361 8.24008 11.1326C8.27741 11.1191 8.31495 11.107 8.35264 11.0961C8.36452 11.0926 8.3764 11.0893 8.38831 11.0862C8.43126 11.0748 8.47439 11.0649 8.51797 11.0583C8.52027 11.0579 8.52262 11.0579 8.52497 11.0575C8.526 11.0574 8.52705 11.0574 8.52806 11.0573C8.56735 11.0517 8.60707 11.0489 8.64704 11.0481C8.66827 11.0477 8.68944 11.047 8.71087 11.0481C8.71198 11.0482 8.71308 11.0482 8.7142 11.0482C9.22886 11.0788 9.61219 11.5934 9.66068 12.1066C9.70949 12.6206 9.503 13.1219 9.26727 13.5806C9.24806 13.618 9.22728 13.6545 9.20763 13.6917C9.16499 13.7722 9.12268 13.853 9.07801 13.9324C9.07093 13.9451 9.06337 13.9574 9.05622 13.97C9.00207 14.0655 8.94634 14.1601 8.88927 14.2538C8.87179 14.2825 8.85394 14.311 8.83621 14.3395C8.78462 14.4226 8.73187 14.5049 8.678 14.5865C8.66281 14.6094 8.64785 14.6326 8.63251 14.6554C8.56228 14.76 8.49059 14.8635 8.41668 14.9655C8.11116 15.3876 7.7678 15.8 7.61411 16.2989C7.38857 17.0339 7.62371 17.8497 8.05495 18.4871C8.05589 18.4885 8.05694 18.4899 8.05786 18.4913C8.0583 18.492 8.05869 18.4926 8.05911 18.4932C8.06054 18.4954 8.06198 18.4975 8.06343 18.4997C8.06545 18.5027 8.06764 18.5056 8.0697 18.5085C8.07349 18.5141 8.07698 18.5197 8.08115 18.5252C8.68574 19.4034 9.77585 20.3884 10.7356 20.841C11.1913 21.0568 12.2361 21.2374 12.5523 20.6842C12.734 20.3681 12.6083 19.8593 12.5985 19.5151C12.5892 19.1499 12.711 18.7775 12.9562 18.5081C13.2142 18.2241 13.6055 18.062 13.9884 18.1185C14.2312 18.1545 14.4588 18.2582 14.6748 18.3756C15.144 18.6294 15.5754 18.9542 15.9511 19.3329C16.1301 19.5136 16.3003 19.7254 16.3988 19.9566C16.5018 20.1994 16.5256 20.464 16.3918 20.7344C16.1463 21.2335 15.5478 21.4975 15.0348 21.617C14.687 21.6994 14.2877 21.766 14.0182 22.011C13.9639 22.0603 13.9143 22.1172 13.8719 22.1829C13.8475 22.2208 13.827 22.2605 13.8096 22.3012C13.8037 22.3149 13.8 22.3293 13.7949 22.3432C13.7847 22.3708 13.7746 22.3984 13.7673 22.427C13.7629 22.4441 13.7604 22.4617 13.757 22.479C13.7519 22.5052 13.7468 22.5313 13.7438 22.5581C13.7417 22.5768 13.7411 22.5958 13.7401 22.6147C13.7391 22.6327 13.7367 22.6505 13.7366 22.6686C13.7366 22.6756 13.7379 22.6827 13.738 22.6898C13.7384 22.718 13.7408 22.7463 13.7433 22.7746C13.7451 22.7951 13.7463 22.8154 13.7492 22.8358C13.7534 22.8653 13.7597 22.8946 13.766 22.9238C13.7701 22.9427 13.7732 22.9616 13.7781 22.9803C13.7865 23.0124 13.7973 23.0438 13.8081 23.0751C13.8133 23.0903 13.8174 23.1059 13.8232 23.121C13.8409 23.1669 13.8607 23.2117 13.883 23.2549C14.0541 23.5878 14.3371 23.8472 14.6161 24.0961C15.3296 24.7316 16.0802 25.355 16.9661 25.7136C17.0217 25.7362 17.078 25.7576 17.1347 25.7777C17.1512 25.7836 17.1681 25.7886 17.1847 25.7942C17.2251 25.808 17.2655 25.8219 17.3065 25.8344C17.3301 25.8416 17.354 25.8476 17.3776 25.8543C17.4121 25.8642 17.4464 25.8744 17.4811 25.8833C17.5067 25.8898 17.5326 25.8952 17.5583 25.9012C17.5916 25.909 17.6247 25.9173 17.6581 25.9242C17.6847 25.9297 17.7116 25.9339 17.7383 25.9388C17.7711 25.9449 17.8037 25.9514 17.8366 25.9566C17.8638 25.9609 17.8912 25.9638 17.9185 25.9675C17.9511 25.9719 17.9837 25.9768 18.0163 25.9803C18.0438 25.9832 18.0713 25.9848 18.0989 25.9871C18.1314 25.9898 18.1639 25.9931 18.1964 25.9949C18.2247 25.9964 18.253 25.9965 18.2814 25.9974C18.3131 25.9983 18.3448 25.9999 18.3764 25.9999C18.3781 25.9999 18.3798 26.0001 18.3814 26.0001C18.412 26.0001 18.4425 25.9984 18.473 25.9976C18.5002 25.9968 18.5275 25.9968 18.5546 25.9953C18.587 25.9936 18.6192 25.9902 18.6515 25.9874C18.6782 25.9852 18.705 25.9837 18.7316 25.9807C18.7641 25.9771 18.7963 25.9717 18.8286 25.967C18.8547 25.9632 18.881 25.9603 18.9069 25.9558C18.9392 25.9502 18.971 25.9428 19.0031 25.9361C19.0287 25.9307 19.0545 25.9262 19.08 25.9201C19.1125 25.9123 19.1444 25.9027 19.1766 25.8937C19.2011 25.8869 19.2258 25.881 19.25 25.8735C19.285 25.8626 19.3194 25.8497 19.3539 25.8374C19.3747 25.8299 19.3959 25.8235 19.4165 25.8155C19.4538 25.8011 19.4904 25.7844 19.527 25.7682C19.5444 25.7605 19.5621 25.7539 19.5792 25.7458C19.6327 25.7206 19.6854 25.6934 19.7372 25.6641C20.7669 25.0805 21.2297 23.8531 22.0659 23.0152C22.3564 22.7251 22.7082 22.4745 23.1132 22.4062C23.1584 22.3985 23.2044 22.3946 23.2505 22.3923C23.2606 22.3918 23.2706 22.3913 23.2805 22.3911C23.2896 22.3909 23.2985 22.39 23.3075 22.39C23.335 22.39 23.3624 22.3926 23.3898 22.3945C23.4031 22.3954 23.4163 22.3953 23.4295 22.3967C23.4774 22.4016 23.5249 22.4093 23.5717 22.42C23.5812 22.4222 23.5903 22.4256 23.5997 22.428C23.6367 22.4376 23.6732 22.4484 23.7089 22.4615C23.7245 22.4673 23.7395 22.4743 23.7548 22.4808C23.7835 22.4929 23.8116 22.5058 23.8389 22.5204C23.8547 22.5288 23.8701 22.538 23.8854 22.5473C23.911 22.5628 23.9355 22.5796 23.9594 22.5974C23.9735 22.608 23.9876 22.6184 24.001 22.6297C24.0253 22.6502 24.0477 22.6726 24.0696 22.6957C24.08 22.7067 24.0912 22.7169 24.101 22.7285C24.1313 22.7643 24.1592 22.8022 24.1831 22.8436C24.4619 23.3277 24.1998 23.9883 24.4793 24.4706C24.5011 24.5082 24.5256 24.5426 24.5518 24.5749C24.5605 24.5856 24.5703 24.5949 24.5794 24.605C24.5978 24.6256 24.6166 24.6458 24.6368 24.6642C24.6486 24.6748 24.661 24.6844 24.6732 24.6943C24.6926 24.7099 24.7124 24.7251 24.7331 24.739C24.7467 24.7482 24.7607 24.7567 24.7749 24.7651C24.7959 24.7775 24.8175 24.7892 24.8396 24.8C24.8544 24.8073 24.8693 24.8144 24.8845 24.8209C24.9078 24.8309 24.9318 24.8397 24.9561 24.848C24.9711 24.8532 24.9859 24.8586 25.0012 24.8631C25.0286 24.8712 25.0567 24.8778 25.0851 24.884C25.0981 24.8868 25.1107 24.8903 25.1239 24.8928C25.1657 24.9005 25.2082 24.9066 25.2514 24.9104C25.2543 24.9107 25.2573 24.9106 25.2603 24.9109C25.3008 24.9143 25.3418 24.916 25.3831 24.9163C25.386 24.9163 25.3888 24.9166 25.3916 24.9166C25.4239 24.9166 25.4564 24.9154 25.4889 24.9136C25.4916 24.9134 25.4943 24.9135 25.497 24.9134C25.5357 24.911 25.5745 24.9072 25.6133 24.9023C25.6258 24.9008 25.6382 24.8986 25.6506 24.8968C25.6771 24.893 25.7035 24.889 25.7298 24.8841C25.7446 24.8813 25.7593 24.8782 25.7741 24.8751C25.7981 24.8701 25.822 24.8648 25.8458 24.8589C25.8609 24.8552 25.8759 24.8513 25.8908 24.8473C25.9145 24.8409 25.938 24.834 25.9613 24.8268C25.9755 24.8225 25.9898 24.8182 26.0038 24.8135C26.0288 24.8052 26.0533 24.7963 26.0777 24.7872C26.0894 24.7828 26.1014 24.7786 26.1131 24.774C26.1487 24.7599 26.1837 24.7451 26.2178 24.7293C26.8332 24.4434 27.355 23.9635 27.7023 23.3808C27.8422 23.1469 27.9543 22.8964 28.0324 22.6361C28.1413 22.276 28.1877 21.8847 28.0787 21.5238Z" fill="#F6A252"/>
<path d="M6.23429 10.5875C6.34096 11.0383 6.72214 11.4457 7.18508 11.4639C7.19738 11.4645 7.20961 11.4647 7.22182 11.4647C7.26451 11.4647 7.30678 11.4616 7.34868 11.4561C7.3526 11.4556 7.35642 11.4543 7.36032 11.4538C7.40524 11.4472 7.44982 11.4383 7.49404 11.4267C7.50055 11.425 7.50704 11.423 7.51355 11.4212C7.55753 11.409 7.60127 11.3952 7.64475 11.3795C7.64688 11.3788 7.64905 11.3781 7.65117 11.3773C7.69945 11.3597 7.74747 11.3404 7.79537 11.3202C7.79642 11.3197 7.79745 11.3193 7.79851 11.3188C7.84668 11.2984 7.89476 11.2772 7.94279 11.2559C7.96204 11.2473 7.98134 11.2391 8.00061 11.2306C8.0162 11.2237 8.03176 11.2169 8.04737 11.2101C8.06675 11.2017 8.08616 11.1936 8.10556 11.1855C8.14073 11.1707 8.17596 11.1565 8.2113 11.1432C8.22084 11.1396 8.23038 11.1361 8.23994 11.1327C8.27728 11.1191 8.31481 11.1071 8.3525 11.0961C8.36438 11.0927 8.37627 11.0894 8.38817 11.0862C8.43112 11.0749 8.47425 11.0649 8.51783 11.0583C8.51831 11.0582 8.51878 11.0581 8.51926 11.058C8.56714 11.0508 8.61548 11.0468 8.66435 11.0468C8.68086 11.0468 8.6975 11.0472 8.71415 11.0482C9.229 11.0789 9.61213 11.5935 9.66054 12.1064C9.70935 12.6207 9.50315 13.1218 9.26724 13.5808C9.20773 13.6965 9.14617 13.8111 9.08252 13.9245C9.08103 13.9272 9.07941 13.9298 9.0779 13.9325C9.07082 13.9451 9.06325 13.9575 9.0561 13.9701C9.00195 14.0656 8.94622 14.1601 8.88915 14.2539C8.87167 14.2826 8.85383 14.3111 8.83609 14.3396C8.7845 14.4226 8.73175 14.5049 8.67788 14.5865C8.66269 14.6095 8.64774 14.6326 8.63239 14.6555C8.56223 14.76 8.49086 14.8637 8.41704 14.9656C8.11095 15.388 7.76748 15.8005 7.61427 16.2989C7.38854 17.034 7.62357 17.8495 8.05472 18.4868C8.05573 18.4884 8.05674 18.4899 8.05774 18.4914C8.05818 18.492 8.05858 18.4927 8.05899 18.4933C8.06042 18.4954 8.06187 18.4976 8.06331 18.4997C8.06533 18.5027 8.06752 18.5056 8.06958 18.5086C8.07338 18.5141 8.07708 18.5196 8.08114 18.525C8.35585 18.2688 8.57308 17.8989 8.80079 17.433C10.0456 14.8903 11.6873 12.5422 13.6477 10.5008C14.1819 9.94513 14.8739 9.37443 15.605 9.37443C15.7296 9.37443 15.8553 9.39101 15.9816 9.4271C16.193 9.48829 16.3949 9.60787 16.5146 9.79274C16.8447 10.3013 16.4401 10.9427 16.2312 11.512C15.9154 12.372 16.0811 13.3577 16.5162 14.1644C16.9523 14.9707 17.6336 15.6182 18.3642 16.1715C18.8596 16.5475 19.5041 16.8838 20.0925 16.8838C20.3696 16.8838 20.6343 16.8092 20.865 16.6291C21.2602 16.3194 21.4104 15.7893 21.7512 15.4197C22.0369 15.1095 22.4601 14.9413 22.8809 14.9413C23.1064 14.9413 23.3313 14.9896 23.534 15.0902C24.6577 15.6494 24.7111 17.3119 25.5742 18.1841C25.5894 18.1641 25.6055 18.1448 25.6208 18.125C25.6765 18.053 25.7328 17.9816 25.7899 17.9107C25.8163 17.8779 25.8427 17.845 25.8694 17.8123C25.9371 17.7294 26.005 17.6467 26.0731 17.5642C26.3453 17.2346 26.6169 16.905 26.8517 16.5483C27.1218 16.1375 27.2485 15.7248 27.2653 15.3199C27.2656 15.3122 27.2653 15.3046 27.2656 15.297C27.2663 15.2739 27.2664 15.2509 27.2664 15.2279C27.2664 15.2084 27.2665 15.1888 27.266 15.1694C27.2654 15.1458 27.2642 15.1223 27.2628 15.0988C27.2618 15.08 27.2609 15.0612 27.2594 15.0425C27.2574 15.0183 27.2548 14.9942 27.2521 14.97C27.2501 14.952 27.2483 14.934 27.2459 14.9161C27.2426 14.8911 27.2386 14.8663 27.2345 14.8414C27.2317 14.8245 27.2291 14.8075 27.226 14.7906C27.2211 14.7647 27.2156 14.7389 27.2099 14.713C27.2065 14.6973 27.2033 14.6814 27.1996 14.6657C27.1932 14.6387 27.186 14.6119 27.1787 14.585C27.1748 14.5706 27.1713 14.5561 27.1671 14.5417C27.1589 14.5132 27.1499 14.485 27.1408 14.4567C27.1367 14.444 27.133 14.4312 27.1287 14.4185C27.1184 14.3878 27.1072 14.3574 27.0958 14.3269C27.092 14.3167 27.0886 14.3065 27.0847 14.2964C27.0716 14.2624 27.0576 14.2285 27.0432 14.1948C27.0404 14.1882 27.0379 14.1816 27.0351 14.1751C26.9648 14.0128 26.8804 13.8536 26.7845 13.6983C26.7803 13.6916 26.7759 13.6849 26.7717 13.6782C26.752 13.6467 26.732 13.6152 26.7113 13.584C26.7037 13.5725 26.6956 13.561 26.6879 13.5495C26.6702 13.5234 26.6525 13.4972 26.6343 13.4714C26.6241 13.4569 26.6135 13.4427 26.6032 13.4284C26.5868 13.4057 26.5705 13.3829 26.5536 13.3604C26.5517 13.3578 26.5498 13.3551 26.5478 13.3524C26.3887 13.1407 26.2104 12.9383 26.0202 12.7472C25.6687 12.3928 24.1787 10.7228 23.3396 10.7228C23.1857 10.7228 23.0535 10.7791 22.9545 10.91C22.8273 11.0783 22.7372 11.2608 22.6666 11.4497C22.6656 11.4525 22.6646 11.4553 22.6636 11.4582C22.6509 11.4924 22.6387 11.5269 22.6272 11.5615C22.6271 11.562 22.6269 11.5625 22.6267 11.5629C22.6145 11.5997 22.6029 11.6368 22.5917 11.6739C22.5897 11.6804 22.5879 11.6869 22.586 11.6934C22.5769 11.724 22.568 11.7548 22.5595 11.7856C22.5573 11.7934 22.5552 11.8013 22.553 11.8091C22.5445 11.8403 22.536 11.8716 22.5279 11.9029C22.5268 11.907 22.5257 11.9112 22.5246 11.9154C22.4809 12.0831 22.4409 12.2506 22.3939 12.4131C22.3892 12.4295 22.3844 12.446 22.3795 12.4624C22.3744 12.4792 22.3691 12.4959 22.3638 12.5126C22.3582 12.5306 22.3525 12.5486 22.3465 12.5664C22.3412 12.5825 22.3356 12.5984 22.33 12.6144C22.3236 12.6327 22.317 12.6509 22.3102 12.6691C22.3045 12.6844 22.2986 12.6996 22.2926 12.7148C22.2852 12.7335 22.2775 12.752 22.2697 12.7704C22.2636 12.7846 22.2576 12.7989 22.2513 12.8129C22.2422 12.833 22.2326 12.8528 22.2229 12.8725C22.217 12.8845 22.2114 12.8966 22.2053 12.9084C22.1905 12.9369 22.1749 12.9651 22.1586 12.9928C22.1564 12.9965 22.1543 13.0003 22.152 13.0041C22.1346 13.0331 22.1161 13.0615 22.0967 13.0895C22.0901 13.0991 22.0827 13.1084 22.0758 13.1179C22.0616 13.1373 22.0473 13.1566 22.032 13.1754C22.0291 13.1791 22.0265 13.183 22.0235 13.1866C21.8606 13.3839 21.6348 13.5482 21.3055 13.6616C21.2757 13.6718 21.2456 13.6811 21.2154 13.6895C21.1946 13.6953 21.1735 13.6996 21.1525 13.7045C21.1414 13.7071 21.1304 13.7101 21.1192 13.7125C21.0672 13.7236 21.0147 13.7324 20.9619 13.7387C20.9528 13.7398 20.9437 13.7403 20.9345 13.7413C20.8873 13.7462 20.8399 13.7492 20.7923 13.7505C20.7824 13.7508 20.7726 13.7513 20.7628 13.7514C20.7549 13.7515 20.7471 13.7521 20.7392 13.7521C20.721 13.7521 20.7028 13.7497 20.6845 13.7492C20.6409 13.7481 20.5973 13.7462 20.5537 13.7423C20.5265 13.7399 20.4994 13.7366 20.4723 13.7332C20.4319 13.7281 20.3916 13.722 20.3514 13.7148C20.3237 13.7098 20.2962 13.7049 20.2688 13.699C20.2283 13.6903 20.1882 13.6801 20.1482 13.6696C20.1224 13.6627 20.0964 13.6565 20.0708 13.6489C20.0228 13.6346 19.9755 13.6184 19.9284 13.6016C19.9134 13.5963 19.8979 13.5922 19.883 13.5866C19.8734 13.583 19.8628 13.5784 19.853 13.5746C19.8166 13.5607 19.7793 13.5459 19.7411 13.5302C19.7269 13.5243 19.713 13.5187 19.6987 13.5126C19.6521 13.4929 19.6045 13.4718 19.5561 13.4496C19.5474 13.4456 19.539 13.442 19.5303 13.4379C19.4766 13.4129 19.422 13.3862 19.3669 13.3582C19.3599 13.3546 19.353 13.3513 19.346 13.3477C19.2897 13.3188 19.2329 13.2881 19.1759 13.2562C19.1718 13.2539 19.1676 13.2519 19.1634 13.2495C18.872 13.085 18.579 12.8818 18.3395 12.6464C18.3363 12.6433 18.3333 12.64 18.3302 12.6369C18.3187 12.6255 18.3077 12.614 18.2965 12.6025C18.2822 12.5878 18.268 12.5731 18.2541 12.5582C18.2434 12.5467 18.2331 12.535 18.2227 12.5233C18.2091 12.5081 18.1956 12.4928 18.1825 12.4774C18.1726 12.4657 18.163 12.4538 18.1534 12.442C18.1405 12.4261 18.1277 12.4102 18.1154 12.394C18.1064 12.3823 18.0977 12.3705 18.0891 12.3586C18.0769 12.342 18.065 12.3253 18.0535 12.3085C18.0454 12.2967 18.0376 12.2849 18.0299 12.273C18.0186 12.2557 18.0077 12.2383 17.9971 12.2208C17.99 12.209 17.9831 12.1972 17.9764 12.1853C17.9661 12.1672 17.9563 12.1491 17.9468 12.1308C17.9407 12.1191 17.9347 12.1073 17.929 12.0955C17.9198 12.0767 17.9112 12.0577 17.9029 12.0386C17.8979 12.027 17.8929 12.0154 17.8882 12.0038C17.8802 11.984 17.8729 11.964 17.8659 11.944C17.862 11.9327 17.858 11.9214 17.8544 11.91C17.8477 11.8892 17.8419 11.8682 17.8364 11.8472C17.8335 11.8363 17.8305 11.8254 17.8279 11.8145C17.8228 11.7923 17.8186 11.77 17.8147 11.7476C17.8129 11.7374 17.8109 11.7273 17.8094 11.7171C17.8059 11.6932 17.8035 11.6691 17.8015 11.645C17.8007 11.6359 17.7996 11.627 17.7991 11.6179C17.7975 11.5915 17.7973 11.5648 17.7976 11.538C17.7976 11.531 17.7973 11.524 17.7975 11.517C17.7984 11.4862 17.8007 11.4551 17.8042 11.4239C17.8046 11.4207 17.8046 11.4176 17.805 11.4144C17.8133 11.3442 17.8279 11.273 17.8501 11.2007C17.8656 11.1498 17.8838 11.1011 17.9037 11.0536C17.9079 11.0434 17.913 11.0338 17.9174 11.0238C17.9333 10.988 17.95 10.9528 17.9682 10.9188C17.9756 10.9048 17.9837 10.8914 17.9916 10.8778C18.0083 10.8487 18.0256 10.82 18.0439 10.7922C18.0535 10.7778 18.0633 10.7636 18.0733 10.7495C18.0916 10.7236 18.1105 10.6981 18.1302 10.6732C18.1411 10.6594 18.1521 10.6456 18.1634 10.6321C18.1839 10.6076 18.2051 10.5839 18.2268 10.5605C18.2384 10.548 18.2497 10.5353 18.2616 10.5231C18.2856 10.4985 18.3106 10.4746 18.3358 10.451C18.3462 10.4412 18.3562 10.4312 18.3669 10.4216C18.4031 10.3889 18.4402 10.3571 18.4786 10.3263C18.8439 10.0328 19.2958 9.82034 19.6918 9.59866C19.897 9.4836 20.1059 9.3549 20.2554 9.20743C20.2557 9.20708 20.256 9.20673 20.2563 9.20638C20.2707 9.1922 20.2844 9.17779 20.2976 9.16325C20.3009 9.15966 20.3039 9.156 20.3071 9.15238C20.317 9.14113 20.3265 9.1298 20.3357 9.11835C20.3393 9.11388 20.3427 9.10939 20.3461 9.10489C20.3548 9.09356 20.3631 9.08211 20.371 9.07056C20.3737 9.06652 20.3766 9.06251 20.3792 9.05845C20.3891 9.04335 20.3984 9.02811 20.4068 9.01261C20.407 9.01226 20.4072 9.01191 20.4074 9.01156C20.4163 8.99509 20.4242 8.97841 20.4313 8.9615C20.4324 8.95878 20.4334 8.956 20.4345 8.95324C20.44 8.93947 20.4449 8.92555 20.4492 8.91147C20.4504 8.90722 20.4516 8.90296 20.4528 8.89871C20.4564 8.88529 20.4594 8.87172 20.4619 8.85802C20.4626 8.85418 20.4634 8.85037 20.464 8.84651C20.4693 8.81114 20.4706 8.7749 20.4671 8.73767C20.4669 8.73495 20.4664 8.73217 20.4661 8.72945C20.4643 8.71386 20.4618 8.69812 20.4583 8.68223C20.4574 8.67753 20.4562 8.67282 20.455 8.66808C20.4514 8.65324 20.447 8.63829 20.4418 8.62316C20.4403 8.61871 20.4389 8.61428 20.4373 8.60981C20.4303 8.59067 20.4223 8.57135 20.4127 8.55175C20.4126 8.55164 20.4126 8.55155 20.4126 8.55145C20.4026 8.53116 20.3912 8.5106 20.3784 8.48979C20.376 8.4858 20.3731 8.48175 20.3706 8.47773C20.3603 8.46153 20.3492 8.44518 20.3371 8.42864C20.3326 8.42251 20.3279 8.41632 20.3231 8.41014C20.3116 8.39506 20.2992 8.37984 20.2861 8.36451C20.2807 8.3582 20.2755 8.35191 20.2698 8.34553C20.2536 8.32722 20.2361 8.30874 20.2176 8.29004C20.2151 8.28743 20.213 8.28491 20.2104 8.2823C20.2092 8.28116 20.2081 8.28006 20.2069 8.2789C20.2069 8.27883 20.2069 8.27881 20.2068 8.27875C19.4832 7.56139 18.6542 6.95087 17.7548 6.4734C17.6146 6.39874 17.4734 6.32975 17.3314 6.2688C17.3149 6.26169 17.2983 6.25536 17.2817 6.24847C17.2614 6.24003 17.2411 6.23163 17.2207 6.22354C17.1866 6.20995 17.1524 6.19717 17.1182 6.18463C17.0989 6.17757 17.0796 6.17018 17.0604 6.16347C17.0159 6.14799 16.9714 6.13361 16.9268 6.12008C16.9164 6.1169 16.906 6.11344 16.8956 6.11037C16.8454 6.09566 16.7953 6.08244 16.7451 6.07042C16.726 6.06588 16.707 6.0622 16.6879 6.05806C16.6538 6.05062 16.6196 6.04354 16.5855 6.03749C16.564 6.03368 16.5424 6.03045 16.5209 6.02721C16.4887 6.02234 16.4565 6.01813 16.4243 6.01458C16.4026 6.01219 16.3808 6.00995 16.3591 6.00818C16.3257 6.00544 16.2922 6.00381 16.2588 6.00261C16.2389 6.00189 16.219 6.00077 16.1991 6.00059C16.1931 6.00055 16.1871 6 16.1811 6C16.1395 6 16.0979 6.00167 16.0563 6.00421C16.0455 6.00487 16.0347 6.00588 16.0239 6.00673C15.9766 6.01039 15.9295 6.01543 15.8824 6.02258C15.878 6.02326 15.8736 6.02363 15.8692 6.02434C15.8193 6.03225 15.7696 6.04284 15.72 6.05488C15.7088 6.0576 15.6976 6.06027 15.6864 6.06321C15.6374 6.07603 15.5884 6.09072 15.5396 6.1078C15.5309 6.11083 15.5223 6.11434 15.5136 6.11749C15.4675 6.1344 15.4214 6.15314 15.3754 6.17406C15.3689 6.17704 15.3624 6.17963 15.3559 6.18268C15.3527 6.18412 15.3496 6.18533 15.3465 6.18682C15.2386 6.23797 15.1314 6.3005 15.0248 6.37557C15.0038 6.39041 14.983 6.40552 14.9624 6.42087C14.9528 6.42801 14.944 6.43615 14.9345 6.44341C14.8826 6.48309 14.8317 6.52402 14.7821 6.5666C14.774 6.57357 14.7656 6.58022 14.7575 6.58725C14.6988 6.63858 14.6417 6.69177 14.5858 6.74632C14.5758 6.75603 14.5661 6.76596 14.5562 6.77576C14.5083 6.82319 14.4613 6.87153 14.415 6.92068C14.4052 6.9311 14.3953 6.9414 14.3856 6.95188C14.333 7.00843 14.2811 7.06572 14.23 7.12366C14.2286 7.12526 14.2271 7.1268 14.2257 7.1284C14.1507 7.21351 14.0769 7.2997 14.0034 7.38571C13.839 7.57705 13.6754 7.76908 13.5122 7.96136C13.3888 8.1067 13.2659 8.25228 13.1429 8.39782C13.0209 8.54208 12.8988 8.6863 12.7768 8.83046C12.5789 9.0644 12.3808 9.298 12.1819 9.53073C11.9406 9.8115 11.6157 10.0619 11.2458 10.0619C11.243 10.0619 11.2401 10.0619 11.2372 10.0619C10.474 10.0545 10.3069 9.43801 10.1871 8.78205C10.1859 8.77569 10.1848 8.76929 10.1837 8.76291C10.1744 8.7118 10.1654 8.66052 10.1563 8.60926C10.1451 8.54511 10.1337 8.48115 10.1219 8.41775C10.1206 8.41067 10.1192 8.40356 10.1179 8.39648C10.1071 8.33917 10.0958 8.28245 10.0836 8.22665C10.0823 8.22054 10.0809 8.21451 10.0796 8.20841C10.0544 8.09467 10.0253 7.98528 9.98952 7.88325C9.98766 7.87794 9.98593 7.87246 9.98402 7.86717C9.96663 7.81903 9.94734 7.77296 9.9264 7.72865C9.92303 7.72155 9.91963 7.71449 9.91619 7.7075C9.89468 7.66404 9.87131 7.6226 9.8455 7.58378C9.8421 7.57867 9.8384 7.57389 9.83491 7.56885C9.80731 7.52905 9.77773 7.49132 9.74456 7.45745C9.7095 7.42175 9.67245 7.39005 9.63404 7.36124C9.62196 7.35218 9.60906 7.34504 9.5967 7.33664C9.56993 7.31849 9.54301 7.30073 9.51494 7.28558C9.51082 7.28334 9.50712 7.28025 9.50297 7.27808C9.34386 7.19525 9.16535 7.15877 8.97961 7.15879C8.53978 7.15881 8.05939 7.36323 7.70026 7.64017C7.15638 8.05851 6.71778 8.61325 6.4367 9.23984C6.40412 9.31232 6.3736 9.38643 6.34596 9.46169C6.34188 9.47283 6.33903 9.48436 6.33506 9.49555C6.31737 9.54556 6.30114 9.59607 6.2863 9.64696C6.28251 9.65994 6.27744 9.67254 6.27387 9.68559C6.19211 9.98223 6.16409 10.2905 6.23429 10.5875Z" fill="#F18839"/>
<path d="M25.9709 23.9656C25.838 23.9656 25.7109 23.9315 25.6029 23.8483C25.3313 23.6384 25.3279 23.241 25.2649 22.9031C25.085 21.9326 24.1193 21.199 23.1452 21.199C22.9904 21.199 22.8353 21.2175 22.6832 21.2566C21.6037 21.5343 20.9372 22.5883 20.0374 23.2478C19.3626 23.7432 18.5306 23.9842 17.6958 23.9842C16.6121 23.9842 15.5238 23.5778 14.7703 22.7943C14.5188 22.5334 14.3012 22.2367 14.0179 22.0112C13.9636 22.0605 13.914 22.1174 13.8716 22.183C13.8472 22.2209 13.8267 22.2606 13.8093 22.3014C13.8034 22.315 13.7997 22.3294 13.7946 22.3433C13.7844 22.371 13.7743 22.3986 13.767 22.4271C13.7626 22.4442 13.7601 22.4618 13.7567 22.4792C13.7516 22.5054 13.7465 22.5315 13.7435 22.5582C13.7414 22.577 13.7408 22.596 13.7398 22.6149C13.7388 22.6329 13.7364 22.6507 13.7363 22.6687C13.7363 22.6758 13.7376 22.6829 13.7377 22.6899C13.7381 22.7182 13.7405 22.7465 13.743 22.7748C13.7448 22.7952 13.746 22.8156 13.7489 22.836C13.7531 22.8655 13.7594 22.8947 13.7657 22.9239C13.7698 22.9428 13.7729 22.9618 13.7778 22.9805C13.7862 23.0126 13.797 23.0439 13.8078 23.0752C13.813 23.0905 13.8171 23.1061 13.8229 23.1211C13.8406 23.167 13.8604 23.2119 13.8827 23.2551C14.0538 23.588 14.3368 23.8473 14.6158 24.0963C15.3293 24.7318 16.0799 25.3551 16.9658 25.7138C17.0214 25.7363 17.0777 25.7577 17.1344 25.7779C17.1509 25.7837 17.1678 25.7887 17.1844 25.7943C17.2248 25.8081 17.2653 25.822 17.3062 25.8345C17.3298 25.8417 17.3537 25.8477 17.3773 25.8545C17.4118 25.8643 17.4461 25.8746 17.4808 25.8835C17.5064 25.89 17.5323 25.8953 17.558 25.9013C17.5913 25.9091 17.6244 25.9174 17.6578 25.9243C17.6844 25.9298 17.7113 25.9341 17.738 25.939C17.7708 25.945 17.8034 25.9516 17.8363 25.9568C17.8635 25.961 17.8909 25.964 17.9182 25.9676C17.9508 25.972 17.9834 25.977 18.016 25.9804C18.0435 25.9834 18.071 25.9849 18.0986 25.9872C18.1311 25.9899 18.1636 25.9932 18.1961 25.995C18.2244 25.9966 18.2527 25.9967 18.2811 25.9975C18.3128 25.9985 18.3445 26 18.3761 26.0001C18.3778 26.0001 18.3795 26.0002 18.3811 26.0002C18.4117 26.0002 18.4422 25.9986 18.4727 25.9977C18.4999 25.997 18.5272 25.997 18.5543 25.9955C18.5867 25.9938 18.6189 25.9904 18.6512 25.9876C18.6779 25.9853 18.7047 25.9838 18.7314 25.9809C18.7638 25.9772 18.796 25.9719 18.8283 25.9672C18.8544 25.9634 18.8807 25.9604 18.9066 25.9559C18.9389 25.9503 18.9707 25.9429 19.0028 25.9362C19.0284 25.9308 19.0542 25.9264 19.0797 25.9203C19.1122 25.9125 19.1441 25.9028 19.1763 25.8938C19.2008 25.887 19.2255 25.8811 19.2497 25.8736C19.2847 25.8628 19.3191 25.8498 19.3536 25.8375C19.3744 25.83 19.3956 25.8236 19.4162 25.8157C19.4535 25.8012 19.4901 25.7846 19.5267 25.7683C19.5441 25.7606 19.5618 25.754 19.5789 25.7459C19.6324 25.7207 19.6851 25.6935 19.7369 25.6642C20.7666 25.0807 21.2294 23.8533 22.0656 23.0153C22.3561 22.7252 22.7079 22.4746 23.1129 22.4064C23.1582 22.3987 23.2041 22.3947 23.2502 22.3925C23.2603 22.392 23.2703 22.3915 23.2803 22.3912C23.2893 22.391 23.2982 22.3901 23.3072 22.3901C23.3347 22.3901 23.3621 22.3927 23.3895 22.3947C23.4028 22.3956 23.416 22.3955 23.4292 22.3969C23.4771 22.4018 23.5246 22.4095 23.5714 22.4202C23.5809 22.4224 23.59 22.4258 23.5994 22.4282C23.6364 22.4377 23.6729 22.4485 23.7086 22.4616C23.7242 22.4674 23.7392 22.4745 23.7545 22.4809C23.7832 22.4931 23.8113 22.506 23.8386 22.5205C23.8544 22.529 23.8698 22.5381 23.8851 22.5474C23.9107 22.563 23.9352 22.5797 23.9591 22.5976C23.9732 22.6081 23.9873 22.6186 24.0007 22.6299C24.025 22.6504 24.0474 22.6727 24.0693 22.6958C24.0797 22.7068 24.0909 22.717 24.1007 22.7286C24.131 22.7644 24.1589 22.8024 24.1828 22.8437C24.4616 23.3278 24.1995 23.9885 24.479 24.4708C24.5008 24.5083 24.5253 24.5427 24.5515 24.5751C24.5602 24.5858 24.57 24.595 24.5791 24.6052C24.5975 24.6258 24.6163 24.646 24.6365 24.6643C24.6483 24.675 24.6607 24.6845 24.6729 24.6944C24.6924 24.7101 24.7121 24.7253 24.7328 24.7392C24.7464 24.7483 24.7604 24.7569 24.7746 24.7652C24.7956 24.7777 24.8172 24.7894 24.8393 24.8002C24.8541 24.8074 24.869 24.8145 24.8842 24.821C24.9075 24.831 24.9315 24.8398 24.9558 24.8482C24.9708 24.8533 24.9856 24.8588 25.0009 24.8633C25.0283 24.8714 25.0564 24.8779 25.0848 24.8841C25.0978 24.8869 25.1104 24.8905 25.1236 24.8929C25.1654 24.9007 25.2079 24.9067 25.2511 24.9106C25.254 24.9108 25.257 24.9108 25.26 24.911C25.3005 24.9144 25.3415 24.9162 25.3828 24.9164C25.3857 24.9164 25.3885 24.9168 25.3914 24.9168C25.4236 24.9168 25.4561 24.9156 25.4886 24.9137C25.4913 24.9136 25.494 24.9137 25.4967 24.9135C25.5354 24.9111 25.5742 24.9073 25.613 24.9025C25.6255 24.9009 25.6379 24.8988 25.6503 24.897C25.6768 24.8932 25.7032 24.8891 25.7295 24.8842C25.7443 24.8815 25.759 24.8783 25.7738 24.8752C25.7978 24.8702 25.8217 24.8649 25.8455 24.8591C25.8606 24.8554 25.8756 24.8515 25.8905 24.8474C25.9142 24.841 25.9377 24.8342 25.961 24.827C25.9752 24.8226 25.9895 24.8183 26.0035 24.8136C26.0285 24.8054 26.053 24.7965 26.0774 24.7873C26.0891 24.7829 26.1011 24.7788 26.1128 24.7742C26.1484 24.7601 26.1834 24.7453 26.2175 24.7294C26.8329 24.4435 27.3547 23.9636 27.702 23.3809C27.3541 23.3899 26.9302 23.5632 26.607 23.7603C26.4179 23.8757 26.1868 23.9656 25.9709 23.9656Z" fill="#F8B77B"/>
</svg>
