<svg width="11" height="14" viewBox="0 0 11 14" fill="none" xmlns="http://www.w3.org/2000/svg">
<path d="M10.9982 4.99965C10.9982 4.26632 10.3982 3.66632 9.66484 3.66632H7.66484C7.43151 3.66632 7.29818 3.39965 7.43151 3.19965C7.63151 2.86632 7.73151 2.46632 7.63151 2.03299C7.49818 1.36632 6.99818 0.832988 6.36484 0.699655C5.26484 0.466321 4.33151 1.29965 4.33151 2.33299C4.33151 2.66632 4.43151 2.93299 4.56484 3.19965C4.69818 3.39965 4.56484 3.66632 4.29818 3.66632H2.29818C1.56484 3.66632 0.964844 4.26632 0.964844 4.99965V7.33299C0.964844 7.56632 1.23151 7.69965 1.43151 7.56632C1.76484 7.36632 2.16484 7.26632 2.59818 7.36632C3.26484 7.49965 3.79818 7.99965 3.93151 8.63299C4.16484 9.69965 3.33151 10.6663 2.29818 10.6663C1.96484 10.6663 1.69818 10.5663 1.43151 10.433C1.26484 10.2997 0.998177 10.433 0.998177 10.6663V12.6663C0.998177 13.3997 1.59818 13.9997 2.33151 13.9997H9.66484C10.3982 13.9997 10.9982 13.3997 10.9982 12.6663V4.99965Z" fill="#8BC34A"/>
</svg>
