<svg width="20" height="21" viewBox="0 0 20 21" fill="none" xmlns="http://www.w3.org/2000/svg">
<path d="M0.725038 11.8204C0.823058 11.8204 0.917381 11.7816 0.986743 11.7122C1.0561 11.6429 1.09494 11.5485 1.09494 11.4505C1.02466 9.43645 1.6433 7.45947 2.84915 5.84473C4.05501 4.23108 5.77585 3.07617 7.72698 2.57312C8.09687 5.4804 12.321 5.27326 12.3951 2.32528C12.3396 -0.456296 8.44096 -0.877912 7.77504 1.80003C5.61026 2.30031 3.686 3.53758 2.33214 5.30008C0.97927 7.06261 0.280158 9.24046 0.355059 11.4615C0.360608 11.6612 0.525297 11.8204 0.725038 11.8204ZM10.0536 0.723669C10.9386 0.723669 11.6553 1.44032 11.6553 2.32529C11.6553 3.21026 10.9386 3.92691 10.0536 3.92691C9.16866 3.92691 8.45201 3.21026 8.45201 2.32529C8.45201 1.44032 9.16866 0.723669 10.0536 0.723669Z" fill="white"/>
<path d="M14.6335 18.599C12.9523 19.6486 10.968 20.1045 8.99717 19.8955C7.02658 19.6865 5.18274 18.8237 3.75857 17.4449C4.5492 16.8308 4.86178 15.7831 4.53812 14.837C4.21354 13.8901 3.32395 13.2539 2.32339 13.2539C-0.772569 13.3649 -0.776357 17.8294 2.32339 17.9405C2.58138 17.9395 2.83754 17.8961 3.08166 17.811C4.61023 19.3766 6.62977 20.3715 8.80296 20.6295C10.977 20.8866 13.1723 20.3928 15.0254 19.2276C15.1993 19.1194 15.252 18.891 15.1438 18.7172C15.0356 18.5433 14.8072 18.4906 14.6333 18.5988L14.6335 18.599ZM0.721791 15.5992C0.721791 14.7142 1.43844 13.9975 2.32341 13.9975C3.20838 13.9975 3.92504 14.7142 3.92504 15.5992C3.92504 16.4841 3.20838 17.2008 2.32341 17.2008C1.43844 17.2008 0.721791 16.4841 0.721791 15.5992Z" fill="white"/>
<path d="M19.1271 13.7696C19.7153 11.7019 19.5941 9.49641 18.7822 7.50551C17.9703 5.51551 16.5148 3.85371 14.6477 2.78748C14.4702 2.68576 14.2427 2.74679 14.141 2.92434C14.0393 3.10188 14.1003 3.32936 14.2779 3.43108C15.9849 4.39464 17.322 5.90018 18.0786 7.7088C18.835 9.51664 18.9672 11.5261 18.454 13.418C18.1997 13.3228 17.9306 13.2738 17.6587 13.2738C16.5148 13.2719 15.5365 14.0949 15.3432 15.2222C15.1499 16.3494 15.7973 17.4517 16.8764 17.8309C17.9547 18.211 19.1503 17.757 19.7051 16.7573C20.26 15.7568 20.013 14.5028 19.1197 13.788L19.1271 13.7696ZM17.6661 17.2022C16.8107 17.1615 16.1375 16.4551 16.1375 15.5988C16.1375 14.7425 16.8107 14.036 17.6661 13.9953C18.5214 14.036 19.1946 14.7425 19.1946 15.5988C19.1946 16.4551 18.5214 17.1616 17.6661 17.2022Z" fill="white"/>
</svg>
