<svg width="20" height="20" viewBox="0 0 20 20" fill="none" xmlns="http://www.w3.org/2000/svg">
<mask id="mask0_1704_12785" style="mask-type:alpha" maskUnits="userSpaceOnUse" x="0" y="0" width="20" height="20">
<rect width="20" height="20" fill="#D9D9D9"/>
</mask>
<g mask="url(#mask0_1704_12785)">
<path d="M15.9161 15.6746L14.4401 17.1458C14.362 17.2239 14.2673 17.2664 14.1557 17.2733C14.0441 17.2803 13.9423 17.2378 13.8503 17.1458C13.7617 17.0572 13.7174 16.959 13.7174 16.851C13.7174 16.7431 13.7617 16.6448 13.8503 16.556L15.3216 15.0802L13.8503 13.6042C13.7724 13.5261 13.73 13.4313 13.723 13.3198C13.7161 13.2081 13.7585 13.1063 13.8503 13.0144C13.9391 12.9258 14.0374 12.8815 14.1453 12.8815C14.2532 12.8815 14.3515 12.9258 14.4401 13.0144L15.9161 14.4856L17.392 13.0144C17.47 12.9365 17.5649 12.894 17.6766 12.8871C17.7881 12.8801 17.8898 12.9226 17.9818 13.0144C18.0704 13.1031 18.1147 13.2015 18.1147 13.3094C18.1147 13.4173 18.0704 13.5156 17.9818 13.6042L16.5105 15.0802L17.9818 16.556C18.0598 16.6341 18.1023 16.729 18.1093 16.8406C18.1162 16.9522 18.0737 17.0539 17.9818 17.1458C17.8932 17.2344 17.7949 17.2788 17.687 17.2788C17.5791 17.2788 17.4807 17.2344 17.392 17.1458L15.9161 15.6746ZM5.0026 17.5C4.53247 17.5 4.13719 17.3397 3.81677 17.0192C3.49622 16.6987 3.33594 16.3035 3.33594 15.8333V14.8719C3.33594 14.499 3.46705 14.1814 3.72927 13.9192C3.99163 13.6568 4.30927 13.5256 4.68219 13.5256H5.83594V3.84625C5.83594 3.47333 5.96705 3.15569 6.22927 2.89333C6.49163 2.63111 6.80927 2.5 7.18219 2.5H15.323C15.6959 2.5 16.0136 2.63111 16.2759 2.89333C16.5382 3.15569 16.6693 3.47333 16.6693 3.84625V10.5129C16.6693 10.6314 16.6295 10.7304 16.5499 10.81C16.4703 10.8897 16.3712 10.9296 16.2526 10.9296C16.134 10.9296 16.0349 10.8897 15.9553 10.81C15.8757 10.7304 15.8359 10.6314 15.8359 10.5129V3.84625C15.8359 3.69667 15.7879 3.57375 15.6918 3.4775C15.5955 3.38139 15.4726 3.33333 15.323 3.33333H7.18219C7.0326 3.33333 6.90969 3.38139 6.81344 3.4775C6.71733 3.57375 6.66927 3.69667 6.66927 3.84625V13.5256H11.6211C11.7398 13.5256 11.8389 13.5654 11.9184 13.645C11.998 13.7246 12.0378 13.8237 12.0378 13.9423C12.0378 14.0609 11.998 14.16 11.9184 14.2396C11.8389 14.3192 11.7398 14.359 11.6211 14.359H4.68219C4.5326 14.359 4.40969 14.407 4.31344 14.5031C4.21733 14.5994 4.16927 14.7223 4.16927 14.8719V15.8333C4.16927 16.0694 4.24913 16.2674 4.40885 16.4271C4.56858 16.5868 4.76649 16.6667 5.0026 16.6667H11.6211C11.7398 16.6667 11.8389 16.7065 11.9184 16.786C11.998 16.8656 12.0378 16.9647 12.0378 17.0833C12.0378 17.2019 11.998 17.301 11.9184 17.3806C11.8389 17.4602 11.7398 17.5 11.6211 17.5H5.0026ZM12.0299 16.6667H4.16927H11.8343H11.7847H12.0299ZM8.23969 6.98708C8.12122 6.98708 8.02219 6.94729 7.9426 6.86771C7.86288 6.78813 7.82302 6.68903 7.82302 6.57042C7.82302 6.45194 7.86288 6.35292 7.9426 6.27333C8.02219 6.19361 8.12122 6.15375 8.23969 6.15375H14.2655C14.384 6.15375 14.483 6.19361 14.5626 6.27333C14.6423 6.35292 14.6822 6.45194 14.6822 6.57042C14.6822 6.68903 14.6423 6.78813 14.5626 6.86771C14.483 6.94729 14.384 6.98708 14.2655 6.98708H8.23969ZM8.23969 9.29479C8.12122 9.29479 8.02219 9.255 7.9426 9.17542C7.86288 9.09583 7.82302 8.99674 7.82302 8.87813C7.82302 8.75965 7.86288 8.66056 7.9426 8.58083C8.02219 8.50125 8.12122 8.46146 8.23969 8.46146H14.2655C14.384 8.46146 14.483 8.50125 14.5626 8.58083C14.6423 8.66056 14.6822 8.75965 14.6822 8.87813C14.6822 8.99674 14.6423 9.09583 14.5626 9.17542C14.483 9.255 14.384 9.29479 14.2655 9.29479H8.23969Z" fill="#EEEEEE"/>
</g>
</svg>
