<svg width="22" height="22" viewBox="0 0 22 22" fill="none" xmlns="http://www.w3.org/2000/svg">
<path d="M11.3655 1.12419L12.6345 2.0966C12.7483 2.18524 12.8905 2.22938 13.0345 2.22074L14.6552 2.14487C14.787 2.13723 14.9176 2.17378 15.0262 2.24873C15.1349 2.32368 15.2155 2.43275 15.2552 2.55867L15.6759 4.06211C15.7169 4.19475 15.8052 4.30767 15.9241 4.37935L17.3035 5.23452C17.4207 5.30022 17.5086 5.40792 17.5496 5.5359C17.5905 5.66388 17.5814 5.80263 17.5241 5.92418L16.931 7.35176C16.8829 7.48075 16.8829 7.62276 16.931 7.75176L17.5104 9.20693C17.5676 9.32847 17.5767 9.46722 17.5358 9.5952C17.4948 9.72318 17.4069 9.83088 17.2897 9.89658L15.9104 10.7518C15.7915 10.8234 15.7031 10.9364 15.6621 11.069L15.2414 12.5724C15.2017 12.6983 15.1211 12.8074 15.0124 12.8824C14.9038 12.9573 14.7732 12.9939 14.6414 12.9862L13.069 12.8828C12.925 12.8741 12.7828 12.9183 12.669 13.0069L11.4 13.9793C11.2952 14.0599 11.1667 14.1035 11.0345 14.1035C10.9023 14.1035 10.7738 14.0599 10.669 13.9793L9.40001 13.0069C9.28621 12.9183 9.144 12.8741 9.00001 12.8828L7.37932 12.9586C7.24752 12.9663 7.11694 12.9297 7.00826 12.8548C6.89957 12.7798 6.81901 12.6708 6.77932 12.5448L6.35863 11.0414C6.31762 10.9088 6.22924 10.7959 6.11035 10.7242L4.73104 9.86899C4.61262 9.80444 4.52319 9.69724 4.48093 9.56915C4.43866 9.44107 4.44671 9.3017 4.50345 9.17934L5.08276 7.72417C5.13087 7.59518 5.13087 7.45317 5.08276 7.32417L4.48966 5.89659C4.43292 5.77423 4.42487 5.63486 4.46713 5.50678C4.5094 5.37869 4.59882 5.27149 4.71725 5.20694L6.09656 4.35177C6.21545 4.28008 6.30382 4.16716 6.34483 4.03453L6.76552 2.53108C6.80521 2.40517 6.88578 2.2961 6.99446 2.22115C7.10314 2.14619 7.23372 2.10965 7.36552 2.11729L8.98621 2.19315C9.13021 2.20179 9.27241 2.15766 9.38621 2.06901L10.6345 1.12419C10.7393 1.04366 10.8678 1 11 1C11.1322 1 11.2607 1.04366 11.3655 1.12419Z" stroke="#EFEDED" stroke-linecap="round" stroke-linejoin="round"/>
<path d="M11 10.6552C12.714 10.6552 14.1034 9.26574 14.1034 7.55176C14.1034 5.83778 12.714 4.44832 11 4.44832C9.28601 4.44832 7.89655 5.83778 7.89655 7.55176C7.89655 9.26574 9.28601 10.6552 11 10.6552Z" stroke="#EFEDED" stroke-linecap="round" stroke-linejoin="round"/>
<path d="M21 18.2414L15.6897 11" stroke="#EFEDED" stroke-linecap="round" stroke-linejoin="round"/>
<path d="M21 18.2414L16.1724 17.5517" stroke="#EFEDED" stroke-linecap="round" stroke-linejoin="round"/>
<path d="M14.1035 21L16.1724 17.5517" stroke="#EFEDED" stroke-linecap="round" stroke-linejoin="round"/>
<path d="M14.1034 21L12.3517 13.2759" stroke="#EFEDED" stroke-linecap="round" stroke-linejoin="round"/>
<path d="M1 18.2414L6.31034 11" stroke="#EFEDED" stroke-linecap="round" stroke-linejoin="round"/>
<path d="M1 18.2414L5.82759 17.5517" stroke="#EFEDED" stroke-linecap="round" stroke-linejoin="round"/>
<path d="M7.89656 21L5.82759 17.5517" stroke="#EFEDED" stroke-linecap="round" stroke-linejoin="round"/>
<path d="M7.89655 21L9.64827 13.2759" stroke="#EFEDED" stroke-linecap="round" stroke-linejoin="round"/>
</svg>
