<svg width="160" height="101" viewBox="0 0 160 101" fill="none" xmlns="http://www.w3.org/2000/svg">
<mask id="path-1-inside-1_759_97" fill="white">
<path fill-rule="evenodd" clip-rule="evenodd" d="M56.6173 0H41.0725V15.5447H56.6173V0ZM118.796 0.000121617H103.251V15.5449H118.796V0.000121617ZM56.6172 15.5451H72.1619V46.6346H56.6172V15.5451ZM103.252 15.5451H87.7068V62.1794H103.252V15.5451Z"/>
</mask>
<path fill-rule="evenodd" clip-rule="evenodd" d="M56.6173 0H41.0725V15.5447H56.6173V0ZM118.796 0.000121617H103.251V15.5449H118.796V0.000121617ZM56.6172 15.5451H72.1619V46.6346H56.6172V15.5451ZM103.252 15.5451H87.7068V62.1794H103.252V15.5451Z" fill="white"/>
<path d="M41.0725 0V-0.442203H40.6303V0H41.0725ZM56.6173 0H57.0595V-0.442203H56.6173V0ZM41.0725 15.5447H40.6303V15.987H41.0725V15.5447ZM56.6173 15.5447V15.987H57.0595V15.5447H56.6173ZM103.251 0.000121617V-0.442082H102.809V0.000121617H103.251ZM118.796 0.000121617H119.238V-0.442082H118.796V0.000121617ZM103.251 15.5449H102.809V15.9871H103.251V15.5449ZM118.796 15.5449V15.9871H119.238V15.5449H118.796ZM72.1619 15.5451H72.6041V15.1029H72.1619V15.5451ZM56.6172 15.5451V15.1029H56.175V15.5451H56.6172ZM72.1619 46.6346V47.0768H72.6041V46.6346H72.1619ZM56.6172 46.6346H56.175V47.0768H56.6172V46.6346ZM87.7068 15.5451V15.1029H87.2646V15.5451H87.7068ZM103.252 15.5451H103.694V15.1029H103.252V15.5451ZM87.7068 62.1794H87.2646V62.6216H87.7068V62.1794ZM103.252 62.1794V62.6216H103.694V62.1794H103.252ZM41.0725 0.442203H56.6173V-0.442203H41.0725V0.442203ZM41.5147 15.5447V0H40.6303V15.5447H41.5147ZM56.6173 15.1025H41.0725V15.987H56.6173V15.1025ZM56.1751 0V15.5447H57.0595V0H56.1751ZM103.251 0.442325H118.796V-0.442082H103.251V0.442325ZM103.694 15.5449V0.000121617H102.809V15.5449H103.694ZM118.796 15.1027H103.251V15.9871H118.796V15.1027ZM118.354 0.000121617V15.5449H119.238V0.000121617H118.354ZM72.1619 15.1029H56.6172V15.9873H72.1619V15.1029ZM72.6041 46.6346V15.5451H71.7197V46.6346H72.6041ZM56.6172 47.0768H72.1619V46.1924H56.6172V47.0768ZM56.175 15.5451V46.6346H57.0594V15.5451H56.175ZM87.7068 15.9873H103.252V15.1029H87.7068V15.9873ZM88.149 62.1794V15.5451H87.2646V62.1794H88.149ZM103.252 61.7372H87.7068V62.6216H103.252V61.7372ZM102.809 15.5451V62.1794H103.694V15.5451H102.809Z" fill="white" mask="url(#path-1-inside-1_759_97)"/>
<path d="M87.4852 0.220703V15.3232H72.3827V0.220703H87.4852Z" fill="white" stroke="white" stroke-width="0.442203"/>
<path fill-rule="evenodd" clip-rule="evenodd" d="M140.557 90.3023C140.557 95.7203 136.165 100.112 130.747 100.112C125.329 100.112 120.936 95.7203 120.936 90.3023C120.936 84.8843 125.329 80.4922 130.747 80.4922C136.165 80.4922 140.557 84.8843 140.557 90.3023ZM135.659 90.2966C135.659 93.013 133.457 95.2151 130.741 95.2151C128.024 95.2151 125.822 93.013 125.822 90.2966C125.822 87.5802 128.024 85.3781 130.741 85.3781C133.457 85.3781 135.659 87.5802 135.659 90.2966ZM4.76899 94.187H6.19322L9.99634 99.9121H15.5753L11.1113 92.9464C11.5117 92.6581 11.864 92.3293 12.1652 91.9585C12.7207 91.2945 13.1193 90.5536 13.3554 89.7394C13.5999 88.9514 13.7237 88.1582 13.7237 87.3619C13.7237 86.3649 13.5575 85.4511 13.2117 84.631C12.8672 83.7979 12.3571 83.0856 11.6841 82.5018C11.0237 81.8984 10.2116 81.4525 9.26433 81.1537C8.31089 80.8365 7.24233 80.6835 6.06668 80.6835H0V99.9121H4.76899V94.187ZM4.15831 84.7195V90.151H6.67834C7.2166 90.151 7.66514 90.0613 8.02398 89.8819C8.38282 89.7025 8.66011 89.4741 8.85584 89.1968C9.06788 88.9196 9.21468 88.6341 9.29623 88.3405C9.3941 88.0306 9.44303 87.7452 9.44303 87.4842C9.44303 87.2885 9.41041 87.0438 9.34517 86.7502C9.29623 86.4403 9.18206 86.1304 9.00264 85.8205C8.82322 85.5106 8.54593 85.2496 8.17078 85.0376C7.81194 84.8255 7.32262 84.7195 6.7028 84.7195H4.15831ZM95.922 80.6835H82.5653V85.3302H86.7736V99.9121H91.5425V85.3302H95.922V80.6835ZM148.306 86.8112V80.6835H143.488V99.9121H148.306V92.7528L148.501 92.5577L153.818 99.9121H159.854L151.963 89.4079L160 80.6835H153.733L148.306 86.8112ZM108.195 100.112C113.613 100.112 118.005 95.7203 118.005 90.3023C118.005 84.8843 113.613 80.4922 108.195 80.4922C102.777 80.4922 98.3845 84.8843 98.3845 90.3023C98.3845 95.7203 102.777 100.112 108.195 100.112ZM108.189 95.2151C110.905 95.2151 113.107 93.013 113.107 90.2966C113.107 87.5802 110.905 85.3781 108.189 85.3781C105.472 85.3781 103.27 87.5802 103.27 90.2966C103.27 93.013 105.472 95.2151 108.189 95.2151ZM66.5318 80.6835V86.8112L71.9585 80.6835H78.2259L70.189 89.4079L78.0801 99.9121H72.0436L66.7269 92.5577L66.5318 92.7528V99.9121H61.7138V80.6835H66.5318ZM48.9725 100.112C54.3905 100.112 58.7826 95.7203 58.7826 90.3023C58.7826 84.8843 54.3905 80.4922 48.9725 80.4922C43.5545 80.4922 39.1624 84.8843 39.1624 90.3023C39.1624 95.7203 43.5545 100.112 48.9725 100.112ZM48.9666 95.2151C51.683 95.2151 53.8851 93.013 53.8851 90.2966C53.8851 87.5802 51.683 85.3781 48.9666 85.3781C46.2502 85.3781 44.0481 87.5802 44.0481 90.2966C44.0481 93.013 46.2502 95.2151 48.9666 95.2151ZM36.2311 90.3023C36.2311 95.7203 31.8389 100.112 26.421 100.112C21.003 100.112 16.6109 95.7203 16.6109 90.3023C16.6109 84.8843 21.003 80.4922 26.421 80.4922C31.8389 80.4922 36.2311 84.8843 36.2311 90.3023ZM31.3336 90.2966C31.3336 93.013 29.1315 95.2151 26.4151 95.2151C23.6987 95.2151 21.4966 93.013 21.4966 90.2966C21.4966 87.5802 23.6987 85.3781 26.4151 85.3781C29.1315 85.3781 31.3336 87.5802 31.3336 90.2966Z" fill="white"/>
</svg>
