<svg xmlns="http://www.w3.org/2000/svg" width="30" height="30" viewBox="0 0 30 30" fill="none">
  <path fill-rule="evenodd" clip-rule="evenodd" d="M12.3455 19.0081C7.54052 19.0081 3.43677 19.7343 3.43677 22.6443C3.43677 25.5543 7.51552 26.3068 12.3455 26.3068C17.1518 26.3068 21.2543 25.5793 21.2543 22.6706C21.2543 19.7618 17.1768 19.0081 12.3455 19.0081Z" stroke="#7D8082" stroke-linecap="round" stroke-linejoin="round"/>
  <path fill-rule="evenodd" clip-rule="evenodd" d="M12.3455 14.8573C15.4993 14.8573 18.0555 12.301 18.0555 9.14726C18.0555 5.99351 15.4993 3.43726 12.3455 3.43726C9.19301 3.43726 6.63676 5.99351 6.63676 9.14726C6.62551 12.2898 9.16301 14.846 12.3068 14.8573H12.3455Z" stroke="#7D8082" stroke-linecap="round" stroke-linejoin="round"/>
  <path d="M24.0045 10.8365V15.849" stroke="#7D8082" stroke-linecap="round" stroke-linejoin="round"/>
  <path d="M26.5616 13.3429H21.4491" stroke="#7D8082" stroke-linecap="round" stroke-linejoin="round"/>
</svg>
