<svg width="20" height="20" viewBox="0 0 20 20" fill="none" xmlns="http://www.w3.org/2000/svg">
<path d="M14.4574 13.9683C13.2738 13.9745 12.2921 13.5154 11.4669 12.7081C10.0291 11.302 8.60024 9.88753 7.16323 8.48071C6.28179 7.61777 4.93688 7.5974 4.00883 8.42395C3.16882 9.17193 3.09669 10.5104 3.84682 11.4264C4.65058 12.4087 6.17933 12.4716 7.14991 11.5632C7.44323 11.2885 7.44323 11.2885 7.73248 11.5727C8.0332 11.8684 8.33207 12.166 8.63575 12.4585C8.70972 12.5287 8.70972 12.5702 8.63575 12.647C7.75911 13.5597 6.69458 14.0294 5.40811 13.9974C3.69406 13.9519 1.81318 12.7114 1.53059 10.5049C1.30607 8.74846 2.34915 7.14301 3.62193 6.50126C5.27828 5.66634 7.16027 5.94537 8.49112 7.24778C9.9285 8.65448 11.3623 10.0645 12.7925 11.4777C13.1465 11.8262 13.5567 12.0678 14.0561 12.146C15.0082 12.2955 15.9225 11.879 16.3893 11.0863C16.8528 10.2994 16.7611 9.30945 16.1555 8.56765C15.3614 7.59521 13.8341 7.53228 12.8636 8.42868C12.7548 8.52946 12.6697 8.72409 12.5273 8.70153C12.4082 8.68298 12.3124 8.51672 12.2077 8.41413C11.9196 8.13182 11.6329 7.84806 11.3437 7.56647C11.2864 7.51081 11.2523 7.47771 11.3293 7.39621C12.2103 6.45906 13.2849 5.97411 14.5939 6.00213C16.5672 6.04505 18.285 7.59812 18.4751 9.531C18.6379 11.1838 17.9813 12.4614 16.5972 13.3778C15.9721 13.7893 15.2305 13.9665 14.4574 13.9683Z" fill="#7A4DD1"/>
</svg>
