<svg width="20" height="20" viewBox="0 0 20 20" fill="none" xmlns="http://www.w3.org/2000/svg">
<g clip-path="url(#clip0_389_241)">
<path d="M11.5834 9.47482C12.3063 9.47233 13.0284 9.46985 13.7497 9.46736C14.2404 9.46736 14.7324 9.46499 15.2224 9.46736C15.6013 9.47007 15.8059 9.67807 15.8059 10.0561C15.8059 12.8429 15.8059 15.6297 15.8059 18.4166C15.8059 18.7858 15.5972 18.9989 15.2346 18.9989C13.5362 18.9989 11.8378 18.9989 10.1391 18.9989C10.0887 18.9989 10.0375 18.9918 9.98802 18.9884C9.98802 17.7463 9.98881 16.5029 9.99039 15.2584C9.99039 15.1889 9.96226 15.1107 10.0277 15.0514C10.2249 15.2441 10.4262 15.4332 10.6186 15.6303C10.7959 15.8115 10.9958 15.8959 11.2421 15.7997C11.4793 15.7082 11.581 15.5287 11.581 15.236C11.581 13.3162 11.5818 11.3958 11.5834 9.47482Z" fill="#CF014F"/>
<path d="M10.0282 15.0522C9.96278 15.1114 9.99125 15.1897 9.99091 15.2591C9.98955 16.503 9.98887 17.746 9.98887 18.9881C9.93262 18.9912 9.87671 18.9973 9.81944 18.9973H4.82801C4.378 18.9973 4.194 18.812 4.19434 18.3594C4.19434 16.1602 4.19501 13.961 4.19637 11.7619C4.35631 11.5972 4.57081 11.5176 4.76328 11.4051C5.55396 10.9426 6.34735 10.4853 7.14345 10.0332C7.4796 9.84213 7.79881 9.61991 8.15631 9.4668L8.42028 9.47628C8.42164 11.4038 8.42164 13.3312 8.42028 15.2585C8.42028 15.5132 8.51482 15.6948 8.74999 15.7934C8.98516 15.8919 9.17662 15.812 9.34673 15.6433C9.55852 15.4326 9.77268 15.2246 9.98582 15.0152L10.0282 15.0522Z" fill="#E53950"/>
<path d="M8.15615 9.46926C7.79865 9.62238 7.47843 9.8446 7.1433 10.0357C6.34697 10.4873 5.55358 10.9446 4.76313 11.4076C4.57066 11.5201 4.3565 11.5997 4.19621 11.7643C4.13352 11.7565 4.09083 11.7982 4.04271 11.826C3.82652 11.9479 3.61337 12.0763 3.39447 12.1928C3.12914 12.3341 2.83907 12.2606 2.68692 12.0058C2.14475 11.0944 1.60607 10.1805 1.07089 9.26432C0.917049 9.00043 1.02108 8.69894 1.31047 8.53024C1.77877 8.25924 2.24911 7.98823 2.71844 7.71723C2.77672 7.68336 2.83263 7.64575 2.8899 7.61018C3.06679 7.51195 3.24672 7.41879 3.42022 7.31479C3.70385 7.14542 4.00374 7.00043 4.26737 6.79955C4.28032 6.80199 4.29371 6.80049 4.3058 6.79524C4.31788 6.78998 4.32811 6.78121 4.33515 6.77008C4.9024 6.47333 5.45339 6.14812 5.9993 5.81411C6.52792 5.53667 7.03689 5.22502 7.55264 4.92523C7.65091 4.87035 7.75054 4.81784 7.84745 4.76025C8.32186 4.47909 8.81524 4.22943 9.26694 3.91066C9.2719 3.91222 9.27715 3.91263 9.28229 3.91184C9.28743 3.91105 9.29231 3.90909 9.29657 3.90611C9.30083 3.90313 9.30435 3.89921 9.30685 3.89465C9.30935 3.8901 9.31077 3.88502 9.31099 3.87983C9.36589 3.89203 9.40486 3.85917 9.44891 3.83444C9.62749 3.73281 9.80777 3.63627 9.9877 3.53735C9.9877 3.62746 9.99041 3.71791 9.99041 3.80836C9.99177 5.33207 9.99278 6.85578 9.99346 8.37949C9.4305 8.70673 8.86776 9.03419 8.30525 9.36188C8.25205 9.39338 8.19004 9.411 8.15615 9.46926Z" fill="#FE641B"/>
<path d="M9.99306 8.38083C9.99306 6.85712 9.99205 5.33341 9.99002 3.80969C9.99002 3.71959 9.99002 3.62914 9.9873 3.53869C9.98889 3.52988 9.99024 3.52108 9.99137 3.51227C10.214 3.39337 10.438 3.27514 10.6383 3.12067C10.9392 2.99093 11.2092 2.80495 11.4946 2.64642C11.7362 2.51295 11.9707 2.36627 12.2102 2.22941C12.5352 2.04377 12.8253 2.11728 13.015 2.44384C13.5274 3.3246 14.0365 4.20807 14.5423 5.09425C14.7182 5.40285 14.6511 5.69791 14.3573 5.86864C12.9205 6.70423 11.4815 7.53587 10.0402 8.36356C10.025 8.37078 10.0093 8.37657 9.99306 8.38083Z" fill="#E53950"/>
<path d="M9.99103 3.51251C9.99103 3.52132 9.98967 3.53013 9.98696 3.53894C9.80703 3.63785 9.62675 3.73575 9.44817 3.83602C9.40412 3.86075 9.36515 3.89361 9.31025 3.88142C9.33262 3.84314 9.35261 3.80316 9.37803 3.76658C9.73112 3.25404 9.63319 2.63074 9.13134 2.25811C8.804 2.01522 8.44277 1.98406 8.08086 2.1636C7.7115 2.34619 7.47498 2.64497 7.48074 3.06943C7.48955 3.68799 7.52818 4.30621 7.55393 4.92478C7.03819 5.22457 6.52922 5.53453 6.00059 5.81367C5.48145 5.47491 4.95825 5.14158 4.4154 4.84212C4.03723 4.63311 3.65906 4.67749 3.32324 4.94544C2.98743 5.2134 2.83935 5.56875 2.93457 5.99558C3.02979 6.42241 3.30393 6.6907 3.73327 6.80181C3.9149 6.84856 4.0911 6.81265 4.26935 6.79944C4.00469 7.00032 3.7048 7.14429 3.42219 7.31468C3.24869 7.41868 3.06876 7.51184 2.89187 7.61007C2.64789 7.42816 2.40866 7.24591 2.23313 6.98745C1.35683 5.69612 2.08674 3.95323 3.62449 3.68697C4.13278 3.59856 4.61092 3.71881 5.05076 3.98135C5.48146 4.23846 5.90673 4.50506 6.33539 4.76624C6.37164 4.78826 6.40858 4.83907 6.45399 4.81096C6.4994 4.78284 6.47432 4.72796 6.47296 4.68494C6.45873 4.19476 6.43637 3.70459 6.42756 3.21407C6.4079 2.07146 7.11782 1.19747 8.24758 1.02606C8.93242 0.922406 9.54102 1.12769 10.0246 1.64632C9.97781 1.68494 9.99069 1.73914 9.99069 1.78792C9.98933 2.3629 9.98945 2.93776 9.99103 3.51251Z" fill="#FDD745"/>
<path d="M10.0283 15.0521L9.9873 15.0182C9.9873 13.1713 9.98809 11.3244 9.98968 9.47754H11.584C11.584 11.3971 11.584 13.318 11.584 15.2401C11.584 15.5328 11.48 15.7123 11.2452 15.8038C10.9988 15.8993 10.7989 15.8149 10.6217 15.6344C10.4268 15.4338 10.2262 15.2448 10.0283 15.0521Z" fill="#FEB54C"/>
<path d="M9.98881 9.47583C9.98881 11.3227 9.98802 13.1696 9.98644 15.0165C9.7733 15.2258 9.55914 15.4338 9.34735 15.6445C9.17792 15.8139 8.98477 15.8928 8.75061 15.7946C8.51646 15.6964 8.42056 15.5144 8.4209 15.2597C8.42361 13.3322 8.42361 11.4048 8.4209 9.47753L9.98881 9.47583Z" fill="#FDD745"/>
<path d="M15.8439 7.88787C15.8409 7.75413 15.8909 7.62462 15.9829 7.52746C16.0749 7.43031 16.2015 7.37333 16.3352 7.3689C16.4706 7.36005 16.6065 7.36005 16.7419 7.3689C16.8747 7.38008 16.9086 7.3269 16.8991 7.20461C16.8928 7.08048 16.8928 6.95611 16.8991 6.83198C16.9069 6.53218 17.1197 6.31809 17.4104 6.31402C17.7012 6.30996 17.9299 6.51355 17.9485 6.80861C17.9562 6.94931 17.9562 7.09032 17.9485 7.23103C17.9438 7.33266 17.9736 7.37398 18.0807 7.36653C18.2162 7.35874 18.3518 7.36179 18.4873 7.36653C18.7832 7.37534 19.0021 7.59688 19.0031 7.88381C19.0038 8.02069 18.9515 8.15253 18.8571 8.25169C18.7627 8.35085 18.6336 8.40961 18.4968 8.41565C18.3508 8.4231 18.2037 8.42073 18.0563 8.41565C17.9753 8.41328 17.9465 8.44377 17.9492 8.52371C17.9533 8.65922 17.9526 8.79471 17.9492 8.93022C17.9418 9.23882 17.7076 9.47392 17.4152 9.46917C17.1227 9.46443 16.9069 9.23679 16.8964 8.93293C16.8899 8.76626 16.9692 8.55115 16.8625 8.4458C16.7629 8.34892 16.5507 8.4231 16.3881 8.41802C16.0716 8.40752 15.8432 8.18632 15.8439 7.88787Z" fill="#FEB54C"/>
<path d="M14.2225 7.36573C14.5045 7.36573 14.7478 7.60286 14.7522 7.87624C14.7569 8.16418 14.5048 8.41824 14.2141 8.41655C14.0746 8.41382 13.9417 8.35685 13.8435 8.25774C13.7454 8.15862 13.6898 8.02517 13.6885 7.88572C13.6912 7.74627 13.7488 7.61351 13.8488 7.51619C13.9487 7.41887 14.083 7.36482 14.2225 7.36573Z" fill="#FEB54C"/>
<path d="M15.8087 4.72394C15.8074 4.6547 15.8199 4.58589 15.8455 4.52155C15.8711 4.4572 15.9093 4.3986 15.9578 4.34917C16.0063 4.29975 16.0642 4.26049 16.1281 4.23369C16.192 4.2069 16.2606 4.1931 16.3299 4.19312C16.4691 4.19611 16.6018 4.25256 16.7006 4.35076C16.7993 4.44896 16.8565 4.58137 16.8602 4.72055C16.8558 4.85987 16.7992 4.99244 16.7015 5.09187C16.6037 5.19131 16.4722 5.25031 16.3329 5.25714C16.0561 5.2629 15.8087 5.0112 15.8087 4.72394Z" fill="#FEB54C"/>
<path d="M9.99079 3.51243C9.99079 2.93768 9.99023 2.36282 9.9891 1.78784C9.9891 1.73906 9.97554 1.68621 10.023 1.64624C10.4598 2.04089 10.6407 2.54258 10.6384 3.12083C10.4374 3.27666 10.2134 3.39353 9.99079 3.51243Z" fill="#FEB54C"/>
<path d="M4.2666 6.79908C4.27214 6.78657 4.28218 6.77659 4.29473 6.77113C4.30729 6.76567 4.32144 6.76513 4.33437 6.76961C4.32733 6.78075 4.31711 6.78952 4.30502 6.79477C4.29294 6.80003 4.27955 6.80153 4.2666 6.79908Z" fill="#FDD745"/>
<path d="M9.26758 3.91018L9.31163 3.88037C9.31126 3.88547 9.30973 3.89043 9.30717 3.89486C9.3046 3.89929 9.30107 3.90308 9.29683 3.90595C9.29259 3.90882 9.28776 3.91069 9.28269 3.91142C9.27762 3.91215 9.27246 3.91173 9.26758 3.91018Z" fill="#FDD745"/>
</g>
<defs>
<clipPath id="clip0_389_241">
<rect width="18" height="18" fill="white" transform="translate(1 1)"/>
</clipPath>
</defs>
</svg>
