<svg width="20" height="20" viewBox="0 0 20 20" fill="none" xmlns="http://www.w3.org/2000/svg">
<g clip-path="url(#clip0_389_244)">
<path d="M10.0531 17.9747C9.90722 18.0586 9.87296 17.913 9.81793 17.8472C8.58177 16.3619 7.34854 14.8741 6.11826 13.3839C4.46093 11.3849 2.80325 9.386 1.14523 7.38732C1.09332 7.32203 1.04971 7.24638 1.00195 7.17539L1.15768 7.16089C1.22673 7.16503 1.29525 7.17281 1.36533 7.17281C3.25176 7.17281 5.13784 7.17281 7.02358 7.17281L7.05473 7.23757C7.07705 7.3469 7.09314 7.4583 7.12325 7.56556C7.31221 8.24589 7.50947 8.92415 7.69427 9.60552C8.42759 12.2999 9.15936 14.9943 9.88957 17.6887C9.91604 17.7861 9.92591 17.8959 10.0308 17.9529L10.0531 17.9747Z" fill="#F5B82B"/>
<path d="M18.9983 7.17261C18.6557 7.67055 18.2462 8.11461 17.862 8.57887C15.3094 11.6639 12.7537 14.7463 10.1948 17.8258C10.1512 17.8776 10.1004 17.9253 10.0526 17.9745L10.0303 17.9502C10.3438 16.831 10.6574 15.7114 10.9709 14.5915C11.6596 12.1199 12.3479 9.64851 13.0359 7.17727L18.9983 7.17261Z" fill="#F5B82B"/>
<path d="M4.00977 2.04101C4.10528 1.98142 4.2117 2.00474 4.31344 2.00474C8.14341 2.00474 11.9732 2.00474 15.8028 2.00474C15.9066 2.00474 16.0105 1.98297 16.1075 2.03841L16.0193 2.16173C15.7916 2.11319 15.5589 2.09232 15.3263 2.09956C14.3919 2.10319 13.4606 2.09178 12.5278 2.1037C11.7434 2.11406 10.957 2.04567 10.1747 2.15552C10.0335 2.02598 9.99039 2.12339 9.95924 2.24775C9.90881 2.30615 9.862 2.36759 9.81908 2.4317C9.26848 3.35815 8.71806 4.28374 8.1678 5.20847C7.81377 5.80901 7.46753 6.41421 7.11817 7.01682L7.02318 7.13754C6.96726 7.07281 6.91526 7.00482 6.86744 6.93391C6.48227 6.28208 6.09899 5.62903 5.71762 4.97478C5.17827 4.04211 4.65034 3.10944 4.07621 2.19853L4.00977 2.04101Z" fill="#F5B82C"/>
<path d="M4.07641 2.20312C4.65054 3.11248 5.17847 4.0493 5.71782 4.97938C6.0985 5.6357 6.48177 6.28875 6.86764 6.93851C6.91546 7.00942 6.96746 7.07741 7.02337 7.14214C7.02337 7.15251 7.02337 7.16287 7.02337 7.17324C5.13764 7.17324 3.25155 7.17324 1.36512 7.17324C1.2966 7.17324 1.22808 7.16546 1.15748 7.16131C1.16088 7.12644 1.15716 7.09124 1.14654 7.05784C1.13592 7.02444 1.11863 6.99354 1.0957 6.96701C1.5982 6.10377 2.09758 5.23845 2.60526 4.37625C3.03353 3.65084 3.47113 2.92543 3.90303 2.20364L4.07641 2.20312Z" fill="#FEE076"/>
<path d="M16.0208 2.16165L16.1091 2.03833C16.1963 2.09015 16.229 2.18393 16.2752 2.26528C17.1493 3.81386 18.0228 5.36331 18.8956 6.91362C18.9413 6.99445 19.0109 7.06907 18.9994 7.1727L13.037 7.17632C12.9851 7.17218 12.915 7.19135 12.8839 7.13176C12.8527 7.07217 12.9108 7.04886 12.9482 7.01984C13.0827 7.15041 13.1304 7.04057 13.1917 6.93849C13.8266 5.87317 14.4671 4.81148 15.0994 3.74461C15.4103 3.2192 15.7509 2.71089 16.0208 2.16165Z" fill="#FEDE75"/>
<path d="M1.09689 6.96655C1.11982 6.99309 1.13711 7.02398 1.14773 7.05738C1.15835 7.09078 1.16207 7.12599 1.15867 7.16086L1.00294 7.17536C0.990478 7.08624 1.03927 7.02199 1.09689 6.96655Z" fill="#FEDE75"/>
<path d="M4.07704 2.20304H3.90625C3.9117 2.17021 3.92369 2.13879 3.94153 2.11067C3.95936 2.08254 3.98267 2.05828 4.01007 2.03931C4.03291 2.09423 4.05523 2.14708 4.07704 2.20304Z" fill="#FEDE75"/>
<path d="M12.8924 6.77269C12.855 6.80171 12.7974 6.82451 12.828 6.88462C12.8586 6.94472 12.9266 6.92503 12.9811 6.92918C12.2932 9.40007 11.6048 11.8711 10.9161 14.3424C10.6047 15.4626 10.2911 16.5822 9.97552 17.701C9.87169 17.644 9.86079 17.5342 9.83432 17.4368C9.10169 14.7424 8.36992 12.048 7.63902 9.35361C7.4537 8.67224 7.25644 7.99397 7.068 7.31364C7.03789 7.20638 7.0218 7.09498 7 6.98565C7.13497 6.94679 7.21958 6.89342 7.06385 6.76907C7.41321 6.16646 7.75945 5.56126 8.11348 4.96072C8.66062 4.03323 9.21087 3.10763 9.76424 2.18394C9.80717 2.11971 9.85416 2.05827 9.90492 2L10.1318 2.00777C10.3482 2.26685 10.4879 2.57774 10.6509 2.86946C11.3818 4.18194 12.1843 5.4483 12.8924 6.77269Z" fill="#FEE076"/>
<path d="M7.11798 7.0188C7.27371 7.14316 7.18909 7.19653 7.05413 7.23539C7.04323 7.21363 7.03284 7.19238 7.02246 7.17062C7.02246 7.16026 7.02246 7.1499 7.02246 7.13953L7.11798 7.0188Z" fill="#FEDE75"/>
<path d="M12.9469 7.02202C12.2388 5.6997 11.4363 4.43126 10.7049 3.12138C10.5419 2.82914 10.4022 2.52084 10.1858 2.25969C10.1816 2.22653 10.1775 2.19285 10.1738 2.15969C10.9561 2.0488 11.7426 2.1172 12.5269 2.10787C13.4613 2.09596 14.3926 2.10787 15.3254 2.10372C15.5586 2.09602 15.7918 2.11655 16.02 2.16487C15.7501 2.71411 15.4095 3.22242 15.0981 3.74783C14.4658 4.8147 13.8252 5.87639 13.1904 6.94171C13.1291 7.04067 13.0813 7.15052 12.9469 7.02202Z" fill="#F5B82B"/>
<path d="M10.1739 2.15749C10.1775 2.19065 10.1817 2.22433 10.1858 2.25749L9.95898 2.24972C9.98961 2.12536 10.0311 2.02795 10.1739 2.15749Z" fill="#FEDE75"/>
</g>
<defs>
<clipPath id="clip0_389_244">
<rect width="18" height="16" fill="white" transform="translate(1 2)"/>
</clipPath>
</defs>
</svg>
