<svg width="20" height="20" viewBox="0 0 20 20" fill="none" xmlns="http://www.w3.org/2000/svg">
<g clip-path="url(#clip0_389_238)">
<path d="M16.7488 6.37571C17.1601 6.8288 17.5529 7.29694 17.8594 7.83185C19.9367 11.4573 18.304 15.9979 14.3827 17.5139C13.4991 17.8551 12.5818 17.9886 11.6481 17.9922C8.29111 18.0057 4.93372 17.9975 1.57674 17.9971C1.47397 17.9982 1.37122 17.9932 1.26906 17.9821C1.10452 17.9625 1.00786 17.8632 1.00045 17.6995C0.993047 17.5359 1.07696 17.426 1.23821 17.3885C1.31873 17.3736 1.40071 17.3679 1.48255 17.3714C3.91496 17.3714 6.3471 17.3714 8.77896 17.3714H9.01919C8.71068 17.1724 8.39148 17.0104 8.09778 16.8052C7.84028 16.6253 7.58195 16.4457 7.35736 16.2271C7.2718 16.1457 7.17884 16.1457 7.07559 16.1457C5.62217 16.1457 4.16972 16.1457 2.71822 16.1457C2.64964 16.1496 2.58086 16.148 2.51255 16.1408C2.34143 16.1131 2.23901 16.0089 2.23942 15.8371C2.23942 15.6743 2.34102 15.5738 2.49939 15.5416C2.5741 15.5318 2.64961 15.5293 2.7248 15.5343H6.66013C6.45446 15.2493 6.21999 15.003 6.08919 14.7026C5.9411 14.3639 5.71322 14.2776 5.35494 14.298C4.76096 14.3309 4.16204 14.3077 3.56765 14.3061C3.31385 14.3061 3.17399 14.1909 3.17605 13.991C3.17605 13.7972 3.30686 13.6934 3.55819 13.6926C4.15422 13.6926 4.75108 13.6865 5.3463 13.6955C5.53058 13.6979 5.54703 13.647 5.49315 13.4842C4.60547 10.7938 5.14556 8.40543 7.13276 6.38223C8.27959 5.21512 9.72135 4.59106 11.3696 4.45306C11.934 4.40584 12.4909 4.44329 13.0479 4.51778C13.2536 4.54832 13.4485 4.62933 13.6591 4.62933C14.1495 4.79419 14.6406 4.95499 15.0989 5.19924C15.502 5.41459 15.8932 5.64703 16.2329 5.95642C16.2457 5.96822 16.272 5.96497 16.2917 5.96904L16.7488 6.37571ZM11.9216 16.1026C14.6986 16.1306 16.8989 13.9133 16.8989 11.2066C16.9026 8.54832 14.82 6.3061 11.943 6.27679C9.19689 6.2487 6.96288 8.46079 6.95342 11.1939C6.9456 13.8428 9.15287 16.1372 11.9216 16.1026Z" fill="#FAC02B"/>
<path d="M16.6732 5.47776C16.6111 5.42484 16.5498 5.37111 16.4868 5.31941C16.1927 5.07516 16.0438 4.77066 16.168 4.40144C16.2988 4.01308 16.5662 3.73952 16.9961 3.67194C17.1116 3.65311 17.23 3.66074 17.3421 3.69427C17.4542 3.72779 17.557 3.7863 17.6427 3.86531C18.0018 4.17876 18.3597 4.49384 18.7101 4.81666C19.0775 5.15495 19.0956 5.64467 18.7657 6.01634C18.3564 6.47715 17.8973 6.54351 17.4741 6.20115C17.3679 6.11566 17.2655 6.02611 17.1614 5.93858L16.6732 5.47776Z" fill="#FAC02B"/>
<path d="M13.1623 3.89791C13.0681 3.88082 12.9743 3.86413 12.8801 3.84621C12.5029 3.77457 12.224 3.56817 12.1595 3.18999C12.092 2.7935 12.1817 2.41857 12.533 2.15722C12.7358 2.0066 12.9665 1.96956 13.2137 2.0233C13.6662 2.12181 14.122 2.21259 14.5736 2.31802C15.1084 2.4434 15.3465 2.87003 15.2112 3.44198C15.0878 3.95775 14.6724 4.2191 14.1508 4.11407C14.0319 4.09006 13.9151 4.04039 13.7888 4.06034C13.595 3.9488 13.3668 3.96834 13.1623 3.89791Z" fill="#FAC02B"/>
<path d="M13.1621 3.89771C13.3678 3.96813 13.5948 3.94859 13.7886 4.06054C13.7666 4.25324 13.7238 4.44307 13.6611 4.62679C13.4505 4.62679 13.2551 4.54537 13.0498 4.51525C13.1016 4.31171 13.1876 4.11468 13.1621 3.89771Z" fill="#FAEE56"/>
<path d="M16.6731 5.47778L17.1601 5.93942L16.7487 6.37581L16.293 5.96873C16.4057 5.79327 16.6216 5.69883 16.6731 5.47778Z" fill="#FAEE56"/>
<path d="M11.9217 16.1026C9.15293 16.1381 6.94442 13.8437 6.95512 11.194C6.96458 8.46088 9.19859 6.24879 11.9447 6.27688C14.8217 6.30619 16.9043 8.5484 16.9006 11.2067C16.8969 13.9125 14.6987 16.1299 11.9217 16.1026ZM12.8238 10.2814C12.8493 10.1841 12.9122 10.1486 12.9583 10.1022C13.3252 9.73586 13.695 9.37397 14.0615 9.008C14.2166 8.85371 14.2433 8.67256 14.1335 8.53619C14.0434 8.42465 13.9134 8.40958 13.781 8.40958C13.1096 8.40958 12.4379 8.42221 11.7654 8.40429C11.4363 8.39534 11.2027 8.47309 11.1249 8.82074C11.1122 8.87854 11.0714 8.92984 11.0459 8.98357C10.7169 9.70452 10.3841 10.4246 10.0587 11.148C9.93037 11.433 10.0887 11.6544 10.4133 11.6589C10.5642 11.6614 10.7152 11.6646 10.8658 11.6589C11.0011 11.6528 11.0303 11.6838 10.9744 11.8185C10.7424 12.3672 10.5248 12.9217 10.2961 13.4717C10.2298 13.6308 10.2109 13.7762 10.3619 13.8922C10.4853 13.9874 10.6963 13.9585 10.8296 13.827C10.953 13.7049 11.0653 13.5645 11.1895 13.4391C12.0278 12.5921 12.8675 11.7464 13.7086 10.9022C13.8279 10.7825 13.9142 10.6579 13.8427 10.4882C13.7711 10.3184 13.6205 10.2818 13.4544 10.2805C13.2524 10.2814 13.0467 10.2814 12.8238 10.2814Z" fill="#FAEE56"/>
<path d="M12.8237 10.2812C13.0463 10.2812 13.2515 10.2812 13.4568 10.2812C13.6213 10.2812 13.7756 10.3219 13.8451 10.4888C13.9146 10.6557 13.8303 10.7831 13.711 10.9028C12.8694 11.7463 12.0297 12.592 11.1919 13.4398C11.0685 13.5652 10.9575 13.704 10.832 13.8277C10.6987 13.9592 10.4885 13.9881 10.3643 13.8929C10.2133 13.7768 10.2323 13.6315 10.2985 13.4723C10.5272 12.9224 10.7448 12.3679 10.9768 11.8192C11.034 11.6844 11.0035 11.6535 10.8682 11.6596C10.7181 11.6661 10.5671 11.6629 10.4157 11.6596C10.0912 11.6551 9.93281 11.4349 10.0611 11.1487C10.3853 10.4253 10.7193 9.70519 11.0484 8.98425C11.0739 8.92848 11.1146 8.87718 11.1273 8.82141C11.2051 8.47376 11.4375 8.39601 11.7678 8.40497C12.4387 8.42288 13.1104 8.41026 13.7834 8.41026C13.9158 8.41026 14.0458 8.42532 14.1359 8.53686C14.2457 8.67323 14.2182 8.85439 14.0639 9.00867C13.6974 9.37505 13.3276 9.73735 12.9607 10.1029C12.9122 10.1501 12.8492 10.1855 12.8237 10.2812Z" fill="#FAC02B"/>
</g>
<defs>
<clipPath id="clip0_389_238">
<rect width="18" height="16" fill="white" transform="translate(1 2)"/>
</clipPath>
</defs>
</svg>
