<svg width="20" height="20" viewBox="0 0 20 20" fill="none" xmlns="http://www.w3.org/2000/svg">
<g clip-path="url(#clip0_448_5649)">
<path d="M10.6935 5.92505C11.2105 6.85296 11.7271 7.78145 12.2433 8.71054C12.6951 9.52561 13.149 10.3393 13.5898 11.1611C13.6887 11.3456 13.7441 11.3878 13.9304 11.2498C15.7436 9.90363 17.5651 8.57034 19.3846 7.23305C19.4881 7.15674 19.59 7.07421 19.7299 7.10527C19.9623 7.15762 20.065 7.38568 19.9581 7.63992C19.7286 8.18477 19.4932 8.72696 19.2595 9.27048C18.7768 10.3981 18.2942 11.5255 17.8115 12.6527C17.7887 12.706 17.7587 12.7557 17.7321 12.8071L10.2066 12.812H9.80382C9.72648 12.812 9.64914 12.8085 9.57222 12.808C8.72694 12.8054 8.26458 12.0853 8.58198 11.2675C9.1369 9.84063 9.68633 8.41371 10.2442 6.99035C10.3849 6.63141 10.4931 6.25649 10.6935 5.92505Z" fill="#FEE078"/>
<path d="M10.6935 5.92512C10.4931 6.25656 10.3849 6.63148 10.2442 6.98998C9.68632 8.41378 9.13689 9.8407 8.58197 11.2658C8.26457 12.0836 8.72778 12.8037 9.57221 12.8063C9.64913 12.8063 9.72647 12.809 9.80381 12.8103C9.39386 12.9164 9.05152 13.1253 8.82795 13.5153L5.77017 13.522H5.45193H3.24154C2.7479 13.5761 2.47319 13.3254 2.27835 12.8565C1.56452 11.1429 0.823635 9.44226 0.0924743 7.73671C0.0502107 7.63688 -0.00895855 7.53882 -8.31889e-05 7.42346C0.0218939 7.14172 0.314358 7.01083 0.556952 7.18343C0.946622 7.46073 1.32995 7.74869 1.71582 8.03221C3.18406 9.11068 4.65188 10.1903 6.11927 11.2712C6.25451 11.3714 6.30565 11.3657 6.3906 11.2108C7.44043 9.29377 8.49463 7.3791 9.55319 5.46679C9.6056 5.37095 9.65547 5.27289 9.71422 5.18105C9.86636 4.94323 10.1436 4.93436 10.2877 5.17484C10.4319 5.41532 10.5595 5.67488 10.6935 5.92512Z" fill="#FFD05B"/>
<path d="M10.2061 12.8103L17.7315 12.8054C17.6026 13.2575 17.3604 13.5575 16.8651 13.5153C16.7333 13.5042 16.7645 13.6041 16.7645 13.6777C16.7645 14.0957 16.7645 14.5141 16.7671 14.9325C16.3402 14.9325 15.9138 14.9391 15.4873 14.9325C15.1949 14.928 14.9007 14.9631 14.6095 14.9098C14.9345 14.7554 15.0896 14.5198 15.0795 14.1973C15.0729 14.0336 15.013 13.8773 14.91 13.7543C14.8069 13.6313 14.6668 13.5491 14.513 13.5214C14.3592 13.4937 14.201 13.5221 14.0647 13.602C13.9285 13.6819 13.8224 13.8084 13.7642 13.9603C13.6188 14.3437 13.7828 14.7124 14.1869 14.9098C14.1061 14.9462 14.0203 14.9338 13.9367 14.9338H11.1938C11.4089 14.4258 11.4321 13.928 11.1304 13.443C10.9114 13.0916 10.5818 12.9137 10.2061 12.8103Z" fill="#FFD05B"/>
<path d="M17.3916 15.4213C17.5078 15.7936 17.3726 15.9981 17.0062 15.9981H3.00845C2.63442 15.9981 2.48311 15.7727 2.61329 15.4054C2.72106 15.1019 2.94675 14.9617 3.24259 14.9302H5.77841L6.71117 14.9368C6.71117 15.2873 6.80795 15.4182 7.08943 15.4191C7.80791 15.4191 8.52639 15.416 9.24487 15.4138C9.75204 15.7199 10.2592 15.7199 10.7664 15.4138L17.3916 15.4213Z" fill="#FFD05B"/>
<path d="M17.3915 15.4215L10.7637 15.4157C10.9299 15.2802 11.0751 15.1186 11.1943 14.9366H13.9372C14.0218 14.9366 14.1063 14.949 14.1874 14.9126C14.3256 14.9537 14.4719 14.9537 14.6101 14.9126C14.9013 14.9658 15.1954 14.9308 15.4879 14.9352C15.9143 14.9414 16.3408 14.9352 16.7676 14.9352C17.0656 14.9667 17.2934 15.1021 17.3915 15.4215Z" fill="#FEE078"/>
<path d="M5.44328 14.9321H3.24219V13.5203H5.45258C5.25351 13.6068 5.08066 13.7235 4.99106 13.9431C4.83088 14.3353 4.99444 14.6965 5.44328 14.9321Z" fill="#F5A75C"/>
<path d="M11.1944 14.9364C11.0752 15.1185 10.9299 15.2801 10.7638 15.4156C10.2566 15.7221 9.74943 15.7221 9.24227 15.4156C9.08051 15.2801 8.93929 15.1196 8.82344 14.9395C8.59479 14.4643 8.59733 13.9891 8.82682 13.5148C9.05039 13.1248 9.39273 12.9159 9.80269 12.8098H10.2055C10.5812 12.9132 10.9091 13.0911 11.1302 13.4452C11.4328 13.9306 11.4096 14.4284 11.1944 14.9364Z" fill="#F37F87"/>
<path d="M8.82786 13.5154C8.59837 13.9897 8.59583 14.4649 8.82406 14.9401H6.71087L5.77811 14.9334C6.05241 14.8105 6.25358 14.6228 6.28528 14.2905C6.3174 13.952 6.14919 13.7062 5.77051 13.5229L8.82786 13.5154Z" fill="#F5A75C"/>
<path d="M5.76974 13.522C6.15012 13.7052 6.31663 13.951 6.28451 14.2896C6.25366 14.6206 6.05249 14.8096 5.77735 14.9325H5.44262C4.99463 14.6964 4.83107 14.3353 4.98998 13.9461C5.07958 13.7265 5.25244 13.6098 5.4515 13.5233L5.76974 13.522Z" fill="#FFF3D4"/>
<path d="M14.6096 14.9107C14.4714 14.9519 14.3251 14.9519 14.187 14.9107C13.7825 14.7133 13.6185 14.3446 13.7643 13.9612C13.8225 13.8093 13.9286 13.6828 14.0648 13.6029C14.2011 13.523 14.3593 13.4946 14.5131 13.5223C14.6669 13.55 14.807 13.6322 14.9101 13.7552C15.0131 13.8782 15.073 14.0345 15.0796 14.1982C15.0897 14.523 14.9346 14.7563 14.6096 14.9107Z" fill="#FFF3D4"/>
<path d="M6.71094 14.9392H8.82412C8.94024 15.1192 9.08159 15.2797 9.24338 15.4153C8.52489 15.4153 7.80641 15.4224 7.08793 15.4206C6.80772 15.4206 6.71052 15.2897 6.71094 14.9392Z" fill="#FEE078"/>
</g>
<defs>
<clipPath id="clip0_448_5649">
<rect width="20" height="11" fill="white" transform="translate(0 5)"/>
</clipPath>
</defs>
</svg>
