<svg width="20" height="20" viewBox="0 0 20 20" fill="none" xmlns="http://www.w3.org/2000/svg">
<g clip-path="url(#clip0_389_247)">
<path d="M13.6447 6.20675C14.0837 6.32064 14.287 6.65634 14.4041 7.0687C14.4765 7.32401 14.5488 7.57969 14.611 7.83835C14.7101 8.2589 14.9463 8.57152 15.2956 8.80338C15.5488 8.97161 15.8059 9.13387 16.0446 9.32181C16.4887 9.67091 16.5911 10.0144 16.4218 10.5634C16.3361 10.8403 16.2301 11.1105 16.1253 11.3822C15.9585 11.8124 15.9665 12.2355 16.1253 12.6676C16.2533 13.0141 16.412 13.3494 16.4764 13.7197C16.5328 14.0454 16.4468 14.3175 16.2276 14.5538C16.0847 14.7075 15.9151 14.8247 15.7437 14.9405C15.5878 15.0458 15.4338 15.1545 15.2754 15.2553C14.9177 15.4827 14.704 15.8113 14.6005 16.2271C14.5282 16.5248 14.4522 16.8281 14.3499 17.1184C14.1615 17.6521 13.8765 17.8531 13.3289 17.8586C13.0758 17.8613 12.8226 17.8546 12.5695 17.8322C12.0968 17.7894 11.678 17.9011 11.3098 18.2211C11.0715 18.4284 10.835 18.6402 10.5695 18.8144C10.1829 19.0678 9.80355 19.0663 9.41803 18.8144C9.15257 18.6398 8.91677 18.4273 8.67772 18.2189C8.30956 17.8996 7.89004 17.7913 7.41736 17.8319C7.13522 17.8542 6.85217 17.862 6.56928 17.8549C6.14904 17.8467 5.85357 17.6368 5.68468 17.2371C5.55701 16.9346 5.48287 16.6145 5.40946 16.2963C5.30096 15.8322 5.0695 15.4701 4.6706 15.22C4.4442 15.0782 4.22215 14.9286 4.00696 14.7704C3.51475 14.4086 3.39396 14.0383 3.57949 13.4469C3.66448 13.1764 3.77008 12.9125 3.87134 12.6475C4.03409 12.2233 4.02432 11.8049 3.86701 11.3792C3.73898 11.0331 3.58021 10.6974 3.51403 10.3278C3.4558 10.0029 3.53971 9.72823 3.76032 9.49339C3.92053 9.32256 4.11112 9.1923 4.3028 9.06502C4.42938 8.98128 4.55596 8.89643 4.6829 8.81418C5.04636 8.57897 5.28469 8.25332 5.38703 7.81974C5.45213 7.54359 5.5317 7.27042 5.61235 6.99799C5.72735 6.60721 5.9447 6.31357 6.35012 6.20787C6.63065 6.17587 6.91367 6.174 7.19458 6.20229C7.42134 6.21978 7.65062 6.23541 7.8781 6.19782C8.16309 6.1874 8.3931 6.04412 8.60937 5.87255C8.85168 5.67976 9.08277 5.47172 9.33268 5.28824C9.78583 4.95328 10.2097 4.95775 10.6639 5.29122C10.8086 5.3984 10.9449 5.52271 11.0874 5.63622C11.3945 5.88073 11.6798 6.1673 12.0982 6.20043C12.1641 6.20526 12.2295 6.21234 12.2953 6.21494C12.7474 6.22834 13.1959 6.13232 13.6447 6.20675ZM13.653 15.0272C13.6784 15.0015 13.7025 14.9746 13.7253 14.9464C15.1358 13.0711 14.9846 10.3546 13.3561 8.65452C12.2841 7.53577 10.9692 7.0594 9.45021 7.22538C8.61845 7.31135 7.82791 7.64024 7.1718 8.1733L7.1302 8.21052L7.07198 8.25815C7.04541 8.27139 7.02 8.28695 6.99603 8.30468C5.91396 9.25148 5.34111 10.4554 5.30024 11.917C5.27528 12.8154 5.47709 13.6636 5.93096 14.4351C6.81159 15.9327 8.10703 16.7492 9.80608 16.8456C10.7329 16.9013 11.6534 16.6575 12.4389 16.1482C12.9091 15.8493 13.33 15.4928 13.6515 15.0272H13.653Z" fill="#30A2AA"/>
<path d="M13.6443 6.20668C13.1955 6.13225 12.7474 6.23013 12.2986 6.21338C12.2327 6.21078 12.1673 6.20371 12.1015 6.19887C12.1015 5.20294 12.1015 4.20689 12.1015 3.21071C12.1015 2.80877 12.0957 2.40683 12.0928 2.00488H12.1083H12.1242H16.3122C16.3147 2.95206 16.3158 3.89923 16.3223 4.8464C16.3223 4.96698 16.2413 4.98447 16.1675 5.01871C15.3897 5.38121 14.6117 5.74333 13.8334 6.10508C13.7687 6.13225 13.7072 6.16947 13.6443 6.20668Z" fill="#E8545D"/>
<path d="M7.88337 6.19446C7.65589 6.23168 7.4266 6.21642 7.19984 6.19893C6.91893 6.17063 6.63592 6.1725 6.35538 6.20451C5.82303 5.91682 5.26247 5.69166 4.71962 5.42667C4.41511 5.27781 4.10481 5.14122 3.79777 5.00016C3.72978 4.9689 3.67444 4.94099 3.67481 4.84348C3.68059 3.89631 3.68204 2.94877 3.68457 2.00122H7.86529H7.89422C7.88643 2.02449 7.88121 2.04858 7.87867 2.07305C7.87987 3.44735 7.88144 4.82115 7.88337 6.19446Z" fill="#E8545D"/>
<path d="M7.8674 1.00146L12.1031 1.00668C12.1147 1.33865 12.0731 1.67137 12.1252 2.0026H12.1092H12.0937H7.86523C7.88315 1.66916 7.88387 1.33498 7.8674 1.00146Z" fill="#C4C5C5"/>
<path d="M12.1246 2.00116C12.0725 1.66993 12.1141 1.33721 12.1025 1.00523C13.0407 1.003 13.9789 1.00077 14.9173 0.998535C15.3744 0.998535 15.8312 1.00151 16.2883 1.00337C16.2981 1.01416 16.3082 1.02496 16.318 1.03612L16.3125 1.99967L12.1246 2.00116Z" fill="#CC2837"/>
<path d="M7.86702 1.00146C7.88344 1.33449 7.88271 1.66817 7.86485 2.00111H3.68414L3.67871 1.03719L3.70837 1.00481L7.86702 1.00146Z" fill="#CC2837"/>
<path d="M3.70876 1.00477L3.6791 1.03715C3.67368 1.01147 3.68453 1.00142 3.70876 1.00477Z" fill="#E8545D"/>
<path d="M16.3187 1.03767C16.309 1.0265 16.2988 1.01571 16.2891 1.00491C16.3137 1.00194 16.3245 1.01161 16.3187 1.03767Z" fill="#E8545D"/>
<path d="M7.07357 8.25757L7.13179 8.20993C7.14201 8.21027 7.15198 8.20663 7.15969 8.19972C7.1674 8.19282 7.17229 8.18317 7.17338 8.17271C7.8295 7.63966 8.62004 7.31076 9.4518 7.2248C10.9707 7.05881 12.2846 7.53519 13.3577 8.65393C14.9851 10.354 15.137 13.0705 13.7269 14.9458C13.7041 14.974 13.68 15.0009 13.6546 15.0266C13.5797 15.0102 13.5316 15.0638 13.4738 15.0977C13.3237 15.1881 13.1783 15.2908 13.0202 15.3642C12.1251 15.7791 11.1964 15.9485 10.216 15.7735C9.32197 15.615 8.52271 15.2451 7.85836 14.6168C6.73108 13.5509 6.198 12.2249 6.30939 10.6391C6.36509 9.84748 6.58353 9.11319 7.00702 8.44589C7.04391 8.38857 7.07791 8.33051 7.07357 8.25757ZM10.003 9.07634C9.95559 9.16603 9.92593 9.21851 9.89953 9.27248C9.67494 9.73843 9.44746 10.2029 9.22975 10.6726C9.21006 10.7235 9.17673 10.7676 9.13364 10.7997C9.09055 10.8319 9.03947 10.8508 8.98635 10.8542C8.48004 10.9242 7.97372 11.0031 7.46741 11.0775C7.42184 11.0846 7.35638 11.063 7.33577 11.1125C7.309 11.1769 7.38025 11.2059 7.41533 11.2413C7.78735 11.6206 8.16106 11.9981 8.53646 12.3738C8.59541 12.4329 8.63447 12.4876 8.61783 12.5826C8.52633 13.1125 8.44026 13.6436 8.3531 14.1743C8.34333 14.2331 8.30174 14.3098 8.35527 14.3466C8.40879 14.3835 8.46593 14.3187 8.51765 14.2908C8.97116 14.0474 9.42504 13.807 9.8753 13.5554C9.91252 13.531 9.95575 13.518 9.99989 13.518C10.044 13.518 10.0873 13.531 10.1245 13.5554C10.4953 13.7613 10.8682 13.9631 11.2431 14.1606C11.3744 14.2298 11.4962 14.3239 11.6535 14.3582C11.657 14.3126 11.657 14.2668 11.6535 14.2212C11.566 13.6842 11.4803 13.1468 11.3848 12.6112C11.3743 12.567 11.3761 12.5206 11.3902 12.4774C11.4043 12.4343 11.43 12.3961 11.4644 12.3674C11.842 11.9953 12.217 11.6193 12.5895 11.2394C12.6278 11.2022 12.698 11.1761 12.6781 11.0905C12.1298 11.0109 11.5827 10.9275 11.034 10.8546C10.9013 10.8371 10.8214 10.7872 10.7617 10.6584C10.5209 10.1419 10.2684 9.6305 10.0026 9.07709L10.003 9.07634Z" fill="#EBECEC"/>
<path d="M7.89456 2.00122H12.0941C12.097 2.40316 12.1024 2.80511 12.1028 3.20705C12.1028 4.20298 12.1028 5.19903 12.1028 6.1952C11.6843 6.16208 11.399 5.87551 11.0919 5.631C10.9495 5.51934 10.8149 5.39318 10.6684 5.28599C10.2142 4.95104 9.79035 4.94806 9.3372 5.28302C9.08875 5.4665 8.85765 5.67454 8.61389 5.86732C8.3969 6.03889 8.16761 6.18218 7.88263 6.1926C7.88094 4.81929 7.87938 3.44599 7.87793 2.07268C7.88085 2.04829 7.88643 2.02432 7.89456 2.00122Z" fill="#EBECEC"/>
<path d="M7.07313 8.25757C7.07747 8.332 7.04348 8.38857 7.00659 8.44589C6.58309 9.11282 6.36465 9.84748 6.30896 10.6391C6.19757 12.2249 6.73065 13.5509 7.85792 14.6168C8.52228 15.2451 9.32153 15.615 10.2155 15.7735C11.196 15.9477 12.1247 15.7784 13.0198 15.3642C13.1778 15.2897 13.3232 15.1881 13.4733 15.0977C13.5297 15.0638 13.5778 15.0102 13.6541 15.0266C13.3312 15.4933 12.9102 15.8498 12.4415 16.1483C11.656 16.6576 10.7355 16.9015 9.80868 16.8458C8.10891 16.7494 6.81419 15.9328 5.93356 14.4352C5.47969 13.6637 5.27788 12.8155 5.30284 11.9171C5.3437 10.4556 5.91765 9.25164 6.99863 8.30483C7.02211 8.28693 7.04704 8.27111 7.07313 8.25757Z" fill="#C4C5C5"/>
<path d="M7.17343 8.17212C7.17234 8.18258 7.16745 8.19223 7.15973 8.19913C7.15202 8.20603 7.14205 8.20968 7.13184 8.20934L7.17343 8.17212Z" fill="#C4C5C5"/>
<path d="M10.0025 9.07715C10.2683 9.62908 10.5207 10.1419 10.762 10.6607C10.8216 10.7895 10.9016 10.8394 11.0343 10.8569C11.5829 10.9313 12.1301 11.0132 12.6784 11.0928C12.6979 11.1784 12.6281 11.2045 12.5898 11.2417C12.2165 11.6196 11.8415 11.9956 11.4647 12.3697C11.4303 12.3984 11.4046 12.4366 11.3905 12.4797C11.3764 12.5229 11.3745 12.5693 11.3851 12.6135C11.4806 13.1491 11.5659 13.6865 11.6538 14.2235C11.6573 14.2691 11.6573 14.3149 11.6538 14.3605C11.4965 14.3262 11.3746 14.2321 11.2433 14.1629C10.8684 13.9644 10.4956 13.7626 10.1247 13.5577C10.0875 13.5333 10.0443 13.5203 10.0001 13.5203C9.956 13.5203 9.91278 13.5333 9.87556 13.5577C9.4253 13.8074 8.97142 14.0497 8.51791 14.2931C8.46619 14.321 8.40688 14.3847 8.35553 14.3489C8.30417 14.3132 8.34359 14.2373 8.35336 14.1766C8.44051 13.6459 8.52659 13.1148 8.61809 12.5849C8.63472 12.4899 8.59566 12.436 8.53672 12.3761C8.16132 12.0002 7.78761 11.6227 7.41559 11.2435C7.37942 11.2063 7.30926 11.1792 7.33602 11.1148C7.35664 11.0653 7.4221 11.0869 7.46767 11.0798C7.97398 11.0054 8.4803 10.9265 8.98661 10.8565C9.03973 10.853 9.09081 10.8341 9.1339 10.802C9.17698 10.7698 9.21031 10.7258 9.23 10.6749C9.447 10.2056 9.6752 9.74073 9.89979 9.27477C9.92655 9.22118 9.95512 9.16684 10.0025 9.07715Z" fill="#30A2AA"/>
</g>
<defs>
<clipPath id="clip0_389_247">
<rect width="13" height="18" fill="white" transform="translate(3.5 1)"/>
</clipPath>
</defs>
</svg>
