<svg width="20" height="20" viewBox="0 0 20 20" fill="none" xmlns="http://www.w3.org/2000/svg">
<g clip-path="url(#clip0_389_250)">
<path d="M3.80014 18.9908C3.31872 18.9908 2.83731 18.9989 2.35626 18.9949C2.15971 18.9949 2.02892 18.8856 2.02968 18.7071C2.03456 17.8172 1.93572 16.9199 2.07402 16.0396C2.27133 14.7877 3.00229 13.9071 4.20152 13.4506C4.89979 13.1848 5.62361 12.9841 6.34367 12.7815C6.45642 12.9673 6.62328 13.1112 6.76496 13.2748C7.14078 13.7093 7.51659 14.145 7.91007 14.5661C7.98031 14.6414 8.06594 14.701 8.16125 14.741C8.25657 14.7809 8.35939 14.8004 8.4629 14.7981C8.75942 14.7981 9.01535 14.6557 9.28969 14.5751C9.52007 14.5055 9.75383 14.439 9.96241 14.3122H10.0274C10.0462 14.3275 10.0624 14.3494 10.0842 14.3576C10.466 14.4903 10.8414 14.6505 11.233 14.7438C11.5623 14.8223 11.8896 14.7661 12.1384 14.4836C12.4045 14.1821 12.6859 13.8941 12.9528 13.5915C13.1903 13.3238 13.4165 13.0465 13.648 12.7737C14.4466 12.9997 15.264 13.1911 16.0157 13.5335C17.1668 14.0539 17.817 14.9832 17.9534 16.2289C18.0402 17.024 17.9767 17.8273 17.9827 18.6239C17.9827 18.8819 17.853 18.9956 17.5982 18.9956C17.1288 18.9956 16.6587 18.9915 16.1901 18.9893C16.1901 18.4882 16.1911 17.9871 16.1931 17.486C16.1931 17.1028 16.1961 16.7192 16.1931 16.3337C16.1904 16.0995 16.0852 15.9761 15.9048 15.9791C15.7109 15.9824 15.6301 16.0716 15.6297 16.2947C15.6297 17.1913 15.6297 18.0881 15.6297 18.9852C15.5861 18.9874 15.5425 18.9908 15.4989 18.9908H4.49052C4.44692 18.9908 4.40333 18.9874 4.35974 18.9852C4.35974 18.102 4.35974 17.2186 4.35974 16.3352C4.36362 16.2798 4.36084 16.2241 4.35147 16.1694C4.3184 16.0367 4.22369 15.9835 4.0884 15.9791C3.9531 15.9746 3.86704 16.0307 3.8381 16.1534C3.81305 16.2613 3.80044 16.3717 3.80052 16.4824C3.79676 17.3228 3.79939 18.1566 3.80014 18.9908ZM6.55526 16.1002C6.24258 16.1002 5.92952 16.1002 5.61572 16.1002C5.38271 16.1002 5.30792 16.1679 5.30229 16.3943C5.2959 16.6418 5.29702 16.8898 5.30229 17.1377C5.30604 17.3236 5.40714 17.431 5.59166 17.4321C6.23631 17.4363 6.88084 17.4363 7.52523 17.4321C7.70149 17.4321 7.8056 17.3262 7.80973 17.1522C7.81649 16.8987 7.81649 16.6451 7.80973 16.3913C7.80372 16.1657 7.72893 16.1017 7.49254 16.101C7.18099 16.0991 6.86831 16.1002 6.55526 16.1002Z" fill="#FE4C4C"/>
<path d="M10.0268 14.3125H9.96175C9.78324 14.14 9.60548 13.9664 9.42584 13.7954C8.94981 13.3419 8.47277 12.8891 7.99473 12.4368C8.32996 12.2041 8.42279 11.8751 8.37882 11.4919C8.42504 11.251 8.32582 11.1253 8.09732 11.0135C7.45581 10.7005 6.96123 10.2168 6.58015 9.61689C6.33437 9.23067 6.18856 8.80579 6.0574 8.37384C5.95893 7.83224 5.97133 7.28506 5.97547 6.73826C6.00048 6.73619 6.02562 6.73619 6.05063 6.73826C6.74777 6.86836 7.44115 6.83304 8.13528 6.70852C9.02108 6.54942 9.85502 6.2394 10.6578 5.84426C11.2741 5.54247 11.8618 5.18667 12.414 4.78113C12.5226 4.70121 12.5846 4.68151 12.6394 4.83168C12.677 4.93391 12.7184 5.04096 12.8082 5.11642L12.8112 5.12721L12.8461 5.18631C12.8619 5.26065 12.913 5.3153 12.9589 5.37217C13.2407 5.72791 13.6072 5.97139 14.0198 6.15279C13.9946 6.89289 14.0664 7.63671 13.9394 8.3731C13.8055 8.84753 13.6117 9.30339 13.3625 9.72989L12.0148 9.96929C11.8393 9.8113 11.6356 9.77264 11.4064 9.8206C11.1501 9.87264 10.8911 9.91278 10.6345 9.96334C10.3361 10.0217 10.1421 10.2808 10.1887 10.5499C10.2429 10.8622 10.5108 11.0499 10.8325 10.996C11.0847 10.9547 11.335 10.8997 11.5883 10.8689C11.8416 10.838 12.0178 10.7202 12.1268 10.4945L12.7424 10.4094C12.5005 10.6745 12.205 10.8864 11.875 11.0313C11.6548 11.1298 11.5714 11.2543 11.6146 11.4774C11.568 11.8614 11.648 12.1963 11.9904 12.4286C11.9528 12.4691 11.9152 12.5119 11.8777 12.5502L10.0268 14.3125Z" fill="#FDD8A7"/>
<path d="M12.8079 5.11791C12.7181 5.04357 12.6764 4.93539 12.6392 4.83317C12.5847 4.68448 12.5227 4.7027 12.4137 4.78262C11.8616 5.18816 11.2738 5.54396 10.6575 5.84575C9.85478 6.24089 9.02084 6.55202 8.13504 6.71C7.44166 6.83453 6.74753 6.86985 6.05039 6.73974C6.02538 6.73768 6.00023 6.73768 5.97522 6.73974C5.75462 6.67729 5.53326 6.61633 5.31341 6.55128C5.07928 6.48251 4.84853 6.40779 4.8846 6.09108C4.88836 5.49632 4.89588 4.90157 5.068 4.32762C5.49681 2.89537 6.41455 1.89618 7.80921 1.32855C8.17121 1.17516 8.55634 1.08196 8.94906 1.05273C9.07533 1.07876 9.20273 1.09957 9.32675 1.13191C10.8496 1.53189 11.9323 2.43852 12.5328 3.8849C12.6967 4.27633 12.8358 4.67928 12.8079 5.11791Z" fill="#FC9727"/>
<path d="M12.8073 5.1179C12.8352 4.68075 12.6946 4.27631 12.533 3.88377C11.9317 2.43739 10.8497 1.53076 9.32692 1.13078C9.2029 1.09844 9.07549 1.07763 8.94922 1.05161C9.00219 1.03431 9.05686 1.0226 9.11232 1.01666C9.6441 1.01443 10.1796 0.975403 10.7069 1.0241C11.8389 1.12893 12.8235 1.57685 13.6131 2.39948C14.4775 3.3024 14.9172 4.37371 14.8909 5.62419C14.8882 5.75987 14.8988 5.89555 14.9029 6.03308C14.8941 6.10013 14.89 6.16769 14.8905 6.2353C14.898 6.35314 14.874 6.40109 14.7338 6.37247C14.4897 6.32193 14.2507 6.24977 14.0197 6.15687C13.6063 5.97435 13.2407 5.73087 12.9588 5.37625C12.913 5.31826 12.8618 5.26473 12.8461 5.19038L12.8111 5.13128L12.8073 5.1179Z" fill="#FE4C4C"/>
<path d="M6.05761 8.37396C6.18877 8.80591 6.33458 9.22893 6.58036 9.61701C6.96144 10.217 7.45601 10.7006 8.09753 11.0136C8.32603 11.1251 8.42525 11.2511 8.37902 11.492C8.17721 11.4875 7.99569 11.3983 7.80327 11.3533C7.21399 11.2154 6.62697 11.0678 6.03919 10.924C5.28342 10.7381 4.89972 10.2575 4.89746 9.4843C4.89746 9.10737 4.90197 8.73044 4.90422 8.35352C5.28793 8.40333 5.67315 8.37508 6.05761 8.37396Z" fill="#FC9727"/>
<path d="M14.0191 6.1565C14.2501 6.2494 14.4891 6.32156 14.7332 6.3721C14.8733 6.40072 14.8974 6.35277 14.8899 6.23493C14.8893 6.16732 14.8935 6.09976 14.9023 6.03271C15.2243 6.08401 15.3938 6.26653 15.3972 6.58064C15.4017 6.97652 15.3995 7.37241 15.3972 7.76792C15.3972 8.14782 15.2706 8.30246 14.894 8.39019C14.7313 8.34298 14.6584 8.39762 14.6794 8.5701C14.6837 8.63794 14.6837 8.70597 14.6794 8.77381C14.6749 9.60944 14.1796 10.1741 13.3453 10.3012C13.1419 10.3321 12.9409 10.3756 12.7391 10.4127L12.1235 10.4979C12.1563 10.3148 12.1159 10.1263 12.0107 9.97225L13.3588 9.73285C13.8098 9.66446 14.107 9.33771 14.1209 8.89053C14.1243 8.77901 14.1116 8.6675 14.1251 8.55598C14.1439 8.40208 14.0755 8.35599 13.9353 8.3742C14.0661 7.64042 13.9943 6.8966 14.0191 6.1565Z" fill="#416786"/>
<path d="M7.99546 12.4368C8.47275 12.8896 8.94979 13.3425 9.42657 13.7955C9.60621 13.9665 9.78397 14.14 9.96249 14.3125C9.75391 14.4393 9.52015 14.5058 9.28977 14.5753C9.01731 14.6575 8.76138 14.7984 8.46298 14.7984C8.35947 14.8007 8.25664 14.7812 8.16133 14.7412C8.06602 14.7012 7.98039 14.6417 7.91015 14.5664C7.51817 14.1453 7.14198 13.7115 6.76504 13.275C6.62336 13.1115 6.45687 12.9684 6.34375 12.7818C6.78345 12.6403 7.22341 12.4989 7.66362 12.3576C7.79027 12.3193 7.89361 12.3784 7.99546 12.4368Z" fill="#D4165A"/>
<path d="M10.0273 14.3126L11.8782 12.5543C11.9185 12.5171 11.9534 12.4733 11.991 12.4328C12.0404 12.39 12.1005 12.3612 12.165 12.3493C12.2296 12.3375 12.2962 12.3431 12.3578 12.3655C12.7885 12.4993 13.2173 12.6391 13.6472 12.7766C13.4157 13.0498 13.1895 13.3271 12.9519 13.5944C12.6851 13.8955 12.4036 14.1836 12.1376 14.4865C11.8888 14.7676 11.5614 14.8237 11.2322 14.7467C10.8406 14.6534 10.4652 14.4932 10.0833 14.3605C10.0623 14.3505 10.0461 14.3278 10.0273 14.3126Z" fill="#D4165A"/>
<path d="M6.05795 8.37396C5.67349 8.37396 5.28828 8.40333 4.90457 8.35352C4.67081 8.21821 4.57949 8.01897 4.58738 7.75058C4.59903 7.36213 4.59001 6.97368 4.59076 6.58485C4.59076 6.36182 4.67645 6.19083 4.8854 6.09009C4.84782 6.4068 5.08008 6.48151 5.31421 6.55028C5.53406 6.61533 5.75542 6.6763 5.97602 6.73875C5.97189 7.28518 5.95949 7.83236 6.05795 8.37396Z" fill="#416786"/>
<path d="M12.7408 10.4135C12.9427 10.3764 13.1437 10.3321 13.347 10.302C14.1814 10.1749 14.6767 9.61023 14.6812 8.7746C14.6855 8.70676 14.6855 8.63872 14.6812 8.57089C14.6601 8.39841 14.733 8.34376 14.8958 8.39097C14.8958 8.79318 14.9014 9.19502 14.8958 9.59685C14.8864 10.2318 14.5301 10.7187 13.913 10.8904C13.1512 11.1023 12.3812 11.2863 11.6145 11.4822C11.5713 11.2592 11.6547 11.1347 11.875 11.0362C12.2045 10.8908 12.4995 10.6787 12.7408 10.4135Z" fill="#FE4C4C"/>
<path d="M15.6289 18.9908C15.6289 18.094 15.6289 17.1971 15.6289 16.3003C15.6289 16.0772 15.7101 15.988 15.904 15.9847C16.0844 15.9817 16.1896 16.1051 16.1923 16.3393C16.196 16.7229 16.1923 17.1065 16.1923 17.4916C16.1923 17.9927 16.1913 18.4938 16.1892 18.9949L15.6289 18.9908Z" fill="#D4165A"/>
<path d="M3.8 18.9906C3.8 18.1565 3.79737 17.3227 3.8 16.4886C3.79992 16.3779 3.81252 16.2675 3.83758 16.1596C3.86652 16.0369 3.95709 15.9819 4.08787 15.9853C4.21866 15.9886 4.3175 16.0429 4.35095 16.1756C4.36032 16.2303 4.36309 16.286 4.35921 16.3414C4.35921 17.2246 4.35921 18.1079 4.35921 18.9914L3.8 18.9906Z" fill="#D4165A"/>
<path d="M6.5556 16.1002C6.86865 16.1002 7.18133 16.1002 7.49514 16.1002C7.73153 16.1002 7.80631 16.1649 7.81232 16.3905C7.81909 16.644 7.81909 16.8977 7.81232 17.1514C7.80819 17.3254 7.70409 17.4298 7.52783 17.4313C6.88318 17.4355 6.23866 17.4355 5.59426 17.4313C5.40973 17.4313 5.30864 17.3232 5.30488 17.1369C5.29999 16.8897 5.29887 16.6418 5.30488 16.3935C5.31052 16.1671 5.3853 16.1006 5.61831 16.0994C5.92986 16.0991 6.24292 16.1002 6.5556 16.1002Z" fill="#FC9727"/>
<path d="M12.0149 9.97298C12.12 10.1271 12.1604 10.3156 12.1276 10.4986C12.0186 10.7216 11.8416 10.8421 11.5891 10.8729C11.3365 10.9038 11.0855 10.9588 10.8333 11.0001C10.5116 11.0525 10.2436 10.8648 10.1895 10.554C10.1429 10.2849 10.3368 10.0258 10.6352 9.96741C10.8919 9.91685 11.1509 9.87671 11.4072 9.82467C11.6357 9.77634 11.8397 9.815 12.0149 9.97298Z" fill="#D4165A"/>
<path d="M13.9388 8.3768C14.079 8.35859 14.1474 8.40468 14.1286 8.55857C14.1151 8.67009 14.1286 8.78161 14.1245 8.89313C14.1106 9.3392 13.814 9.66706 13.3623 9.73545C13.6113 9.30828 13.805 8.85181 13.9388 8.3768Z" fill="#FE4C4C"/>
</g>
<defs>
<clipPath id="clip0_389_250">
<rect width="16" height="18" fill="white" transform="translate(2 1)"/>
</clipPath>
</defs>
</svg>
