<svg width="20" height="20" viewBox="0 0 20 20" fill="none" xmlns="http://www.w3.org/2000/svg">
<mask id="mask0_1704_12761" style="mask-type:alpha" maskUnits="userSpaceOnUse" x="0" y="0" width="20" height="20">
<rect width="20" height="20" fill="#EFEDED"/>
</mask>
<g mask="url(#mask0_1704_12761)">
<path d="M5.0026 17.5C4.53247 17.5 4.13719 17.3397 3.81677 17.0192C3.49622 16.6987 3.33594 16.3035 3.33594 15.8333V14.8719C3.33594 14.5016 3.46774 14.1847 3.73135 13.921C3.99497 13.6574 4.31191 13.5256 4.68219 13.5256H5.83594V3.84625C5.83594 3.47597 5.96774 3.15903 6.23135 2.89542C6.49497 2.63181 6.81191 2.5 7.18219 2.5H15.323C15.6933 2.5 16.0102 2.63181 16.2739 2.89542C16.5375 3.15903 16.6693 3.47597 16.6693 3.84625V15.8333C16.6693 16.3035 16.509 16.6987 16.1884 17.0192C15.868 17.3397 15.4727 17.5 15.0026 17.5H5.0026ZM15.0026 16.6667C15.2387 16.6667 15.4366 16.5868 15.5964 16.4271C15.7561 16.2674 15.8359 16.0694 15.8359 15.8333V3.84625C15.8359 3.69667 15.7879 3.57375 15.6918 3.4775C15.5955 3.38139 15.4726 3.33333 15.323 3.33333H7.18219C7.0326 3.33333 6.90969 3.38139 6.81344 3.4775C6.71733 3.57375 6.66927 3.69667 6.66927 3.84625V13.5256H12.823C13.1933 13.5256 13.5102 13.6574 13.7739 13.921C14.0375 14.1847 14.1693 14.5016 14.1693 14.8719V15.8333C14.1693 16.0694 14.2491 16.2674 14.4089 16.4271C14.5686 16.5868 14.7665 16.6667 15.0026 16.6667ZM8.23969 6.98708C8.12163 6.98708 8.02267 6.94715 7.94281 6.86729C7.86295 6.78729 7.82302 6.68819 7.82302 6.57C7.82302 6.45181 7.86295 6.35292 7.94281 6.27333C8.02267 6.19361 8.12163 6.15375 8.23969 6.15375H14.2655C14.3836 6.15375 14.4825 6.19375 14.5624 6.27375C14.6423 6.35375 14.6822 6.45285 14.6822 6.57104C14.6822 6.68924 14.6423 6.78813 14.5624 6.86771C14.4825 6.94729 14.3836 6.98708 14.2655 6.98708H8.23969ZM8.23969 9.29479C8.12163 9.29479 8.02267 9.25486 7.94281 9.175C7.86295 9.095 7.82302 8.9959 7.82302 8.87771C7.82302 8.75951 7.86295 8.66056 7.94281 8.58083C8.02267 8.50125 8.12163 8.46146 8.23969 8.46146H14.2655C14.3836 8.46146 14.4825 8.50146 14.5624 8.58146C14.6423 8.66146 14.6822 8.76056 14.6822 8.87875C14.6822 8.99694 14.6423 9.09583 14.5624 9.17542C14.4825 9.255 14.3836 9.29479 14.2655 9.29479H8.23969ZM5.0026 16.6667H13.3359V14.8719C13.3359 14.7223 13.2879 14.5994 13.1918 14.5031C13.0955 14.407 12.9726 14.359 12.823 14.359H4.68219C4.5326 14.359 4.40969 14.407 4.31344 14.5031C4.21733 14.5994 4.16927 14.7223 4.16927 14.8719V15.8333C4.16927 16.0694 4.24913 16.2674 4.40885 16.4271C4.56858 16.5868 4.76649 16.6667 5.0026 16.6667ZM5.0026 16.6667H4.16927H13.3359H5.0026Z" fill="#EFEDED"/>
</g>
</svg>
