<svg width="24" height="24" viewBox="0 0 24 24" fill="none" xmlns="http://www.w3.org/2000/svg">
<rect width="24" height="24" rx="12" fill="#54C339"/>
<mask id="mask0_341_342" style="mask-type:alpha" maskUnits="userSpaceOnUse" x="4" y="4" width="16" height="16">
<rect x="4" y="4" width="16" height="16" fill="#D9D9D9"/>
</mask>
<g mask="url(#mask0_341_342)">
<path d="M11.9998 17.3333C12.8332 17.3333 13.5415 17.0416 14.1248 16.4583C14.7082 15.8749 14.9998 15.1666 14.9998 14.3333C14.9998 13.4999 14.7082 12.7916 14.1248 12.2083C13.5415 11.6249 12.8332 11.3333 11.9998 11.3333C11.1665 11.3333 10.4582 11.6249 9.87484 12.2083C9.2915 12.7916 8.99984 13.4999 8.99984 14.3333C8.99984 15.1666 9.2915 15.8749 9.87484 16.4583C10.4582 17.0416 11.1665 17.3333 11.9998 17.3333ZM10.0627 10.8448C10.2806 10.714 10.5124 10.6093 10.7582 10.5308C11.0039 10.4521 11.2546 10.3974 11.5102 10.3666L9.91017 7.17944H8.2435L10.0627 10.8448ZM13.937 10.8448L15.7728 7.17944H14.0895L12.6537 10.0384L12.8485 10.4281C13.0425 10.4726 13.2299 10.5273 13.4107 10.5923C13.5914 10.6573 13.7669 10.7414 13.937 10.8448ZM8.54217 16.5781C8.45162 16.3799 8.38667 16.1652 8.34734 15.9339C8.308 15.7027 8.30117 15.4619 8.32684 15.2116C8.22428 14.8457 8.17661 14.4735 8.18384 14.0949C8.19106 13.7163 8.25278 13.3444 8.369 12.9794C8.369 12.8128 8.39789 12.6547 8.45567 12.5051C8.51334 12.3556 8.59345 12.2209 8.696 12.1013C8.38323 12.1927 8.12173 12.3587 7.9115 12.5993C7.70117 12.8398 7.58323 13.1208 7.55767 13.4421C7.30978 13.7636 7.19156 14.1322 7.203 14.5479C7.21456 14.9637 7.36389 15.3434 7.651 15.6871C7.651 15.935 7.73756 16.1454 7.91067 16.3184C8.08378 16.4916 8.29428 16.5781 8.54217 16.5781ZM15.4575 16.5781C15.9925 16.4824 16.4389 16.2267 16.7967 15.8108C17.1543 15.395 17.3332 14.9025 17.3332 14.3333C17.3332 13.7641 17.1543 13.2716 16.7967 12.8558C16.4389 12.4399 15.9925 12.1841 15.4575 12.0884C15.4318 12.0884 15.4062 12.0895 15.3805 12.0916C15.3549 12.0937 15.3293 12.0969 15.3037 12.1013C15.5224 12.4192 15.6932 12.7674 15.8158 13.1461C15.9385 13.5248 15.9998 13.9205 15.9998 14.3333C15.9998 14.7461 15.9385 15.1418 15.8158 15.5204C15.6932 15.8991 15.5224 16.2474 15.3037 16.5653C15.3293 16.5696 15.3549 16.5728 15.3805 16.5749C15.4062 16.5771 15.4318 16.5781 15.4575 16.5781ZM11.9998 18.3333C11.5639 18.3333 11.1496 18.2683 10.7568 18.1384C10.3642 18.0084 10.0042 17.8259 9.67684 17.5909C9.56828 17.6217 9.4565 17.642 9.3415 17.6518C9.2265 17.6617 9.10706 17.6666 8.98317 17.6666C8.06606 17.6666 7.284 17.3431 6.637 16.6961C5.99 16.0491 5.6665 15.2671 5.6665 14.3499C5.6665 13.4602 5.9695 12.6986 6.5755 12.0653C7.1815 11.4319 7.9225 11.0914 8.7985 11.0436C8.8455 11.0436 8.89039 11.0468 8.93317 11.0531C8.97595 11.0596 9.01867 11.0671 9.06134 11.0756L6.61534 6.17944H10.5383L11.9998 9.10261L13.4613 6.17944H17.3843L14.9613 11.0359C14.9998 11.0274 15.0393 11.0209 15.08 11.0166C15.1206 11.0124 15.1622 11.0103 15.205 11.0103C16.0853 11.0649 16.8268 11.4089 17.4293 12.0423C18.0319 12.6756 18.3332 13.4393 18.3332 14.3333C18.3332 15.2615 18.0097 16.0491 17.3627 16.6961C16.7157 17.3431 15.9281 17.6666 14.9998 17.6666C14.8827 17.6666 14.7661 17.6617 14.6498 17.6518C14.5336 17.642 14.4212 17.6217 14.3127 17.5909C13.9853 17.8217 13.627 18.0031 13.2377 18.1351C12.8483 18.2672 12.4357 18.3333 11.9998 18.3333ZM10.8627 16.0128L11.2908 14.6114L10.1537 13.7986H11.555L11.9998 12.3204L12.4447 13.7986H13.846L12.7088 14.6114L13.137 16.0128L11.9998 15.1499L10.8627 16.0128Z" fill="white"/>
</g>
</svg>
