<svg width="24" height="24" viewBox="0 0 24 24" fill="none" xmlns="http://www.w3.org/2000/svg">
<rect width="24" height="24" rx="12" fill="#54A3D0"/>
<mask id="mask0_341_341" style="mask-type:alpha" maskUnits="userSpaceOnUse" x="4" y="4" width="16" height="16">
<rect x="4" y="4" width="16" height="16" fill="#D9D9D9"/>
</mask>
<g mask="url(#mask0_341_341)">
<path d="M5.6665 18.7435V17.7435H18.3332V18.7435H5.6665ZM6.99984 17V13.4358C6.62462 12.7547 6.33806 12.0695 6.14017 11.3802C5.94239 10.6908 5.8435 10.0133 5.8435 9.3475C5.8435 8.74661 5.92 8.14083 6.073 7.53017C6.226 6.9195 6.42984 6.26972 6.6845 5.58083C6.74773 5.40728 6.85156 5.26711 6.996 5.16033C7.14045 5.05344 7.30495 5 7.4895 5C7.73573 5 7.94473 5.08783 8.1165 5.2635C8.28828 5.43917 8.35834 5.64533 8.32667 5.882L8.14984 7.32817C8.08317 7.88717 8.14211 8.42694 8.32667 8.9475C8.51134 9.46794 8.78295 9.92906 9.1415 10.3308C9.50006 10.7325 9.92634 11.0556 10.4203 11.3C10.9143 11.5444 11.4408 11.6667 11.9998 11.6667C12.6793 11.6667 13.3284 11.7254 13.9473 11.843C14.5661 11.9606 15.0998 12.13 15.5485 12.3513C16.0101 12.5812 16.3673 12.8752 16.6203 13.2333C16.8733 13.5914 16.9998 14.0359 16.9998 14.5667V17H6.99984ZM7.99984 16H15.9998V14.5667C15.9998 14.2787 15.9268 14.0254 15.7807 13.807C15.6344 13.5887 15.422 13.4119 15.1433 13.2768C14.7349 13.0803 14.2499 12.9294 13.6883 12.8243C13.1268 12.7192 12.5639 12.6667 11.9998 12.6667C11.2922 12.6667 10.6266 12.5124 10.003 12.2038C9.37956 11.8953 8.84412 11.4861 8.39667 10.9763C7.94923 10.4664 7.61117 9.88311 7.3825 9.22633C7.15384 8.56944 7.08184 7.894 7.1665 7.2C7.05539 7.53333 6.97484 7.88461 6.92484 8.25383C6.87484 8.62306 6.84984 8.98761 6.84984 9.3475C6.84984 9.95339 6.95623 10.5686 7.169 11.193C7.38189 11.8173 7.65884 12.4727 7.99984 13.159V16ZM11.9998 10.8462C11.3563 10.8462 10.8065 10.6182 10.3505 10.1622C9.8945 9.70617 9.6665 9.15639 9.6665 8.51283C9.6665 7.86928 9.8945 7.3195 10.3505 6.8635C10.8065 6.4075 11.3563 6.1795 11.9998 6.1795C12.6434 6.1795 13.1932 6.4075 13.6492 6.8635C14.1052 7.3195 14.3332 7.86928 14.3332 8.51283C14.3332 9.15639 14.1052 9.70617 13.6492 10.1622C13.1932 10.6182 12.6434 10.8462 11.9998 10.8462ZM11.9998 9.84617C12.3665 9.84617 12.6804 9.71561 12.9415 9.4545C13.2026 9.19339 13.3332 8.8795 13.3332 8.51283C13.3332 8.14617 13.2026 7.83228 12.9415 7.57117C12.6804 7.31006 12.3665 7.1795 11.9998 7.1795C11.6332 7.1795 11.3193 7.31006 11.0582 7.57117C10.7971 7.83228 10.6665 8.14617 10.6665 8.51283C10.6665 8.8795 10.7971 9.19339 11.0582 9.4545C11.3193 9.71561 11.6332 9.84617 11.9998 9.84617ZM9.51267 17V16.5563C9.51267 15.8718 9.75178 15.2874 10.23 14.8032C10.7082 14.3191 11.2896 14.077 11.9742 14.077H14.4357V15.0768H11.9742C11.5622 15.0768 11.2156 15.2215 10.9345 15.5108C10.6533 15.8002 10.5127 16.1487 10.5127 16.5563V17H9.51267Z" fill="white"/>
</g>
</svg>
