<svg width="169" height="131" viewBox="0 0 169 131" fill="none" xmlns="http://www.w3.org/2000/svg">
<g clip-path="url(#clip0_418_118)">
<path d="M0 64.5147L0.221249 64.6797C1.33072 62.2113 3.46053 62.1222 5.76203 62.1717C9.77396 62.2575 13.7925 62.1156 17.8044 62.2377C19.2738 62.2806 19.6502 61.7691 19.7625 60.4227C21.0206 45.1998 26.9576 32.013 37.3193 20.8227C58.4521 -2.01325 93.4798 -6.66293 119.83 9.82056C122.3 11.365 122.901 13.6848 121.283 15.3777C120.451 16.2456 119.394 16.3678 118.265 16.4371C101.837 17.3875 88.0084 23.8719 76.9367 36.0489C70.5011 43.1241 66.1689 51.3741 63.6693 60.6108C63.283 62.0331 63.6693 62.2311 64.9703 62.2146C69.6459 62.1552 74.3216 62.2146 78.9972 62.1816C80.5657 62.1816 81.8138 62.6436 82.5138 64.1154C83.2139 65.5872 82.6955 66.8709 81.685 68.0358C69.5777 81.9904 57.4792 95.9483 45.3894 109.909C43.6592 111.889 41.6779 111.922 39.8816 109.966C27.0985 96.0242 14.3307 82.074 1.57837 68.115C1.06656 67.554 0.660396 66.9006 0.201418 66.2967C0.162595 66.307 0.127267 66.3275 0.0990763 66.3561C0.0645699 66.3986 0.0336356 66.4438 0.00661046 66.4914L0 64.5147Z" fill="#54C339"/>
<path d="M168.997 66.4949L168.776 66.3332C167.686 68.8148 165.573 68.9171 163.261 68.861C159.249 68.7686 155.231 68.9072 151.219 68.8016C149.792 68.762 149.34 69.1976 149.238 70.5968C147.98 85.8197 142.023 98.9768 131.671 110.197C110.538 133.056 75.2728 137.692 49.0251 121.087C46.6807 119.602 46.1359 117.275 47.7374 115.619C48.5232 114.807 49.5105 114.629 50.5903 114.579C61.8171 114.018 72.1854 110.708 81.4541 104.293C93.4404 95.9936 101.329 84.7439 105.229 70.7123C105.75 68.8445 105.717 68.8345 103.825 68.8345C99.2619 68.8345 94.6985 68.8081 90.1318 68.8345C88.5138 68.8345 87.1831 68.4419 86.4699 66.8777C85.7566 65.3135 86.3972 64.0331 87.4374 62.8319C99.4655 48.9587 111.486 35.0811 123.499 21.1991C125.301 19.1168 127.263 19.0574 129.112 21.0737C141.891 35.0129 154.659 48.9609 167.415 62.9177C167.927 63.4754 168.346 64.1156 168.812 64.7128C168.847 64.6932 168.879 64.6688 168.908 64.6403C168.939 64.5953 168.967 64.5478 168.99 64.4983L168.997 66.4949Z" fill="#54C339"/>
</g>
<defs>
<clipPath id="clip0_418_118">
<rect width="169" height="131" fill="white"/>
</clipPath>
</defs>
</svg>
