<svg width="30" height="20" viewBox="0 0 30 20" fill="none" xmlns="http://www.w3.org/2000/svg">
<path d="M20 20C25.5228 20 30 15.5228 30 10C30 4.47715 25.5228 0 20 0C14.4772 0 10 4.47715 10 10C10 15.5228 14.4772 20 20 20Z" fill="#D1D2D2"/>
<path d="M20.0029 4.83577C22.8563 4.83595 25.1689 7.1494 25.1689 10.0028C25.1688 12.856 22.8561 15.1686 20.0029 15.1688C17.1496 15.1688 14.8361 12.8561 14.8359 10.0028C14.8359 7.14929 17.1495 4.83577 20.0029 4.83577Z" fill="#D1D2D2" stroke="#B6B6B6" stroke-width="3"/>
<path d="M10 20C15.5228 20 20 15.5228 20 10C20 4.47715 15.5228 0 10 0C4.47715 0 0 4.47715 0 10C0 15.5228 4.47715 20 10 20Z" fill="#D4AA40"/>
<path d="M9.99902 4.83203C12.8523 4.83221 15.165 7.14566 15.165 9.99902C15.1649 12.8522 12.8522 15.1649 9.99902 15.165C7.14566 15.165 4.83221 12.8523 4.83203 9.99902C4.83203 7.14555 7.14555 4.83203 9.99902 4.83203Z" fill="#D4AA40" stroke="#B7903C" stroke-width="3"/>
</svg>
