<svg width="40" height="40" viewBox="0 0 40 40" fill="none" xmlns="http://www.w3.org/2000/svg">
<circle cx="20" cy="20" r="19.7222" fill="#FFF9E5" stroke="#FFEEB4" stroke-width="0.555556"/>
<path d="M11.4559 13.5H27.5441C27.7965 13.5 28 13.2768 28 13C28 12.7232 27.7965 12.5 27.5441 12.5H11.4559C11.2035 12.5 11 12.7232 11 13C11 13.2768 11.2008 13.5 11.4559 13.5Z" fill="black"/>
<path d="M31 12.858C31 11.2823 29.7708 10 28.2583 10H11.7417C11.0322 10 10.3255 10.3048 9.803 10.8396C9.2915 11.3715 9 12.1075 9 12.858V27.142C9 28.7177 10.2292 30 11.7417 30H28.2583C28.9925 30 29.68 29.701 30.197 29.1604C30.714 28.6199 31 27.9011 31 27.142V17.6222C31 17.6136 30.9972 17.6049 30.9972 17.5934V12.8723C30.9972 12.8666 31 12.8637 31 12.858ZM10.4548 11.5296C10.8013 11.1731 11.2715 10.9689 11.7417 10.9689H28.2583C29.2565 10.9689 30.0705 11.8114 30.0732 12.8522C30.0732 12.8551 30.0705 12.858 30.0705 12.8637V15.4917C29.5865 15.0403 28.9568 14.7585 28.2583 14.7585H11.7417C10.7407 14.7585 9.92675 13.9074 9.92675 12.8608C9.92675 12.3634 10.1193 11.8775 10.4548 11.5296ZM30.0732 24.2754H22.2743C21.2788 24.2754 20.4675 23.4244 20.4675 22.3778C20.4675 21.8689 20.6545 21.3974 21.0038 21.0408C21.3365 20.6843 21.7875 20.4888 22.2743 20.4888H30.0732V24.2754ZM30.0732 19.5198H22.2743C21.5345 19.5198 20.8498 19.8189 20.3493 20.3537C19.8295 20.8856 19.5435 21.6044 19.5435 22.3749C19.5435 23.9563 20.77 25.2415 22.277 25.2415H30.076V27.1392C30.076 27.6394 29.8863 28.1139 29.5453 28.4733C29.2015 28.8327 28.7478 29.0282 28.261 29.0282H11.7417C10.7407 29.0282 9.92675 28.18 9.92675 27.1392V14.9885C10.4107 15.4399 11.0432 15.7246 11.7417 15.7246H28.2583C29.251 15.7246 30.0568 16.5612 30.0705 17.5934V17.6222C30.0705 17.6279 30.0732 17.6308 30.0732 17.6366V19.5198Z" fill="black"/>
<rect x="11" y="18.4395" width="19.07" height="9" fill="#FFF9E5"/>
<path d="M21.0734 24.7463C22.9002 24.7463 24.3811 23.2654 24.3811 21.4386C24.3811 19.6118 22.9002 18.1309 21.0734 18.1309C19.2465 18.1309 17.7656 19.6118 17.7656 21.4386C17.7656 23.2654 19.2465 24.7463 21.0734 24.7463Z" fill="#A191D5"/>
<path d="M21.0762 21.334C21.1342 21.334 21.1816 21.3814 21.1816 21.4395C21.1816 21.4975 21.1342 21.5449 21.0762 21.5449C21.0181 21.5449 20.9707 21.4975 20.9707 21.4395C20.9707 21.3814 21.0182 21.334 21.0762 21.334Z" fill="#A191D5" stroke="#8E77DA" stroke-width="4.2"/>
<path d="M18.9093 26.6565C20.7361 26.6565 22.217 25.1756 22.217 23.3487C22.217 21.5219 20.7361 20.041 18.9093 20.041C17.0825 20.041 15.6016 21.5219 15.6016 23.3487C15.6016 25.1756 17.0825 26.6565 18.9093 26.6565Z" fill="#D4AA40"/>
<path d="M18.9082 23.2422C18.9663 23.2422 19.0136 23.2896 19.0137 23.3477C19.0137 23.4057 18.9663 23.4531 18.9082 23.4531C18.8502 23.4531 18.8027 23.4057 18.8027 23.3477C18.8028 23.2896 18.8502 23.2422 18.9082 23.2422Z" fill="#D4AA40" stroke="#B7903C" stroke-width="4.2"/>
</svg>
