<svg width="36" height="36" viewBox="0 0 36 36" fill="none" xmlns="http://www.w3.org/2000/svg">
<circle cx="18" cy="18" r="18" fill="#D9D9D9"/>
<path d="M22.9204 23.9189C28.1447 23.9189 32.3799 19.6838 32.3799 14.4595C32.3799 9.23514 28.1447 5 22.9204 5C17.6961 5 13.4609 9.23514 13.4609 14.4595C13.4609 19.6838 17.6961 23.9189 22.9204 23.9189Z" fill="#A191D5"/>
<path d="M22.9199 10.252C25.2428 10.2521 27.126 12.136 27.126 14.459C27.1258 16.7818 25.2427 18.6649 22.9199 18.665C20.597 18.665 18.7131 16.7819 18.7129 14.459C18.7129 12.1359 20.5968 10.252 22.9199 10.252Z" fill="#A191D5" stroke="#8E77DA" stroke-width="4.2"/>
<path d="M13.4595 30.0009C18.6838 30.0009 22.9189 25.7658 22.9189 20.5415C22.9189 15.3172 18.6838 11.082 13.4595 11.082C8.23514 11.082 4 15.3172 4 20.5415C4 25.7658 8.23514 30.0009 13.4595 30.0009Z" fill="#D4AA40"/>
<path d="M13.459 16.334C15.7819 16.3342 17.665 18.218 17.665 20.541C17.6649 22.8638 15.7818 24.7469 13.459 24.7471C11.136 24.7471 9.25213 22.8639 9.25195 20.541C9.25195 18.2179 11.1359 16.334 13.459 16.334Z" fill="#D4AA40" stroke="#B7903C" stroke-width="4.2"/>
</svg>
