<svg width="20" height="21" viewBox="0 0 20 21" fill="none" xmlns="http://www.w3.org/2000/svg">
<path fill-rule="evenodd" clip-rule="evenodd" d="M15.8928 16.3916C13.346 18.9387 9.57481 19.489 6.48868 18.0618C6.03309 17.8783 5.65957 17.7301 5.30448 17.7301C4.31541 17.7359 3.08431 18.695 2.44447 18.0559C1.80463 17.416 2.76439 16.1839 2.76439 15.1889C2.76439 14.8337 2.62201 14.4669 2.43861 14.0104C1.01069 10.9248 1.56176 7.15232 4.10855 4.60609C7.35967 1.35377 12.6417 1.35377 15.8928 4.60525C19.1498 7.86259 19.1439 13.1402 15.8928 16.3916Z" stroke="#EFEDED" stroke-linecap="round" stroke-linejoin="round"/>
<path d="M13.2827 10.8444H13.2902" stroke="#EFEDED" stroke-width="1.25" stroke-linecap="round" stroke-linejoin="round"/>
<path d="M9.94185 10.8444H9.94935" stroke="#EFEDED" stroke-width="1.25" stroke-linecap="round" stroke-linejoin="round"/>
<path d="M6.60099 10.8444H6.60849" stroke="#EFEDED" stroke-width="1.25" stroke-linecap="round" stroke-linejoin="round"/>
</svg>
