<svg width="20" height="21" viewBox="0 0 20 21" fill="none" xmlns="http://www.w3.org/2000/svg">
<rect x="2" y="2.5" width="16" height="16" rx="3.2" fill="#414244"/>
<path d="M2 5.7C2 3.93269 3.43269 2.5 5.2 2.5V5.7H2Z" fill="#EFEDED"/>
<rect x="2" y="8.8999" width="3.2" height="3.2" fill="#EFEDED"/>
<path d="M2 15.3H5.2V18.5C3.43269 18.5 2 17.0674 2 15.3Z" fill="#EFEDED"/>
<rect x="5.2" y="5.69995" width="3.2" height="3.2" fill="#EFEDED"/>
<rect x="5.2" y="12.1001" width="3.2" height="3.2" fill="#EFEDED"/>
<rect x="11.6" y="5.69995" width="3.2" height="3.2" fill="#EFEDED"/>
<rect x="11.6" y="12.1001" width="3.2" height="3.2" fill="#EFEDED"/>
<rect x="8.4" y="2.5" width="3.2" height="3.2" fill="#EFEDED"/>
<rect x="8.4" y="8.8999" width="3.2" height="3.2" fill="#EFEDED"/>
<rect x="8.4" y="15.3" width="3.2" height="3.2" fill="#EFEDED"/>
<path d="M14.8 2.5C16.5673 2.5 18 3.93269 18 5.7H14.8V2.5Z" fill="#EFEDED"/>
<rect x="14.8" y="8.8999" width="3.2" height="3.2" fill="#EFEDED"/>
<path d="M14.8 15.3H18C18 17.0674 16.5673 18.5 14.8 18.5V15.3Z" fill="#EFEDED"/>
</svg>
