<svg width="21" height="20" viewBox="0 0 21 20" fill="none" xmlns="http://www.w3.org/2000/svg">
<path d="M6.4557 14.8314L6.5431 14.1146L6.60137 13.6299L7.37548 7.18359H14.3841L15.1582 13.6299L15.3039 14.8314H6.4557Z" fill="#7D8082"/>
<path d="M7.47329 7.44424L7.45665 7.44009C7.0571 7.32823 6.71167 7.13352 6.43698 6.86009C5.99582 6.42094 5.89177 5.93623 5.88761 5.91551V5.90723L5.62125 2.87878L5.71281 2.84564C6.03744 2.72549 6.35791 2.62606 6.66172 2.55149C7.20277 2.41892 7.55237 2.40649 7.67723 2.40649C7.70636 2.40649 7.72717 2.40649 7.72717 2.40649L7.81873 2.41063L8.50544 4.53593H9.08395L9.1214 4.31222V4.2915L9.12557 4.28322L9.471 2.18692L9.54592 2.16206C9.87055 2.05435 10.2867 2.00049 10.782 2.00049C10.8153 2.00049 10.8486 2.00049 10.8819 2.00049C10.9152 2.00049 10.9443 2.00049 10.9776 2.00049C11.1316 2.00049 11.2814 2.00463 11.4229 2.01706C11.7268 2.04192 11.9931 2.09163 12.2137 2.16206L12.2886 2.18692L12.6757 4.54007H13.25L13.9367 2.41478L14.0283 2.41063C14.0283 2.41063 14.0491 2.41063 14.0782 2.41063C14.1906 2.41063 14.4986 2.42306 14.9772 2.53078C15.3143 2.60535 15.6722 2.71306 16.0426 2.84978L16.1342 2.88292L15.8678 5.91137V5.91965C15.8637 5.93208 15.8012 6.21794 15.5807 6.54937C15.3726 6.8518 14.9855 7.25366 14.303 7.44424L14.2863 7.44838H7.47329V7.44424Z" fill="#7D8082"/>
<path d="M4.65332 17.9965V17.8639C4.66581 16.9608 4.80731 16.3145 4.81147 16.2896C4.96962 15.5978 5.29009 15.1006 5.76455 14.8147C6.13495 14.591 6.48455 14.5745 6.58028 14.5745C6.5886 14.5745 6.59693 14.5745 6.60109 14.5745H15.1496C15.1538 14.5745 15.1621 14.5745 15.1704 14.5745C15.2662 14.5745 15.6158 14.591 15.9862 14.8147C16.4606 15.1006 16.7811 15.5978 16.9392 16.2896C16.9434 16.3186 17.0849 16.9649 17.0974 17.8681V18.0006H4.65332V17.9965Z" fill="#7D8082"/>
</svg>
