<svg width="20" height="20" viewBox="0 0 20 20" fill="none" xmlns="http://www.w3.org/2000/svg">
<mask id="path-1-inside-1_333_1019" fill="white">
<path d="M7 2.83333C7 2.3731 7.3731 2 7.83333 2H12.1667C12.6269 2 13 2.3731 13 2.83333V18H7V2.83333Z"/>
</mask>
<path d="M7 2.83333C7 2.3731 7.3731 2 7.83333 2H12.1667C12.6269 2 13 2.3731 13 2.83333V18H7V2.83333Z" stroke="#EFEDED" stroke-width="2" mask="url(#path-1-inside-1_333_1019)"/>
<mask id="path-2-inside-2_333_1019" fill="white">
<path d="M12 8.83333C12 8.3731 12.3731 8 12.8333 8H17.1667C17.6269 8 18 8.3731 18 8.83333V17.1667C18 17.6269 17.6269 18 17.1667 18H12V8.83333Z"/>
</mask>
<path d="M12 8.83333C12 8.3731 12.3731 8 12.8333 8H17.1667C17.6269 8 18 8.3731 18 8.83333V17.1667C18 17.6269 17.6269 18 17.1667 18H12V8.83333Z" stroke="#EFEDED" stroke-width="2" mask="url(#path-2-inside-2_333_1019)"/>
<mask id="path-3-inside-3_333_1019" fill="white">
<path d="M2 12.8333C2 12.3731 2.3731 12 2.83333 12H7.16667C7.6269 12 8 12.3731 8 12.8333V18H2.83333C2.3731 18 2 17.6269 2 17.1667V12.8333Z"/>
</mask>
<path d="M2 12.8333C2 12.3731 2.3731 12 2.83333 12H7.16667C7.6269 12 8 12.3731 8 12.8333V18H2.83333C2.3731 18 2 17.6269 2 17.1667V12.8333Z" stroke="#EFEDED" stroke-width="2" mask="url(#path-3-inside-3_333_1019)"/>
</svg>
