<svg width="21" height="20" viewBox="0 0 21 20" fill="none" xmlns="http://www.w3.org/2000/svg">
<path d="M13.8083 18H11.2677C11.0972 18 10.9337 17.9323 10.8131 17.8117C10.6925 17.6912 10.6248 17.5276 10.6248 17.3572V16.3675C10.6253 16.2155 10.5948 16.065 10.5352 15.9252C10.4756 15.7854 10.3881 15.6592 10.278 15.5543C10.0002 15.2833 9.59663 15.1329 9.17485 15.1433C8.41201 15.1611 7.76774 15.8325 7.76774 16.6097V17.3572C7.76774 17.5276 7.70001 17.6912 7.57946 17.8117C7.4589 17.9323 7.29539 18 7.1249 18H4.61138C4.35053 18 4.09223 17.9486 3.85123 17.8488C3.61023 17.749 3.39125 17.6027 3.2068 17.4182C2.83428 17.0457 2.625 16.5404 2.625 16.0136V13.5001C2.625 13.3296 2.69273 13.1661 2.81328 13.0455C2.93384 12.925 3.09735 12.8573 3.26784 12.8573H4.25746C4.5846 12.8573 4.90281 12.7173 5.15351 12.4644C5.29299 12.3238 5.4033 12.157 5.47807 11.9736C5.55285 11.7903 5.59062 11.5939 5.58922 11.3959C5.5785 10.6391 4.95566 10.0002 4.22889 10.0002H3.26784C3.09735 10.0002 2.93384 9.93245 2.81328 9.8119C2.69273 9.69134 2.625 9.52783 2.625 9.35734V6.84382C2.625 6.58297 2.67638 6.32467 2.7762 6.08367C2.87603 5.84267 3.02235 5.62369 3.2068 5.43924C3.57932 5.06672 4.08456 4.85744 4.61138 4.85744H6.5842C6.65997 4.85744 6.73264 4.82734 6.78622 4.77376C6.8398 4.72018 6.8699 4.64751 6.8699 4.57173V4.34031C6.8699 4.02952 6.93181 3.72184 7.052 3.43523C7.17219 3.14863 7.34827 2.88883 7.56995 2.671C7.79163 2.45318 8.05448 2.28169 8.34315 2.16654C8.63182 2.0514 8.94054 1.99491 9.25128 2.00036C10.5188 2.0225 11.5498 3.08534 11.5498 4.36924V4.57173C11.5498 4.64751 11.5799 4.72018 11.6335 4.77376C11.6871 4.82734 11.7597 4.85744 11.8355 4.85744H13.8083C14.0656 4.85744 14.3204 4.90812 14.5581 5.00658C14.7958 5.10504 15.0118 5.24935 15.1937 5.43129C15.3756 5.61322 15.52 5.8292 15.6184 6.06691C15.7169 6.30462 15.7676 6.55939 15.7676 6.81668V8.78949C15.7676 8.86527 15.7977 8.93794 15.8512 8.99152C15.9048 9.0451 15.9775 9.0752 16.0533 9.0752H16.2554C17.5618 9.0752 18.6246 10.1109 18.6246 11.3837C18.6246 12.6912 17.575 13.7551 16.2847 13.7551H16.0533C15.9775 13.7551 15.9048 13.7852 15.8512 13.8388C15.7977 13.8924 15.7676 13.965 15.7676 14.0408V16.0408C15.7676 16.298 15.7169 16.5528 15.6184 16.7905C15.52 17.0282 15.3756 17.2442 15.1937 17.4262C15.0118 17.6081 14.7958 17.7524 14.5581 17.8509C14.3204 17.9493 14.0656 18 13.8083 18Z" fill="#7D8082"/>
</svg>
