<svg width="20" height="20" viewBox="0 0 20 20" fill="none" xmlns="http://www.w3.org/2000/svg">
<path d="M11.8945 2.95691C12.1564 2.51512 12.7142 2.37283 13.1328 2.62292L13.1396 2.62781L14.5996 3.46667H14.6006C15.1259 3.76833 15.3099 4.44523 15.0059 4.98035C14.5734 5.73795 14.4735 6.53997 14.8447 7.18445C15.2166 7.82979 15.9606 8.14333 16.832 8.14343C17.4375 8.14343 17.9384 8.64506 17.9443 9.25867V10.746C17.9442 11.3599 17.4421 11.8563 16.8408 11.8563C15.9696 11.8563 15.2254 12.1699 14.8545 12.8163C14.5303 13.3814 14.5684 14.0664 14.876 14.7362L15.0234 15.0214C15.3254 15.5466 15.1433 16.2311 14.6172 16.5331L13.1562 17.3719L13.1494 17.3768C12.7569 17.6113 12.2424 17.5008 11.9639 17.1219L11.9111 17.0428L11.8213 16.8866L11.6484 16.6151C11.2226 16.0142 10.6485 15.6386 9.99707 15.6385C9.25231 15.6385 8.61135 16.1298 8.17871 16.8866L8.08887 17.0428C7.82698 17.4847 7.26921 17.6269 6.85059 17.3768L6.84375 17.3719L5.38379 16.5331H5.38281C4.8573 16.2313 4.67394 15.5537 4.97852 15.0184L4.97754 15.0175C5.41293 14.2612 5.51547 13.461 5.14551 12.8163C4.77457 12.1699 4.03046 11.8563 3.15918 11.8563C2.55291 11.8563 2.0558 11.3548 2.05566 10.746V9.25378C2.0558 8.63989 2.55793 8.1435 3.15918 8.14343C4.0303 8.14343 4.77445 7.83025 5.14551 7.18542C5.51593 6.54151 5.41373 5.74194 4.97754 4.98914H4.97852C4.67332 4.45281 4.85838 3.76782 5.38281 3.46667H5.38379L6.84375 2.62781L6.85059 2.62292C7.27241 2.37091 7.82363 2.51938 8.06738 2.9491L8.06836 2.95203L8.16211 3.11316C8.59889 3.86988 9.24175 4.36118 9.98633 4.36121C10.7311 4.36121 11.3721 3.86998 11.8047 3.11316L11.8945 2.95691ZM9.99609 6.745C8.20718 6.745 6.75293 8.20858 6.75293 9.99988C6.75293 11.7912 8.20718 13.2548 9.99609 13.2548C11.7849 13.2546 13.2393 11.7911 13.2393 9.99988C13.2393 8.20865 11.7849 6.74511 9.99609 6.745Z" stroke="#EFEDED"/>
</svg>
