<svg width="21" height="20" viewBox="0 0 21 20" fill="none" xmlns="http://www.w3.org/2000/svg">
<path d="M16.9573 7.64361C15.4297 7.64361 14.8051 6.55874 15.5647 5.22808C16.0036 4.4568 15.742 3.47363 14.9739 3.0329L13.5137 2.19382C12.847 1.79547 11.9861 2.03279 11.5894 2.70236L11.4965 2.86339C10.7369 4.19406 9.48775 4.19406 8.71969 2.86339L8.62685 2.70236C8.24704 2.03279 7.38613 1.79547 6.71936 2.19382L5.2592 3.0329C4.49114 3.47363 4.22949 4.46527 4.66838 5.23655C5.43644 6.55874 4.81187 7.64361 3.28418 7.64361C2.4064 7.64361 1.68054 8.36403 1.68054 9.25397V10.7457C1.68054 11.6271 2.39796 12.356 3.28418 12.356C4.81187 12.356 5.43644 13.4409 4.66838 14.7716C4.22949 15.5428 4.49114 16.526 5.2592 16.9667L6.71936 17.8058C7.38613 18.2042 8.24704 17.9668 8.64373 17.2973L8.73657 17.1362C9.49619 15.8056 10.7453 15.8056 11.5134 17.1362L11.6062 17.2973C12.0029 17.9668 12.8638 18.2042 13.5306 17.8058L14.9908 16.9667C15.7588 16.526 16.0205 15.5344 15.5816 14.7716C14.8135 13.4409 15.4381 12.356 16.9658 12.356C17.8436 12.356 18.5694 11.6356 18.5694 10.7457V9.25397C18.561 8.37251 17.8436 7.64361 16.9573 7.64361ZM10.1208 12.7544C8.60997 12.7544 7.37769 11.5169 7.37769 9.99982C7.37769 8.48269 8.60997 7.24526 10.1208 7.24526C11.6316 7.24526 12.8638 8.48269 12.8638 9.99982C12.8638 11.5169 11.6316 12.7544 10.1208 12.7544Z" fill="#7D8082"/>
</svg>
