<svg width="16" height="16" viewBox="0 0 16 16" fill="none" xmlns="http://www.w3.org/2000/svg">
<path fill-rule="evenodd" clip-rule="evenodd" d="M8.92021 1.48068L10.4431 4.52297C10.5923 4.82163 10.8804 5.02873 11.2145 5.07666L14.6211 5.56702C15.4628 5.68854 15.7977 6.70862 15.1886 7.29312L12.7252 9.6602C12.4831 9.89298 12.3729 10.2276 12.4301 10.5562L13.0115 13.898C13.1547 14.7247 12.2748 15.3554 11.5225 14.9643L8.47768 13.3854C8.17918 13.2305 7.82168 13.2305 7.52232 13.3854L4.4775 14.9643C3.72519 15.3554 2.84533 14.7247 2.98937 13.898L3.56987 10.5562C3.62714 10.2276 3.51694 9.89298 3.27485 9.6602L0.8114 7.29312C0.202263 6.70862 0.537201 5.68854 1.37889 5.56702L4.78554 5.07666C5.11961 5.02873 5.40856 4.82163 5.55781 4.52297L7.07979 1.48068C7.45638 0.728447 8.54362 0.728447 8.92021 1.48068Z" stroke="#EFEDED" stroke-linecap="round" stroke-linejoin="round"/>
</svg>
