<svg width="20" height="20" viewBox="0 0 20 20" fill="none" xmlns="http://www.w3.org/2000/svg">
<path d="M1.66666 10.0218C1.66666 14.3103 4.88927 17.8442 9.039 18.322C9.65133 18.3925 10.2448 18.1314 10.6807 17.6945C11.2252 17.1485 11.2252 16.2633 10.6807 15.7173C10.2448 15.2804 9.8895 14.6285 10.2182 14.1057C11.5321 12.0161 18.3333 16.8151 18.3333 10.0218C18.3333 5.40745 14.6023 1.66675 10 1.66675C5.39762 1.66675 1.66666 5.40745 1.66666 10.0218Z" stroke="#EFEDED"/>
<path d="M14.5833 10.2083C14.9285 10.2083 15.2083 9.92843 15.2083 9.58325C15.2083 9.23807 14.9285 8.95825 14.5833 8.95825C14.2382 8.95825 13.9583 9.23807 13.9583 9.58325C13.9583 9.92843 14.2382 10.2083 14.5833 10.2083Z" stroke="#EFEDED"/>
<path d="M5.41666 10.2083C5.76184 10.2083 6.04166 9.92843 6.04166 9.58325C6.04166 9.23807 5.76184 8.95825 5.41666 8.95825C5.07149 8.95825 4.79166 9.23807 4.79166 9.58325C4.79166 9.92843 5.07149 10.2083 5.41666 10.2083Z" stroke="#EFEDED"/>
<path d="M8.6125 5.83301C8.6125 6.17818 8.33264 6.45801 7.98746 6.45801C7.64229 6.45801 7.36246 6.17818 7.36246 5.83301C7.36246 5.48782 7.64229 5.20801 7.98746 5.20801C8.33264 5.20801 8.6125 5.48782 8.6125 5.83301Z" stroke="#EFEDED"/>
<path d="M12.7083 5.83325C12.7083 6.17843 12.4285 6.45825 12.0833 6.45825C11.7382 6.45825 11.4583 6.17843 11.4583 5.83325C11.4583 5.48808 11.7382 5.20825 12.0833 5.20825C12.4285 5.20825 12.7083 5.48808 12.7083 5.83325Z" stroke="#EFEDED"/>
</svg>
