<svg width="21" height="20" viewBox="0 0 21 20" fill="none" xmlns="http://www.w3.org/2000/svg">
<path d="M13.6591 4.89651H17.4913V6.88101C17.4913 7.77989 17.1388 8.58893 16.406 9.37021C15.8228 9.99251 15.0088 10.5802 13.9847 11.1195L13.6658 10.9744V4.89651M12.1463 3.34783V11.9838L14.0186 12.8342C16.6571 11.5899 19.0242 9.70205 19.0242 6.88807V3.78995C19.0242 3.54113 18.8277 3.34076 18.5836 3.34076H12.1463V3.34783Z" fill="#7D8082"/>
<path d="M7.0862 4.89657V10.9745L6.76734 11.1196C5.74319 10.5803 4.92922 9.99257 4.34572 9.37027C3.61295 8.58899 3.26042 7.77995 3.26042 6.88107V4.89657H7.09288M8.6124 3.34789H2.17488C1.93078 3.34789 1.73422 3.54825 1.73422 3.79707V6.88813C1.73422 9.70211 4.09445 11.59 6.73986 12.8346L8.61215 11.9841V3.34082L8.6124 3.34789Z" fill="#7D8082"/>
<path d="M14.2509 13.0934C11.6754 11.733 9.09991 11.733 6.52469 13.0934C8.07411 14.1243 8.57627 15.1556 8.03117 16.1938C7.76569 16.6838 12.9667 16.6475 12.7156 16.1281C12.2207 15.119 12.737 14.1024 14.2509 13.0934Z" fill="#7D8082"/>
<path d="M12.0695 14.2487H8.66906C6.74655 14.2487 5.14686 12.7349 5.00339 10.7752L4.40802 2.59248C4.40224 2.51689 4.41186 2.44089 4.43629 2.36927C4.46071 2.29765 4.4994 2.23195 4.54993 2.17631C4.60046 2.12067 4.66174 2.07628 4.72991 2.04594C4.79807 2.01559 4.87166 1.99996 4.94605 2H15.7928C16.1083 2 16.3594 2.27062 16.3308 2.59248L15.7352 10.7752C15.5917 12.7349 13.992 14.2487 12.0695 14.2487Z" fill="#7D8082"/>
<path d="M10.3687 6.80412V3.54279C10.3687 3.33062 10.2325 3.15501 10.0459 3.09656H5.64133C5.57666 3.09656 5.51933 3.15527 5.52639 3.22093L6.07176 10.6945C6.10056 11.0745 6.2079 11.433 6.37284 11.7548C6.45191 11.9011 6.62419 11.9667 6.77473 11.9155C8.86219 11.1917 10.3616 9.18073 10.3616 6.81133L10.3687 6.80412Z" fill="#7D8082"/>
<path d="M15.5705 15.4409H5.17594C5.06944 15.4407 4.96396 15.462 4.86554 15.5035C4.76712 15.5449 4.67769 15.6058 4.60237 15.6825C4.52705 15.7593 4.46733 15.8504 4.42661 15.9507C4.3859 16.0511 4.36499 16.1586 4.3651 16.2671V17.4737C4.3651 17.759 4.59471 18.0003 4.88166 18.0003H15.8719C16.0087 17.9997 16.1397 17.944 16.2365 17.8454C16.3332 17.7467 16.3878 17.6132 16.3884 17.4737V16.2674C16.3886 16.1588 16.3677 16.0513 16.327 15.951C16.2863 15.8507 16.2267 15.7595 16.1514 15.6827C16.0761 15.606 15.9867 15.5451 15.8882 15.5036C15.7898 15.4621 15.6844 15.4408 15.5779 15.4409H15.5705Z" fill="#7D8082"/>
</svg>
