<svg width="20" height="20" viewBox="0 0 20 20" fill="none" xmlns="http://www.w3.org/2000/svg">
<path fill-rule="evenodd" clip-rule="evenodd" d="M3.33488 10.0002C3.33255 11.0249 3.28683 12.4226 3.92078 12.945C4.51211 13.4323 4.92829 13.3068 6.00787 13.386C7.08823 13.466 9.36829 16.6417 11.126 15.6372C12.0328 14.9242 12.1002 13.4293 12.1002 10.0002C12.1002 6.57104 12.0328 5.07621 11.126 4.36317C9.36829 3.35789 7.08823 6.53442 6.00787 6.61439C4.92829 6.69362 4.51211 6.56805 3.92078 7.05537C3.28683 7.57781 3.33255 8.97549 3.33488 10.0002Z" stroke="#EFEDED" stroke-linecap="round" stroke-linejoin="round"/>
<path d="M15.4845 6.92896C16.5773 8.83786 16.5773 11.1691 15.4845 13.072" stroke="#EFEDED" stroke-linecap="round" stroke-linejoin="round"/>
</svg>
